<?xml version="1.0" encoding="UTF-8"?>
<svg xmlns="http://www.w3.org/2000/svg" xmlns:xlink="http://www.w3.org/1999/xlink" width="36pt" height="36pt" viewBox="0 0 36 36" version="1.1">
<g id="surface2544">
<path style=" stroke:none;fill-rule:nonzero;fill:rgb(100%,100%,100%);fill-opacity:1;" d="M 27 5.386719 C 26.789062 5.40625 26.585938 5.511719 26.445312 5.707031 L 24.945312 7.761719 C 22.320312 5.976562 18.996094 5.183594 15.554688 5.867188 C 9.878906 6.992188 5.679688 12.039062 5.625 17.828125 C 5.550781 25.339844 11.976562 31.042969 19.234375 30.3125 C 25.628906 29.671875 30.394531 24.269531 30.375 17.976562 C 30.375 17.320312 29.792969 16.816406 29.136719 16.882812 C 28.546875 16.941406 28.125 17.433594 28.125 18.015625 C 28.125 23.152344 24.230469 27.550781 19.011719 28.074219 C 13.074219 28.671875 7.816406 24.007812 7.875 17.863281 C 7.917969 13.101562 11.40625 8.945312 16.085938 8.054688 C 18.839844 7.53125 21.496094 8.171875 23.613281 9.585938 L 22.066406 11.699219 C 21.6875 12.21875 22.058594 12.953125 22.707031 12.953125 L 28.996094 12.953125 C 29.53125 12.953125 29.910156 12.433594 29.746094 11.921875 L 27.832031 5.929688 C 27.710938 5.546875 27.347656 5.351562 27 5.386719 Z M 27 5.386719 "/>
</g>
</svg>
