<?xml version="1.0" encoding="UTF-8"?>
<svg xmlns="http://www.w3.org/2000/svg" xmlns:xlink="http://www.w3.org/1999/xlink" width="36pt" height="36pt" viewBox="0 0 36 36" version="1.1">
<g id="surface6908">
<path style=" stroke:none;fill-rule:nonzero;fill:rgb(100%,100%,100%);fill-opacity:1;" d="M 25.875 30.9375 C 25.667969 30.9375 25.464844 30.882812 25.28125 30.769531 L 18 26.238281 L 10.71875 30.769531 C 10.335938 31.003906 9.851562 30.992188 9.480469 30.734375 C 9.113281 30.476562 8.933594 30.023438 9.023438 29.585938 L 10.800781 21 L 4.324219 15.363281 C 3.984375 15.070312 3.855469 14.601562 3.988281 14.175781 C 4.125 13.75 4.5 13.441406 4.949219 13.398438 L 13.542969 12.519531 L 16.96875 4.617188 C 17.144531 4.203125 17.550781 3.9375 18 3.9375 C 18.449219 3.9375 18.855469 4.203125 19.03125 4.617188 L 22.457031 12.519531 L 31.050781 13.398438 C 31.496094 13.441406 31.875 13.75 32.007812 14.175781 C 32.144531 14.605469 32.015625 15.070312 31.675781 15.363281 L 25.199219 21 L 26.976562 29.585938 C 27.066406 30.023438 26.886719 30.476562 26.519531 30.734375 C 26.324219 30.871094 26.101562 30.9375 25.875 30.9375 Z M 18 23.789062 C 18.207031 23.789062 18.410156 23.847656 18.59375 23.960938 L 24.242188 27.472656 L 22.863281 20.808594 C 22.78125 20.410156 22.917969 20 23.226562 19.734375 L 28.242188 15.371094 L 21.570312 14.691406 C 21.167969 14.648438 20.816406 14.390625 20.652344 14.019531 L 18 7.890625 L 15.347656 14.019531 C 15.183594 14.390625 14.832031 14.648438 14.429688 14.691406 L 7.757812 15.371094 L 12.773438 19.734375 C 13.082031 20 13.21875 20.410156 13.136719 20.808594 L 11.757812 27.472656 L 17.40625 23.960938 C 17.589844 23.847656 17.792969 23.789062 18 23.789062 Z M 18 23.789062 "/>
</g>
</svg>
