<svg xmlns="http://www.w3.org/2000/svg" width="151" height="67" viewBox="0 0 151 67">
  <g fill-rule="evenodd" transform="translate(.332 .951)">
    <path d="M50.2123,17.5901 C50.3393,17.7581 50.4623,17.9151 50.5853,18.0791 C56.7813,10.3751 63.6343,4.1451 75.1703,4.1451 C86.1693,4.1451 92.9103,9.8181 98.8783,17.0231 C99.7143,15.9101 100.5703,14.7781 101.4593,13.6391 C95.1023,6.1471 87.4843,0.0001 75.1703,0.0001 C62.2863,0.0001 54.5513,6.7301 48.0163,14.6851 C48.7633,15.6631 49.5023,16.6411 50.2123,17.5901"/>
    <path d="M148.646,2.902 C144.87,1.087 140.531,0 135.354,0 C119.064,0 110.994,10.752 103.188,21.149 C95.663,31.169 88.552,40.637 74.334,40.637 C60.116,40.637 53.006,31.169 45.481,21.149 C37.671,10.752 29.604,0 13.314,0 C8.126,0 3.775,1.091 0,2.913 L0,7.626 C3.712,5.46 8.018,4.145 13.314,4.145 C27.535,4.145 34.639,13.613 42.168,23.64 C49.97,34.038 58.044,44.786 74.334,44.786 C90.624,44.786 98.695,34.038 106.501,23.64 C114.026,13.613 121.133,4.145 135.354,4.145 C140.635,4.145 144.938,5.46 148.646,7.615 L148.646,2.902"/>
    <path d="M148.646 37.6304C145.128 39.5124 141.083 40.6364 136.187 40.6364 124.655 40.6364 117.802 34.4114 111.61 26.7064 111.483 26.8674 111.363 27.0234 111.24 27.1924 110.526 28.1404 109.783 29.1224 109.036 30.1014 115.569 38.0564 123.307 44.7854 136.187 44.7854 140.99 44.7854 145.069 43.8444 148.646 42.2614L148.646 37.6304M14.1503 40.6367C8.4513 40.6367 3.8993 39.1167.0003 36.6447L.0003 41.4477C3.9703 43.5197 8.5743 44.7857 14.1503 44.7857 26.4673 44.7857 34.0823 38.6387 40.4343 31.1467 39.5493 30.0077 38.6983 28.8757 37.8613 27.7667 31.8893 34.9677 25.1483 40.6367 14.1503 40.6367"/>
    <path d="M6.3523 31.442L6.3523 13.359C6.3523 12.582 6.5533 11.977 6.9573 11.54 7.3533 11.103 7.8683 10.887 8.4883 10.887 8.7873 10.887 9.1233 10.991 9.4823 11.2 9.8483 11.406 10.1173 11.648 10.2963 11.928L19.3863 25.384 19.4383 25.384 19.4383 13.359C19.4383 12.582 19.6403 11.977 20.0433 11.54 20.4473 11.103 20.9553 10.887 21.5823 10.887 22.2253 10.887 22.7473 11.103 23.1433 11.532 23.5393 11.962 23.7333 12.571 23.7333 13.359L23.7333 31.442C23.7333 32.23 23.5393 32.839 23.1433 33.272 22.7473 33.698 22.2253 33.915 21.5823 33.915 21.3213 33.915 21.0073 33.814 20.6483 33.612 20.2903 33.406 19.9993 33.164 19.7753 32.872L10.6993 19.573 10.6473 19.573 10.6473 31.442C10.6473 32.23 10.4453 32.839 10.0503 33.272 9.6533 33.698 9.1383 33.915 8.4883 33.915 7.8683 33.915 7.3533 33.698 6.9573 33.261 6.5533 32.824 6.3523 32.219 6.3523 31.442M125.2036 31.442L125.2036 13.359C125.2036 12.582 125.4056 11.977 125.8086 11.54 126.2046 11.103 126.7196 10.887 127.3396 10.887 127.6386 10.887 127.9746 10.991 128.3336 11.2 128.6996 11.406 128.9676 11.648 129.1476 11.928L138.2376 25.384 138.2896 25.384 138.2896 13.359C138.2896 12.582 138.4916 11.977 138.8946 11.54 139.2986 11.103 139.8056 10.887 140.4336 10.887 141.0756 10.887 141.5986 11.103 141.9946 11.532 142.3906 11.962 142.5846 12.571 142.5846 13.359L142.5846 31.442C142.5846 32.23 142.3906 32.839 141.9946 33.272 141.5986 33.698 141.0756 33.915 140.4336 33.915 140.1726 33.915 139.8586 33.814 139.4996 33.612 139.1416 33.406 138.8506 33.164 138.6266 32.872L129.5516 19.573 129.4986 19.573 129.4986 31.442C129.4986 32.23 129.2966 32.839 128.9006 33.272 128.5046 33.698 127.9896 33.915 127.3396 33.915 126.7196 33.915 126.2046 33.698 125.8086 33.261 125.4056 32.824 125.2036 32.219 125.2036 31.442M63.9334 31.0833L66.5994 13.3293C66.6894 12.7163 67.0034 12.1563 67.5254 11.6483 68.0564 11.1403 68.6764 10.8863 69.3934 10.8863 70.0804 10.8863 70.6924 11.1103 71.2154 11.5623 71.7464 12.0143 72.0894 12.5523 72.2614 13.1723L75.6454 25.7723 75.6974 25.7723 79.0814 13.1723C79.2454 12.5593 79.5964 12.0293 80.1194 11.5703 80.6494 11.1143 81.2474 10.8863 81.9344 10.8863 82.6514 10.8863 83.2714 11.1403 83.8014 11.6483 84.3314 12.1563 84.6454 12.7163 84.7424 13.3293L87.4094 31.0833C87.4314 31.2103 87.4384 31.3893 87.4384 31.6283 87.4384 32.3233 87.2374 32.8763 86.8414 33.2943 86.4454 33.7053 85.9524 33.9143 85.3704 33.9143 84.6674 33.9143 84.1524 33.7353 83.8094 33.3833 83.4724 33.0323 83.2414 32.4693 83.1294 31.6923L81.4564 18.7333 81.3884 18.7333 77.9604 32.0803C77.6244 33.3013 76.8624 33.9143 75.6674 33.9143 74.4574 33.9143 73.6954 33.3013 73.3744 32.0803L69.9384 18.7333 69.8864 18.7333 68.1904 31.6923C68.0934 32.4573 67.8694 33.0183 67.5254 33.3763 67.1894 33.7353 66.6674 33.9143 65.9724 33.9143 65.3824 33.9143 64.8894 33.7053 64.4934 33.2863 64.0974 32.8653 63.9034 32.3163 63.9034 31.6283 63.9034 31.3893 63.9104 31.2103 63.9334 31.0833M119.497 56.1877C120.797 56.1877 121.379 55.6047 121.379 54.9557 121.379 54.3317 120.901 54.0737 119.826 54.0737L117.727 54.0737 117.167 56.1877 119.497 56.1877zM118.16 61.5437C119.393 61.5437 120.125 61.0017 120.125 60.2477 120.125 59.6017 119.587 59.2947 118.504 59.2947L116.323 59.2947 115.725 61.5437 118.16 61.5437zM113.843 50.2497L120.535 50.2497C125.182 50.2497 126.302 51.9567 126.302 53.8127 126.302 55.6497 125.069 57.1817 122.761 57.7867 124.188 58.1527 125.219 59.2127 125.219 60.7667 125.219 63.3137 123.195 65.3637 118.011 65.3637L109.787 65.3637 113.843 50.2497z"/>
    <polygon points="129.274 50.25 134.323 50.25 130.268 65.364 125.211 65.364"/>
    <path d="M144.8704,57.2448 C144.8704,55.6498 143.8994,54.3948 142.0844,54.3948 C139.9704,54.3948 138.6034,56.4678 138.6034,58.3688 C138.6034,59.9678 139.5744,61.2188 141.3894,61.2188 C143.5104,61.2188 144.8704,59.1458 144.8704,57.2448 M133.5324,58.8238 C133.5324,54.1378 137.3564,49.9468 142.4274,49.9468 C146.8794,49.9468 149.9424,52.9278 149.9424,56.7928 C149.9424,61.4758 146.1184,65.6668 141.0464,65.6668 C136.6014,65.6668 133.5324,62.6858 133.5324,58.8238"/>
  </g>
</svg>
