<?xml version="1.0" encoding="UTF-8"?>
<svg xmlns="http://www.w3.org/2000/svg" xmlns:xlink="http://www.w3.org/1999/xlink" width="36pt" height="36pt" viewBox="0 0 36 36" version="1.1">
<g id="surface27268">
<path style=" stroke:none;fill-rule:nonzero;fill:rgb(100%,72.941178%,34.117648%);fill-opacity:1;" d="M 22.125 22.5 C 20.675781 22.5 19.5 23.675781 19.5 25.125 C 19.5 26.574219 20.675781 27.75 22.125 27.75 C 23.574219 27.75 24.75 26.574219 24.75 25.125 C 24.75 23.675781 23.574219 22.5 22.125 22.5 Z M 22.125 22.5 "/>
<path style=" stroke:none;fill-rule:nonzero;fill:rgb(100%,72.941178%,34.117648%);fill-opacity:1;" d="M 15 13.5 L 15 31.875 C 15 32.496094 15.503906 33 16.125 33 C 16.746094 33 17.25 32.496094 17.25 31.875 L 18 22.5 L 29.378906 16.382812 C 29.933594 16.101562 30.160156 15.429688 29.882812 14.871094 C 29.605469 14.316406 28.929688 14.089844 28.371094 14.367188 L 21.75 17.21875 L 21.75 13.5 Z M 15 13.5 "/>
<path style=" stroke:none;fill-rule:nonzero;fill:rgb(100%,45.882353%,29.803923%);fill-opacity:1;" d="M 31.996094 3.667969 C 31.539062 2.980469 30.609375 2.792969 29.917969 3.253906 L 20.039062 9 L 5.25 9 C 4.425781 9 3.75 9.675781 3.75 10.5 C 3.75 11.324219 4.425781 12 5.25 12 L 15 12.75 L 15 13.5 L 21.75 13.5 L 21.75 12.75 L 31.582031 5.75 C 32.269531 5.289062 32.457031 4.359375 31.996094 3.667969 Z M 31.996094 3.667969 "/>
<path style=" stroke:none;fill-rule:nonzero;fill:rgb(49.411765%,54.901963%,81.176472%);fill-opacity:1;" d="M 17.640625 27 L 18 22.5 L 25.5 18.46875 L 25.5 15.605469 L 21.75 17.21875 L 21.75 12.75 L 15 12.75 L 15 27 Z M 17.640625 27 "/>
<path style=" stroke:none;fill-rule:nonzero;fill:rgb(37.64706%,43.529412%,76.862746%);fill-opacity:1;" d="M 20.25 12.75 L 20.25 17.863281 L 21.75 17.25 L 21.75 12.75 Z M 20.25 12.75 "/>
<path style=" stroke:none;fill-rule:nonzero;fill:rgb(90.196079%,29.019609%,9.803922%);fill-opacity:1;" d="M 30.753906 3 C 30.890625 3 31.007812 3.015625 31.101562 3.046875 C 30.988281 3.019531 30.871094 3 30.753906 3 Z M 31.996094 3.667969 C 31.78125 3.34375 31.457031 3.132812 31.105469 3.046875 C 31.777344 3.261719 31.425781 4.167969 30.566406 4.90625 C 29.582031 5.746094 20.25 12.75 20.25 12.75 L 21.75 12.75 L 31.582031 5.75 C 32.269531 5.289062 32.457031 4.359375 31.996094 3.667969 Z M 31.996094 3.667969 "/>
</g>
</svg>
