<?xml version="1.0" encoding="UTF-8"?>
<svg xmlns="http://www.w3.org/2000/svg" xmlns:xlink="http://www.w3.org/1999/xlink" width="36pt" height="36pt" viewBox="0 0 36 36" version="1.1">
<g id="surface18733">
<path style=" stroke:none;fill-rule:nonzero;fill:rgb(100%,71.764708%,30.19608%);fill-opacity:1;" d="M 22.5 33 L 22.5 29.546875 L 24.453125 29.921875 C 26.625 30.375 28.648438 28.796875 28.800781 26.625 L 29.25 21.75 L 31.421875 20.851562 C 32.171875 20.550781 32.476562 19.648438 32.023438 18.898438 L 29.25 14.25 C 28.796875 8.546875 25.578125 3 17.25 3 C 8.703125 3 4.5 9.296875 4.5 15.75 C 4.5 18.523438 5.476562 20.921875 6.976562 22.953125 C 8.328125 24.828125 9 27.078125 9 29.328125 L 9 33 Z M 22.5 33 "/>
<path style=" stroke:none;fill-rule:nonzero;fill:rgb(47.058824%,31.37255%,74.901962%);fill-opacity:1;" d="M 10.953125 9.488281 C 12.296875 8.554688 13.734375 7.769531 15.257812 7.550781 C 16.023438 7.445312 16.808594 7.472656 17.617188 7.570312 C 18.367188 7.660156 19.496094 7.875 19.535156 7.878906 L 19.3125 9.121094 C 20.546875 8.675781 21.832031 8.234375 23.035156 7.71875 C 21.980469 6.925781 21.019531 6.089844 20.015625 5.238281 L 19.789062 6.476562 L 19.085938 6.351562 C 18.664062 6.277344 18.230469 6.207031 17.789062 6.15625 C 16.910156 6.046875 15.984375 6.007812 15.058594 6.136719 C 13.1875 6.40625 11.5625 7.328125 10.128906 8.324219 Z M 10.953125 9.488281 "/>
<path style=" stroke:none;fill-rule:nonzero;fill:rgb(92.156863%,21.568628%,45.882353%);fill-opacity:1;" d="M 20.605469 11.375 C 19.695312 11.0625 18.761719 10.792969 17.789062 10.632812 C 16.816406 10.484375 15.800781 10.457031 14.808594 10.601562 C 13.8125 10.738281 12.855469 11.042969 11.960938 11.433594 C 11.117188 11.78125 9.988281 12.460938 9.988281 12.460938 L 9.347656 11.375 C 8.628906 12.570312 8.054688 13.761719 7.5 14.953125 C 8.808594 14.835938 10.117188 14.746094 11.355469 14.773438 L 10.714844 13.691406 C 10.714844 13.691406 11.785156 13.050781 12.535156 12.742188 C 13.339844 12.390625 14.164062 12.132812 15.007812 12.015625 C 15.851562 11.894531 16.710938 11.914062 17.570312 12.042969 C 18.425781 12.1875 19.28125 12.429688 20.128906 12.71875 Z M 20.605469 11.375 "/>
<path style=" stroke:none;fill-rule:nonzero;fill:rgb(27.450982%,54.901963%,28.627452%);fill-opacity:1;" d="M 8.292969 16.855469 C 8.46875 17.917969 8.84375 18.949219 9.503906 19.847656 C 9.835938 20.289062 10.242188 20.707031 10.75 21.019531 C 11.253906 21.335938 11.875 21.539062 12.503906 21.53125 C 13.125 21.523438 13.730469 21.359375 14.269531 21.003906 C 14.804688 20.648438 15.15625 20.171875 15.445312 19.730469 C 15.734375 19.277344 15.957031 18.828125 16.179688 18.378906 L 16.511719 17.671875 L 17.65625 18.195312 C 17.546875 16.847656 17.386719 15.5625 17.25 14.25 C 16.1875 15.019531 15.125 15.824219 14.070312 16.550781 L 15.214844 17.074219 L 14.894531 17.753906 C 14.6875 18.175781 14.480469 18.59375 14.242188 18.957031 C 13.777344 19.722656 13.238281 20.101562 12.496094 20.101562 C 11.8125 20.117188 11.140625 19.664062 10.652344 18.996094 C 10.15625 18.332031 9.84375 17.488281 9.707031 16.644531 Z M 8.292969 16.855469 "/>
<path style=" stroke:none;fill-rule:nonzero;fill:rgb(11.764706%,41.568628%,65.098041%);fill-opacity:1;" d="M 22.605469 10.078125 C 23.0625 10.707031 23.507812 11.339844 23.886719 11.988281 C 24.261719 12.632812 24.582031 13.304688 24.6875 13.9375 C 24.71875 14.097656 24.730469 14.253906 24.726562 14.402344 C 24.726562 14.523438 24.710938 14.652344 24.683594 14.773438 C 24.628906 15.019531 24.5 15.257812 24.289062 15.394531 C 24.183594 15.46875 24.066406 15.515625 23.945312 15.554688 C 23.882812 15.574219 23.824219 15.582031 23.769531 15.597656 C 23.695312 15.621094 23.601562 15.628906 23.519531 15.644531 C 23.0625 15.710938 23.054688 15.703125 22.890625 15.722656 L 22.773438 14.46875 C 21.785156 15.210938 20.570312 15.941406 19.558594 16.761719 C 20.800781 17.242188 21.863281 17.84375 23.144531 18.398438 L 23.027344 17.144531 C 23.207031 17.125 23.199219 17.132812 23.746094 17.054688 C 23.859375 17.035156 23.960938 17.023438 24.078125 16.992188 C 24.21875 16.957031 24.355469 16.929688 24.476562 16.882812 C 24.734375 16.796875 24.980469 16.6875 25.195312 16.53125 C 25.640625 16.226562 25.917969 15.738281 26.050781 15.222656 C 26.113281 14.960938 26.15625 14.695312 26.15625 14.417969 C 26.160156 14.171875 26.140625 13.929688 26.097656 13.699219 C 25.933594 12.769531 25.535156 11.992188 25.121094 11.269531 C 24.699219 10.550781 24.230469 9.882812 23.757812 9.234375 Z M 22.605469 10.078125 "/>
</g>
</svg>
