<?xml version="1.0" encoding="UTF-8"?>
<svg xmlns="http://www.w3.org/2000/svg" xmlns:xlink="http://www.w3.org/1999/xlink" width="36pt" height="36pt" viewBox="0 0 36 36" version="1.1">
<g id="surface46177">
<path style=" stroke:none;fill-rule:nonzero;fill:rgb(100%,100%,100%);fill-opacity:1;" d="M 20.25 3.75 C 20.25 3.75 18 6.074219 18 10.5 "/>
<path style=" stroke:none;fill-rule:nonzero;fill:rgb(47.450981%,33.333334%,28.235295%);fill-opacity:1;" d="M 18.75 10.5 L 17.25 10.5 C 17.25 5.773438 19.648438 3.300781 19.726562 3.226562 L 20.773438 4.273438 L 20.25 3.75 L 20.773438 4.273438 C 20.773438 4.273438 18.75 6.449219 18.75 10.5 Z M 18.75 10.5 "/>
<path style=" stroke:none;fill-rule:nonzero;fill:rgb(29.803923%,68.627453%,31.37255%);fill-opacity:1;" d="M 18 10.5 C 18 10.5 17.023438 1.125 7.5 4.5 C 8.550781 14.25 18 10.5 18 10.5 Z M 18 10.5 "/>
<path style=" stroke:none;fill-rule:nonzero;fill:rgb(82.745099%,18.431373%,18.431373%);fill-opacity:1;" d="M 4.726562 19.425781 C 3.300781 11.925781 8.925781 4.351562 18 10.5 C 27.074219 4.351562 32.699219 11.851562 31.273438 19.425781 C 29.925781 27 22.199219 34.125 18 29.023438 C 13.800781 34.125 6.074219 27 4.726562 19.425781 Z M 4.726562 19.425781 "/>
<path style=" stroke:none;fill-rule:nonzero;fill:rgb(100%,95.294118%,87.843138%);fill-opacity:1;" d="M 24.300781 9.75 C 22.648438 9.75 20.851562 10.425781 18.824219 11.773438 L 18 12.375 L 18 26.773438 L 19.125 28.125 C 19.800781 28.875 20.476562 29.25 21.375 29.25 C 24.375 29.25 28.800781 24.75 29.773438 19.199219 C 30.300781 16.351562 29.699219 13.425781 28.199219 11.625 C 27.226562 10.425781 25.875 9.75 24.300781 9.75 Z M 24.300781 9.75 "/>
<path style=" stroke:none;fill-rule:nonzero;fill:rgb(36.470589%,25.098041%,21.568628%);fill-opacity:1;" d="M 23.625 19.648438 C 23.625 20.476562 22.949219 21.148438 22.125 21.148438 C 21.300781 21.148438 20.625 20.476562 20.625 19.648438 C 20.625 18.824219 22.125 17.101562 22.125 17.101562 C 22.125 17.101562 23.625 18.824219 23.625 19.648438 Z M 23.625 19.648438 "/>
<path style=" stroke:none;fill-rule:nonzero;fill:rgb(95.686275%,26.274511%,21.176471%);fill-opacity:1;" d="M 18 10.5 C 8.925781 4.351562 3.300781 11.925781 4.726562 19.425781 C 6.074219 27 13.800781 34.125 18 29.023438 Z M 18 10.5 "/>
</g>
</svg>
