<?xml version="1.0" encoding="UTF-8"?>
<svg xmlns="http://www.w3.org/2000/svg" xmlns:xlink="http://www.w3.org/1999/xlink" width="36pt" height="36pt" viewBox="0 0 36 36" version="1.1">
<g id="surface30120">
<path style=" stroke:none;fill-rule:nonzero;fill:rgb(11.764706%,53.333336%,89.803922%);fill-opacity:1;" d="M 33 18.375 C 33 17.054688 32.234375 15.929688 31.132812 15.375 C 31.359375 14.917969 31.5 14.414062 31.5 13.875 C 31.5 12.066406 30.074219 10.605469 28.289062 10.515625 C 28.589844 9.683594 28.636719 8.722656 27.984375 7.65625 C 27.699219 7.191406 27.308594 6.800781 26.84375 6.515625 C 25.777344 5.863281 24.816406 5.910156 23.984375 6.210938 C 23.894531 4.425781 22.433594 3 20.625 3 C 19.980469 3 19.378906 3.1875 18.871094 3.503906 C 18.832031 3.523438 18.789062 3.546875 18.75 3.5625 C 18.515625 3.691406 18.253906 3.75 18 3.75 C 17.746094 3.75 17.484375 3.691406 17.25 3.5625 C 17.210938 3.546875 17.167969 3.523438 17.128906 3.503906 C 16.621094 3.1875 16.019531 3 15.375 3 C 13.566406 3 12.105469 4.425781 12.015625 6.210938 C 11.183594 5.910156 10.222656 5.863281 9.15625 6.515625 C 8.691406 6.800781 8.300781 7.191406 8.015625 7.65625 C 7.363281 8.722656 7.410156 9.683594 7.710938 10.515625 C 5.925781 10.605469 4.5 12.066406 4.5 13.875 C 4.5 14.414062 4.640625 14.917969 4.867188 15.375 C 3.765625 15.929688 3 17.054688 3 18.375 C 3 19.453125 3.515625 20.40625 4.304688 21.023438 C 3.960938 21.554688 3.75 22.191406 3.75 22.875 C 3.75 24.097656 4.402344 25.15625 5.378906 25.746094 C 5.300781 26.03125 5.25 26.316406 5.25 26.625 C 5.25 28.492188 6.757812 30 8.625 30 C 8.871094 30 9.113281 29.96875 9.34375 29.917969 C 10.058594 31.726562 11.820312 33 13.875 33 C 15.066406 33 16.15625 32.574219 17.003906 31.859375 C 17.078125 31.792969 17.160156 31.738281 17.25 31.695312 C 17.484375 31.558594 17.738281 31.5 18 31.5 C 18.261719 31.5 18.515625 31.558594 18.75 31.695312 C 18.839844 31.738281 18.921875 31.792969 18.996094 31.859375 C 19.84375 32.574219 20.933594 33 22.125 33 C 24.179688 33 25.941406 31.726562 26.65625 29.917969 C 26.886719 29.96875 27.128906 30 27.375 30 C 29.242188 30 30.75 28.492188 30.75 26.625 C 30.75 26.316406 30.699219 26.03125 30.621094 25.746094 C 31.597656 25.15625 32.25 24.097656 32.25 22.875 C 32.25 22.191406 32.039062 21.554688 31.695312 21.023438 C 32.484375 20.40625 33 19.453125 33 18.375 Z M 33 18.375 "/>
<path style=" stroke:none;fill-rule:nonzero;fill:rgb(50.588238%,83.137256%,98.039216%);fill-opacity:1;" d="M 12 9 L 24 9 L 24 10.5 L 12 10.5 Z M 15 27.75 L 13.5 27.75 L 13.5 24.75 L 7.5 24.75 L 7.5 20.25 L 9 20.25 L 9 23.25 L 15 23.25 Z M 15 27.75 "/>
<path style=" stroke:none;fill-rule:nonzero;fill:rgb(100%,93.333334%,34.509805%);fill-opacity:1;" d="M 12 8.25 C 11.171875 8.25 10.5 8.921875 10.5 9.75 C 10.5 10.578125 11.171875 11.25 12 11.25 C 12.828125 11.25 13.5 10.578125 13.5 9.75 C 13.5 8.921875 12.828125 8.25 12 8.25 Z M 8.25 18.75 C 7.421875 18.75 6.75 19.421875 6.75 20.25 C 6.75 21.078125 7.421875 21.75 8.25 21.75 C 9.078125 21.75 9.75 21.078125 9.75 20.25 C 9.75 19.421875 9.078125 18.75 8.25 18.75 Z M 14.25 26.25 C 13.421875 26.25 12.75 26.921875 12.75 27.75 C 12.75 28.578125 13.421875 29.25 14.25 29.25 C 15.078125 29.25 15.75 28.578125 15.75 27.75 C 15.75 26.921875 15.078125 26.25 14.25 26.25 Z M 14.25 26.25 "/>
<path style=" stroke:none;fill-rule:nonzero;fill:rgb(50.588238%,83.137256%,98.039216%);fill-opacity:1;" d="M 22.5 27.75 L 21 27.75 L 21 23.25 L 27 23.25 L 27 20.25 L 28.5 20.25 L 28.5 24.75 L 22.5 24.75 Z M 22.5 27.75 "/>
<path style=" stroke:none;fill-rule:nonzero;fill:rgb(100%,93.333334%,34.509805%);fill-opacity:1;" d="M 27.75 18.75 C 26.921875 18.75 26.25 19.421875 26.25 20.25 C 26.25 21.078125 26.921875 21.75 27.75 21.75 C 28.578125 21.75 29.25 21.078125 29.25 20.25 C 29.25 19.421875 28.578125 18.75 27.75 18.75 Z M 21.75 26.25 C 20.921875 26.25 20.25 26.921875 20.25 27.75 C 20.25 28.578125 20.921875 29.25 21.75 29.25 C 22.578125 29.25 23.25 28.578125 23.25 27.75 C 23.25 26.921875 22.578125 26.25 21.75 26.25 Z M 23.25 8.25 C 22.421875 8.25 21.75 8.921875 21.75 9.75 C 21.75 10.578125 22.421875 11.25 23.25 11.25 C 24.078125 11.25 24.75 10.578125 24.75 9.75 C 24.75 8.921875 24.078125 8.25 23.25 8.25 Z M 23.25 8.25 "/>
<path style=" stroke:none;fill-rule:nonzero;fill:rgb(9.803922%,46.27451%,82.352942%);fill-opacity:1;" d="M 18.75 3.5625 L 18.75 31.695312 C 18.515625 31.558594 18.261719 31.5 18 31.5 C 17.738281 31.5 17.484375 31.558594 17.25 31.695312 L 17.25 3.5625 C 17.484375 3.691406 17.746094 3.75 18 3.75 C 18.253906 3.75 18.515625 3.691406 18.75 3.5625 Z M 18.75 3.5625 "/>
<path style=" stroke:none;fill-rule:nonzero;fill:rgb(50.588238%,83.137256%,98.039216%);fill-opacity:1;" d="M 15 19.5 L 13.5 19.5 L 13.5 15.75 L 9.75 15.75 L 9.75 14.25 L 15 14.25 Z M 15 19.5 "/>
<path style=" stroke:none;fill-rule:nonzero;fill:rgb(100%,93.333334%,34.509805%);fill-opacity:1;" d="M 14.25 18 C 13.421875 18 12.75 18.671875 12.75 19.5 C 12.75 20.328125 13.421875 21 14.25 21 C 15.078125 21 15.75 20.328125 15.75 19.5 C 15.75 18.671875 15.078125 18 14.25 18 Z M 9.75 13.5 C 8.921875 13.5 8.25 14.171875 8.25 15 C 8.25 15.828125 8.921875 16.5 9.75 16.5 C 10.578125 16.5 11.25 15.828125 11.25 15 C 11.25 14.171875 10.578125 13.5 9.75 13.5 Z M 9.75 13.5 "/>
<path style=" stroke:none;fill-rule:nonzero;fill:rgb(50.588238%,83.137256%,98.039216%);fill-opacity:1;" d="M 22.5 19.5 L 21 19.5 L 21 14.25 L 26.25 14.25 L 26.25 15.75 L 22.5 15.75 Z M 22.5 19.5 "/>
<path style=" stroke:none;fill-rule:nonzero;fill:rgb(100%,93.333334%,34.509805%);fill-opacity:1;" d="M 21.75 18 C 20.921875 18 20.25 18.671875 20.25 19.5 C 20.25 20.328125 20.921875 21 21.75 21 C 22.578125 21 23.25 20.328125 23.25 19.5 C 23.25 18.671875 22.578125 18 21.75 18 Z M 26.25 13.5 C 25.421875 13.5 24.75 14.171875 24.75 15 C 24.75 15.828125 25.421875 16.5 26.25 16.5 C 27.078125 16.5 27.75 15.828125 27.75 15 C 27.75 14.171875 27.078125 13.5 26.25 13.5 Z M 26.25 13.5 "/>
</g>
</svg>
