<?xml version="1.0" encoding="UTF-8"?>
<svg xmlns="http://www.w3.org/2000/svg" xmlns:xlink="http://www.w3.org/1999/xlink" width="36pt" height="36pt" viewBox="0 0 36 36" version="1.1">
<g id="surface25951">
<path style=" stroke:none;fill-rule:nonzero;fill:rgb(67.843139%,7.843138%,34.117648%);fill-opacity:1;" d="M 27 3 C 27 9.976562 22.5 12.898438 17.398438 16.351562 C 12.074219 19.875 6 23.851562 6 33 L 9 33 C 9 25.425781 13.875 22.199219 19.050781 18.824219 C 24.148438 15.449219 30 11.550781 30 3 Z M 27 3 "/>
<path style=" stroke:none;fill-rule:nonzero;fill:rgb(67.843139%,7.843138%,34.117648%);fill-opacity:1;" d="M 28.5 30.75 L 8.25 30.75 C 7.800781 30.75 7.5 30.449219 7.5 30 C 7.5 29.550781 7.800781 29.25 8.25 29.25 L 28.5 29.25 C 28.949219 29.25 29.25 29.550781 29.25 30 C 29.25 30.449219 28.949219 30.75 28.5 30.75 Z M 27 27.75 L 9 27.75 C 8.550781 27.75 8.25 27.449219 8.25 27 C 8.25 26.550781 8.550781 26.25 9 26.25 L 27 26.25 C 27.449219 26.25 27.75 26.550781 27.75 27 C 27.75 27.449219 27.449219 27.75 27 27.75 Z M 25.5 24.75 L 10.5 24.75 C 10.050781 24.75 9.75 24.449219 9.75 24 C 9.75 23.550781 10.050781 23.25 10.5 23.25 L 25.5 23.25 C 25.949219 23.25 26.25 23.550781 26.25 24 C 26.25 24.449219 25.949219 24.75 25.5 24.75 Z M 25.5 24.75 "/>
<path style=" stroke:none;fill-rule:nonzero;fill:rgb(67.843139%,7.843138%,34.117648%);fill-opacity:1;" d="M 21.75 21.75 L 14.25 21.75 C 13.800781 21.75 13.5 21.449219 13.5 21 C 13.5 20.550781 13.800781 20.25 14.25 20.25 L 21.75 20.25 C 22.199219 20.25 22.5 20.550781 22.5 21 C 22.5 21.449219 22.199219 21.75 21.75 21.75 Z M 21.75 21.75 "/>
<path style=" stroke:none;fill-rule:nonzero;fill:rgb(91.37255%,11.764706%,38.82353%);fill-opacity:1;" d="M 27.75 6.75 L 7.5 6.75 C 7.050781 6.75 6.75 6.449219 6.75 6 C 6.75 5.550781 7.050781 5.25 7.5 5.25 L 27.75 5.25 C 28.199219 5.25 28.5 5.550781 28.5 6 C 28.5 6.449219 28.199219 6.75 27.75 6.75 Z M 27 9.75 L 9 9.75 C 8.550781 9.75 8.25 9.449219 8.25 9 C 8.25 8.550781 8.550781 8.25 9 8.25 L 27 8.25 C 27.449219 8.25 27.75 8.550781 27.75 9 C 27.75 9.449219 27.449219 9.75 27 9.75 Z M 25.5 12.75 L 10.5 12.75 C 10.050781 12.75 9.75 12.449219 9.75 12 C 9.75 11.550781 10.050781 11.25 10.5 11.25 L 25.5 11.25 C 25.949219 11.25 26.25 11.550781 26.25 12 C 26.25 12.449219 25.949219 12.75 25.5 12.75 Z M 21.75 15.75 L 14.25 15.75 C 13.800781 15.75 13.5 15.449219 13.5 15 C 13.5 14.550781 13.800781 14.25 14.25 14.25 L 21.75 14.25 C 22.199219 14.25 22.5 14.550781 22.5 15 C 22.5 15.449219 22.199219 15.75 21.75 15.75 Z M 21.75 15.75 "/>
<path style=" stroke:none;fill-rule:nonzero;fill:rgb(91.37255%,11.764706%,38.82353%);fill-opacity:1;" d="M 30 33 L 27 33 C 27 25.425781 22.125 22.199219 16.949219 18.824219 C 11.851562 15.449219 6 11.550781 6 3 L 9 3 C 9 9.976562 13.5 12.898438 18.601562 16.351562 C 23.925781 19.875 30 23.851562 30 33 Z M 30 33 "/>
</g>
</svg>
