<?xml version="1.0" encoding="UTF-8"?>
<svg xmlns="http://www.w3.org/2000/svg" xmlns:xlink="http://www.w3.org/1999/xlink" width="36pt" height="36pt" viewBox="0 0 36 36" version="1.1">
<defs>
<filter id="alpha" filterUnits="objectBoundingBox" x="0%" y="0%" width="100%" height="100%">
  <feColorMatrix type="matrix" in="SourceGraphic" values="0 0 0 0 1 0 0 0 0 1 0 0 0 0 1 0 0 0 1 0"/>
</filter>
<mask id="mask0">
  <g filter="url(#alpha)">
<rect x="0" y="0" width="36" height="36" style="fill:rgb(0%,0%,0%);fill-opacity:0.79;stroke:none;"/>
  </g>
</mask>
<clipPath id="clip1">
  <rect x="0" y="0" width="36" height="36"/>
</clipPath>
<g id="surface43612" clip-path="url(#clip1)">
<path style=" stroke:none;fill-rule:nonzero;fill:rgb(24.705882%,31.764707%,70.980394%);fill-opacity:1;" d="M 16.5 12 C 16.5 13.242188 15.492188 14.25 14.25 14.25 C 13.007812 14.25 12 13.242188 12 12 C 12 10.757812 13.007812 9.75 14.25 9.75 C 15.492188 9.75 16.5 10.757812 16.5 12 Z M 16.5 12 "/>
</g>
<mask id="mask1">
  <g filter="url(#alpha)">
<rect x="0" y="0" width="36" height="36" style="fill:rgb(0%,0%,0%);fill-opacity:0.79;stroke:none;"/>
  </g>
</mask>
<clipPath id="clip2">
  <rect x="0" y="0" width="36" height="36"/>
</clipPath>
<g id="surface43616" clip-path="url(#clip2)">
<path style=" stroke:none;fill-rule:nonzero;fill:rgb(24.705882%,31.764707%,70.980394%);fill-opacity:1;" d="M 24 18.75 C 24 19.992188 22.992188 21 21.75 21 C 20.507812 21 19.5 19.992188 19.5 18.75 C 19.5 17.507812 20.507812 16.5 21.75 16.5 C 22.992188 16.5 24 17.507812 24 18.75 Z M 24 18.75 "/>
</g>
<mask id="mask2">
  <g filter="url(#alpha)">
<rect x="0" y="0" width="36" height="36" style="fill:rgb(0%,0%,0%);fill-opacity:0.79;stroke:none;"/>
  </g>
</mask>
<clipPath id="clip3">
  <rect x="0" y="0" width="36" height="36"/>
</clipPath>
<g id="surface43628" clip-path="url(#clip3)">
<path style=" stroke:none;fill-rule:nonzero;fill:rgb(24.705882%,31.764707%,70.980394%);fill-opacity:1;" d="M 16.5 23.25 C 16.5 24.492188 15.492188 25.5 14.25 25.5 C 13.007812 25.5 12 24.492188 12 23.25 C 12 22.007812 13.007812 21 14.25 21 C 15.492188 21 16.5 22.007812 16.5 23.25 Z M 16.5 23.25 "/>
</g>
</defs>
<g id="surface43604">
<path style="fill-rule:nonzero;fill:rgb(97.254902%,78.823531%,87.843138%);fill-opacity:1;stroke-width:2.004;stroke-linecap:round;stroke-linejoin:miter;stroke:rgb(93.725491%,51.764709%,67.058825%);stroke-opacity:1;stroke-miterlimit:10;" d="M 20.130208 6 L 13.760417 6 C 12.484375 6 11.302083 6.677083 10.65625 7.78125 L 7.5 13.192708 C 6.848958 14.307292 6.848958 15.692708 7.5 16.807292 L 10.65625 22.21875 C 11.302083 23.322917 12.484375 24 13.760417 24 L 20.130208 24 C 21.411458 24 22.588542 23.322917 23.234375 22.21875 L 26.390625 16.807292 C 27.041667 15.692708 27.041667 14.307292 26.390625 13.192708 L 23.234375 7.78125 C 22.588542 6.677083 21.411458 6 20.130208 6 Z M 20.130208 6 " transform="matrix(0.75,0,0,0.75,0,0)"/>
<path style="fill-rule:nonzero;fill:rgb(97.254902%,78.823531%,87.843138%);fill-opacity:1;stroke-width:2.004;stroke-linecap:round;stroke-linejoin:miter;stroke:rgb(93.725491%,51.764709%,67.058825%);stroke-opacity:1;stroke-miterlimit:10;" d="M 35.427083 14.994792 L 29.473958 14.994792 C 28.203125 14.994792 27.026042 15.682292 26.40625 16.796875 L 23.338542 22.28125 C 22.739583 23.348958 22.739583 24.651042 23.338542 25.71875 L 26.40625 31.203125 C 27.026042 32.3125 28.203125 33 29.473958 33 L 35.427083 33 C 36.703125 33 37.875 32.3125 38.5 31.203125 L 41.567708 25.71875 C 42.166667 24.651042 42.166667 23.348958 41.567708 22.28125 L 38.5 16.796875 C 37.875 15.682292 36.703125 14.994792 35.427083 14.994792 Z M 35.427083 14.994792 " transform="matrix(0.75,0,0,0.75,0,0)"/>
<path style="fill-rule:nonzero;fill:rgb(97.254902%,78.823531%,87.843138%);fill-opacity:1;stroke-width:2.027;stroke-linecap:round;stroke-linejoin:miter;stroke:rgb(93.725491%,51.764709%,67.058825%);stroke-opacity:1;stroke-miterlimit:10;" d="M 20.171875 24 L 13.770833 24 C 12.489583 24 11.3125 24.677083 10.666667 25.78125 L 7.505208 31.182292 C 6.848958 32.307292 6.848958 33.692708 7.505208 34.8125 L 10.666667 40.21875 C 11.3125 41.322917 12.489583 42 13.770833 42 L 20.171875 42 C 21.447917 42 22.630208 41.322917 23.276042 40.21875 L 26.4375 34.817708 C 27.09375 33.692708 27.09375 32.307292 26.4375 31.1875 L 23.276042 25.78125 C 22.630208 24.677083 21.447917 24 20.171875 24 Z M 20.171875 24 " transform="matrix(0.75,0,0,0.75,0,0)"/>
<use xlink:href="#surface43612" mask="url(#mask0)"/>
<use xlink:href="#surface43616" mask="url(#mask1)"/>
<path style=" stroke:none;fill-rule:nonzero;fill:rgb(92.54902%,25.098041%,47.843137%);fill-opacity:1;" d="M 10.5 11.25 C 10.5 12.078125 9.828125 12.75 9 12.75 C 8.171875 12.75 7.5 12.078125 7.5 11.25 C 7.5 10.421875 8.171875 9.75 9 9.75 C 9.828125 9.75 10.5 10.421875 10.5 11.25 Z M 10.5 11.25 "/>
<path style=" stroke:none;fill-rule:nonzero;fill:rgb(97.647059%,65.882355%,14.509805%);fill-opacity:1;" d="M 11.25 15 C 11.25 15.414062 10.914062 15.75 10.5 15.75 C 10.085938 15.75 9.75 15.414062 9.75 15 C 9.75 14.585938 10.085938 14.25 10.5 14.25 C 10.914062 14.25 11.25 14.585938 11.25 15 Z M 11.25 15 "/>
<path style=" stroke:none;fill-rule:nonzero;fill:rgb(97.647059%,65.882355%,14.509805%);fill-opacity:1;" d="M 12 7.5 C 12 7.914062 11.664062 8.25 11.25 8.25 C 10.835938 8.25 10.5 7.914062 10.5 7.5 C 10.5 7.085938 10.835938 6.75 11.25 6.75 C 11.664062 6.75 12 7.085938 12 7.5 Z M 12 7.5 "/>
<path style=" stroke:none;fill-rule:nonzero;fill:rgb(97.647059%,65.882355%,14.509805%);fill-opacity:1;" d="M 15 7.5 C 15 7.914062 14.664062 8.25 14.25 8.25 C 13.835938 8.25 13.5 7.914062 13.5 7.5 C 13.5 7.085938 13.835938 6.75 14.25 6.75 C 14.664062 6.75 15 7.085938 15 7.5 Z M 15 7.5 "/>
<path style=" stroke:none;fill-rule:nonzero;fill:rgb(92.54902%,25.098041%,47.843137%);fill-opacity:1;" d="M 28.5 16.5 C 28.5 17.328125 27.828125 18 27 18 C 26.171875 18 25.5 17.328125 25.5 16.5 C 25.5 15.671875 26.171875 15 27 15 C 27.828125 15 28.5 15.671875 28.5 16.5 Z M 28.5 16.5 "/>
<path style=" stroke:none;fill-rule:nonzero;fill:rgb(97.647059%,65.882355%,14.509805%);fill-opacity:1;" d="M 25.5 21.75 C 25.5 22.164062 25.164062 22.5 24.75 22.5 C 24.335938 22.5 24 22.164062 24 21.75 C 24 21.335938 24.335938 21 24.75 21 C 25.164062 21 25.5 21.335938 25.5 21.75 Z M 25.5 21.75 "/>
<path style=" stroke:none;fill-rule:nonzero;fill:rgb(97.647059%,65.882355%,14.509805%);fill-opacity:1;" d="M 24 14.25 C 24 14.664062 23.664062 15 23.25 15 C 22.835938 15 22.5 14.664062 22.5 14.25 C 22.5 13.835938 22.835938 13.5 23.25 13.5 C 23.664062 13.5 24 13.835938 24 14.25 Z M 24 14.25 "/>
<path style=" stroke:none;fill-rule:nonzero;fill:rgb(97.647059%,65.882355%,14.509805%);fill-opacity:1;" d="M 27.75 20.25 C 27.75 20.664062 27.414062 21 27 21 C 26.585938 21 26.25 20.664062 26.25 20.25 C 26.25 19.835938 26.585938 19.5 27 19.5 C 27.414062 19.5 27.75 19.835938 27.75 20.25 Z M 27.75 20.25 "/>
<use xlink:href="#surface43628" mask="url(#mask2)"/>
<path style=" stroke:none;fill-rule:nonzero;fill:rgb(92.54902%,25.098041%,47.843137%);fill-opacity:1;" d="M 12 27 C 12 27.828125 11.328125 28.5 10.5 28.5 C 9.671875 28.5 9 27.828125 9 27 C 9 26.171875 9.671875 25.5 10.5 25.5 C 11.328125 25.5 12 26.171875 12 27 Z M 12 27 "/>
<path style=" stroke:none;fill-rule:nonzero;fill:rgb(97.647059%,65.882355%,14.509805%);fill-opacity:1;" d="M 10.5 22.875 C 10.5 23.496094 9.996094 24 9.375 24 C 8.753906 24 8.25 23.496094 8.25 22.875 C 8.25 22.253906 8.753906 21.75 9.375 21.75 C 9.996094 21.75 10.5 22.253906 10.5 22.875 Z M 10.5 22.875 "/>
<path style=" stroke:none;fill-rule:nonzero;fill:rgb(97.647059%,65.882355%,14.509805%);fill-opacity:1;" d="M 15.75 28.5 C 15.75 28.914062 15.414062 29.25 15 29.25 C 14.585938 29.25 14.25 28.914062 14.25 28.5 C 14.25 28.085938 14.585938 27.75 15 27.75 C 15.414062 27.75 15.75 28.085938 15.75 28.5 Z M 15.75 28.5 "/>
<path style=" stroke:none;fill-rule:nonzero;fill:rgb(24.705882%,31.764707%,70.980394%);fill-opacity:1;" d="M 15 23.625 C 15 24.246094 14.496094 24.75 13.875 24.75 C 13.253906 24.75 12.75 24.246094 12.75 23.625 C 12.75 23.003906 13.253906 22.5 13.875 22.5 C 14.496094 22.5 15 23.003906 15 23.625 Z M 15 23.625 "/>
<path style=" stroke:none;fill-rule:nonzero;fill:rgb(24.705882%,31.764707%,70.980394%);fill-opacity:1;" d="M 15 11.625 C 15 12.246094 14.496094 12.75 13.875 12.75 C 13.253906 12.75 12.75 12.246094 12.75 11.625 C 12.75 11.003906 13.253906 10.5 13.875 10.5 C 14.496094 10.5 15 11.003906 15 11.625 Z M 15 11.625 "/>
<path style=" stroke:none;fill-rule:nonzero;fill:rgb(24.705882%,31.764707%,70.980394%);fill-opacity:1;" d="M 22.5 18.75 C 22.5 19.164062 22.164062 19.5 21.75 19.5 C 21.335938 19.5 21 19.164062 21 18.75 C 21 18.335938 21.335938 18 21.75 18 C 22.164062 18 22.5 18.335938 22.5 18.75 Z M 22.5 18.75 "/>
</g>
</svg>
