<?xml version="1.0" encoding="UTF-8"?>
<svg xmlns="http://www.w3.org/2000/svg" xmlns:xlink="http://www.w3.org/1999/xlink" width="36pt" height="36pt" viewBox="0 0 36 36" version="1.1">
<g id="surface19238">
<path style=" stroke:none;fill-rule:nonzero;fill:rgb(97.254902%,73.333335%,81.568629%);fill-opacity:1;" d="M 3.75 22.5 C 3.75 33 15 33 15 33 C 16.273438 33 17.25 32.023438 17.25 30.75 L 17.25 5.25 C 17.25 3.976562 16.5 3 15 3 C 12 3 3.75 9 3.75 22.5 Z M 32.25 22.5 C 32.25 33 21 33 21 33 C 19.726562 33 18.75 32.023438 18.75 30.75 L 18.75 5.25 C 18.75 3.976562 19.5 3 21 3 C 24 3 32.25 9 32.25 22.5 Z M 32.25 22.5 "/>
<path style=" stroke:none;fill-rule:nonzero;fill:rgb(100%,50.196081%,67.058825%);fill-opacity:1;" d="M 12.824219 31.351562 C 10.949219 31.351562 9.824219 30.824219 8.476562 29.851562 C 6.898438 28.726562 4.351562 26.476562 5.476562 24.601562 C 5.773438 24.226562 6.074219 24 6.523438 24 C 7.425781 23.925781 8.175781 24.75 8.699219 25.351562 C 8.851562 25.5 8.925781 25.574219 9 25.648438 C 9.148438 25.800781 9.300781 25.875 9.375 25.875 C 9.375 25.875 9.375 25.800781 9.449219 25.726562 C 9.449219 25.726562 9.300781 25.425781 9.226562 25.273438 C 9 24.75 8.625 24 9.074219 23.324219 C 9.300781 22.949219 9.75 22.726562 10.199219 22.648438 C 10.648438 22.574219 11.101562 22.726562 11.476562 23.023438 C 11.925781 23.476562 12.226562 24 12.449219 24.449219 C 12.675781 24.898438 12.824219 25.273438 13.125 25.5 C 13.351562 25.648438 13.800781 25.726562 14.175781 25.648438 C 14.25 25.648438 14.550781 25.574219 14.625 25.351562 C 14.851562 24.898438 14.773438 23.851562 14.398438 23.101562 C 14.25 22.800781 13.949219 22.351562 13.5 22.273438 C 12.824219 22.125 12.148438 22.125 11.398438 22.199219 C 11.101562 22.199219 10.800781 22.199219 10.5 22.199219 C 10.199219 22.199219 9.898438 22.273438 9.523438 22.273438 C 8.550781 22.351562 7.425781 22.5 6.449219 21.75 C 5.023438 20.699219 5.101562 19.199219 5.101562 18 C 5.101562 16.875 5.476562 15.898438 6.226562 15.375 C 6.824219 14.851562 7.574219 14.699219 8.476562 14.851562 C 9.824219 15.074219 10.425781 16.199219 10.875 17.101562 C 11.101562 17.550781 11.324219 18 11.625 18.226562 C 11.851562 18.449219 12.148438 18.601562 12.523438 18.523438 C 13.273438 18.449219 14.101562 18.148438 14.25 17.773438 C 14.25 17.699219 14.324219 17.625 14.175781 17.25 C 14.101562 17.101562 13.726562 16.949219 13.425781 16.875 C 12.75 16.648438 11.625 16.273438 11.699219 14.925781 C 11.699219 14.324219 12 13.949219 12.226562 13.800781 C 12.824219 13.351562 13.726562 13.574219 14.324219 13.800781 C 14.476562 13.875 14.550781 13.875 14.699219 13.875 C 14.851562 13.875 14.925781 13.875 15 13.875 C 15.074219 13.800781 15.074219 13.648438 15 13.351562 C 14.851562 13.050781 14.476562 12.824219 14.25 12.75 C 13.351562 12.449219 12.226562 12.601562 11.550781 13.199219 C 11.476562 13.273438 11.398438 13.351562 11.324219 13.425781 C 10.875 13.875 10.273438 14.476562 9.523438 14.324219 C 9.226562 14.25 8.773438 14.101562 8.398438 13.574219 C 7.949219 12.898438 7.648438 11.773438 7.726562 10.949219 C 7.800781 9.375 9.074219 7.726562 10.574219 7.273438 C 11.851562 6.898438 12.75 7.726562 13.351562 8.25 C 13.800781 8.699219 14.175781 9 14.625 9.074219 C 14.773438 9.074219 14.925781 9.074219 15 9.074219 C 14.925781 8.925781 14.699219 8.625 13.949219 8.101562 C 13.875 8.023438 13.800781 7.949219 13.648438 7.949219 C 13.199219 7.648438 12.148438 7.050781 12.75 5.773438 C 13.199219 4.800781 14.023438 4.800781 14.550781 4.800781 C 14.925781 4.800781 15.300781 5.101562 15.300781 5.550781 C 15.300781 6 15 6.300781 14.550781 6.300781 C 14.101562 6.300781 14.101562 6.300781 14.023438 6.449219 C 14.023438 6.449219 14.023438 6.523438 14.023438 6.523438 C 14.101562 6.601562 14.25 6.675781 14.398438 6.75 C 14.550781 6.824219 14.625 6.898438 14.773438 6.976562 C 15.375 7.351562 16.425781 8.101562 16.5 9.074219 C 16.574219 9.523438 16.425781 9.898438 16.125 10.199219 C 15.675781 10.726562 14.925781 10.726562 14.625 10.726562 C 13.648438 10.726562 12.898438 10.050781 12.375 9.523438 C 11.773438 8.925781 11.476562 8.699219 11.023438 8.851562 C 10.125 9.074219 9.300781 10.199219 9.226562 11.175781 C 9.226562 11.699219 9.375 12.523438 9.675781 12.898438 C 9.675781 12.898438 9.75 12.976562 9.75 12.976562 C 9.898438 12.898438 10.199219 12.601562 10.351562 12.449219 C 10.425781 12.375 10.574219 12.300781 10.648438 12.148438 C 11.699219 11.25 13.425781 10.949219 14.773438 11.476562 C 15.601562 11.773438 16.199219 12.300781 16.5 12.976562 C 16.800781 13.726562 16.726562 14.476562 16.273438 15 C 16.050781 15.300781 15.523438 15.675781 14.625 15.523438 C 14.476562 15.523438 14.324219 15.449219 14.101562 15.375 C 13.949219 15.300781 13.574219 15.226562 13.351562 15.226562 C 13.351562 15.375 13.5 15.449219 14.101562 15.675781 C 14.625 15.898438 15.300781 16.125 15.601562 16.726562 C 16.125 17.550781 15.976562 18.226562 15.75 18.675781 C 15.226562 19.648438 13.875 20.101562 12.824219 20.175781 C 12 20.25 11.324219 20.023438 10.800781 19.425781 C 10.351562 18.976562 10.050781 18.449219 9.75 17.851562 C 9.300781 16.949219 9 16.425781 8.476562 16.351562 C 8.023438 16.273438 7.726562 16.351562 7.425781 16.574219 C 7.050781 16.875 6.898438 17.398438 6.824219 18.074219 C 6.824219 19.273438 6.824219 20.023438 7.648438 20.625 C 8.175781 21 8.851562 20.925781 9.601562 20.851562 C 9.976562 20.773438 10.351562 20.773438 10.800781 20.773438 C 11.101562 20.773438 11.398438 20.773438 11.699219 20.773438 C 12.523438 20.773438 13.351562 20.699219 14.175781 20.925781 C 15 21.148438 15.601562 21.675781 16.050781 22.574219 C 16.574219 23.699219 16.726562 25.125 16.273438 26.101562 C 16.050781 26.625 15.523438 27.074219 14.851562 27.226562 C 14.023438 27.449219 13.050781 27.300781 12.449219 26.851562 C 11.925781 26.398438 11.625 25.800781 11.324219 25.273438 C 11.101562 24.898438 10.949219 24.523438 10.726562 24.300781 C 10.726562 24.300781 10.648438 24.300781 10.648438 24.300781 C 10.726562 24.449219 10.800781 24.675781 10.875 24.824219 C 11.101562 25.273438 11.324219 25.800781 11.175781 26.324219 C 10.949219 27.148438 10.425781 27.449219 10.050781 27.523438 C 9.449219 27.675781 8.851562 27.523438 8.324219 27 C 8.25 26.925781 8.101562 26.773438 7.875 26.550781 C 7.425781 26.175781 6.976562 25.726562 6.75 25.5 C 6.675781 26.023438 7.5 27.226562 9.375 28.574219 C 10.574219 29.476562 11.398438 29.851562 13.050781 29.773438 C 13.273438 29.773438 13.574219 29.625 13.726562 29.476562 C 13.800781 29.398438 13.800781 29.324219 13.800781 29.25 C 13.800781 29.175781 13.800781 29.175781 13.726562 29.101562 C 13.425781 28.875 12.675781 28.800781 12.226562 28.875 C 11.851562 28.949219 11.398438 28.648438 11.324219 28.273438 C 11.25 27.898438 11.550781 27.449219 11.925781 27.375 C 12.675781 27.226562 13.875 27.300781 14.625 27.824219 C 15 28.125 15.226562 28.5 15.300781 28.949219 C 15.375 29.476562 15.226562 29.925781 14.925781 30.300781 C 14.550781 30.75 13.800781 31.125 13.125 31.125 C 13.050781 31.351562 12.976562 31.351562 12.824219 31.351562 Z M 22.875 31.351562 C 22.800781 31.351562 22.648438 31.351562 22.574219 31.351562 C 21.898438 31.351562 21.226562 31.050781 20.773438 30.523438 C 20.476562 30.148438 20.324219 29.625 20.398438 29.175781 C 20.476562 28.726562 20.699219 28.273438 21.074219 28.050781 C 21.824219 27.523438 22.949219 27.449219 23.773438 27.601562 C 24.148438 27.675781 24.449219 28.050781 24.375 28.5 C 24.300781 28.875 23.925781 29.175781 23.476562 29.101562 C 22.949219 29.023438 22.273438 29.023438 21.976562 29.324219 C 21.898438 29.398438 21.898438 29.398438 21.898438 29.476562 C 21.898438 29.550781 21.898438 29.625 21.976562 29.699219 C 22.125 29.851562 22.425781 30 22.648438 30 C 24.300781 30.074219 25.125 29.625 26.324219 28.800781 C 28.050781 27.601562 29.101562 26.25 28.949219 25.726562 C 28.726562 25.875 28.273438 26.324219 28.125 26.550781 C 27.976562 26.773438 27.824219 26.925781 27.675781 27 C 27.148438 27.449219 26.476562 27.675781 25.949219 27.523438 C 25.648438 27.449219 25.125 27.148438 24.824219 26.324219 C 24.675781 25.800781 24.898438 25.273438 25.125 24.824219 C 25.199219 24.675781 25.273438 24.449219 25.351562 24.375 C 25.351562 24.375 25.273438 24.375 25.273438 24.375 C 25.050781 24.601562 24.824219 24.976562 24.675781 25.351562 C 24.449219 25.875 24.148438 26.476562 23.550781 26.925781 C 22.949219 27.375 22.050781 27.523438 21.148438 27.375 C 20.476562 27.226562 19.949219 26.773438 19.726562 26.25 C 19.351562 25.273438 19.425781 23.851562 19.949219 22.726562 C 20.398438 21.824219 21 21.300781 21.824219 21.074219 C 22.648438 20.851562 23.550781 20.925781 24.300781 20.925781 C 24.601562 20.925781 24.898438 20.925781 25.199219 20.925781 C 25.574219 20.925781 25.949219 21 26.324219 21 C 27.148438 21.074219 27.824219 21.148438 28.273438 20.773438 C 29.023438 20.175781 29.101562 19.425781 29.101562 18.226562 C 29.101562 17.550781 28.875 17.023438 28.574219 16.726562 C 28.351562 16.5 27.976562 16.425781 27.523438 16.5 C 27 16.574219 26.699219 17.101562 26.25 18 C 25.949219 18.523438 25.648438 19.125 25.199219 19.574219 C 24.601562 20.101562 23.925781 20.398438 23.175781 20.324219 C 22.125 20.25 20.773438 19.800781 20.25 18.824219 C 20.023438 18.375 19.875 17.773438 20.398438 16.875 C 20.773438 16.273438 21.375 16.050781 21.898438 15.824219 C 22.5 15.601562 22.648438 15.523438 22.648438 15.375 C 22.425781 15.375 22.050781 15.523438 21.898438 15.523438 C 21.675781 15.601562 21.523438 15.675781 21.375 15.675781 C 20.476562 15.824219 19.949219 15.375 19.726562 15.148438 C 19.273438 14.625 19.199219 13.875 19.5 13.125 C 19.726562 12.449219 20.324219 11.925781 21.226562 11.625 C 22.648438 11.101562 24.375 11.398438 25.351562 12.300781 C 25.425781 12.375 25.5 12.449219 25.648438 12.601562 C 25.800781 12.75 26.101562 13.050781 26.25 13.125 C 26.25 13.125 26.25 13.050781 26.324219 13.050781 C 26.550781 12.675781 26.773438 11.773438 26.773438 11.324219 C 26.699219 10.351562 25.875 9.226562 24.976562 9 C 24.523438 8.851562 24.226562 9.074219 23.625 9.675781 C 23.023438 10.199219 22.351562 10.800781 21.375 10.875 C 21 10.875 20.324219 10.800781 19.875 10.351562 C 19.574219 10.050781 19.5 9.675781 19.5 9.226562 C 19.574219 8.25 20.625 7.5 21.226562 7.125 C 21.300781 7.050781 21.449219 6.976562 21.601562 6.898438 C 21.75 6.824219 21.898438 6.75 21.976562 6.675781 C 21.976562 6.675781 21.976562 6.675781 21.976562 6.601562 C 21.75 6.226562 21.75 6.226562 21.300781 6.148438 C 20.851562 6.148438 20.550781 5.773438 20.550781 5.398438 C 20.550781 4.949219 20.925781 4.648438 21.300781 4.648438 C 21.824219 4.648438 22.648438 4.726562 23.101562 5.625 C 23.699219 6.898438 22.648438 7.574219 22.199219 7.800781 C 22.125 7.875 22.050781 7.875 21.898438 7.949219 C 21.074219 8.476562 20.925781 8.773438 20.851562 8.925781 C 20.925781 8.925781 21 9 21.226562 9 C 21.675781 9 22.050781 8.625 22.5 8.175781 C 23.175781 7.574219 24 6.824219 25.273438 7.199219 C 26.773438 7.648438 28.050781 9.300781 28.125 10.875 C 28.199219 11.699219 27.898438 12.824219 27.449219 13.5 C 27.074219 14.101562 26.625 14.25 26.324219 14.25 C 25.574219 14.324219 24.976562 13.800781 24.523438 13.351562 C 24.449219 13.273438 24.375 13.199219 24.300781 13.125 C 23.699219 12.601562 22.5 12.375 21.601562 12.675781 C 21.375 12.75 20.925781 12.976562 20.851562 13.273438 C 20.773438 13.574219 20.773438 13.800781 20.851562 13.800781 C 20.851562 13.800781 21 13.875 21.148438 13.800781 C 21.226562 13.800781 21.375 13.726562 21.523438 13.726562 C 22.125 13.574219 23.023438 13.273438 23.625 13.726562 C 23.851562 13.875 24.148438 14.25 24.148438 14.851562 C 24.148438 16.199219 23.101562 16.574219 22.425781 16.800781 C 22.125 16.875 21.75 17.023438 21.675781 17.175781 C 21.449219 17.476562 21.523438 17.625 21.601562 17.699219 C 21.75 18 22.574219 18.375 23.324219 18.449219 C 23.699219 18.449219 23.925781 18.375 24.226562 18.148438 C 24.523438 17.925781 24.75 17.476562 24.976562 17.023438 C 25.425781 16.125 26.023438 14.925781 27.375 14.773438 C 28.273438 14.625 29.023438 14.851562 29.625 15.300781 C 30.300781 15.898438 30.75 16.875 30.75 17.925781 C 30.75 19.125 30.75 20.550781 29.398438 21.675781 C 28.425781 22.425781 27.300781 22.273438 26.324219 22.199219 C 25.949219 22.125 25.648438 22.125 25.351562 22.125 C 25.050781 22.125 24.75 22.125 24.449219 22.125 C 23.699219 22.125 23.023438 22.050781 22.351562 22.199219 C 21.898438 22.273438 21.601562 22.726562 21.449219 23.023438 C 21.074219 23.773438 21.074219 24.824219 21.226562 25.273438 C 21.300781 25.425781 21.523438 25.5 21.675781 25.574219 C 22.125 25.648438 22.574219 25.574219 22.726562 25.425781 C 23.023438 25.199219 23.175781 24.824219 23.398438 24.375 C 23.625 23.925781 23.925781 23.324219 24.375 22.949219 C 24.75 22.648438 25.199219 22.5 25.648438 22.574219 C 26.101562 22.648438 26.476562 22.875 26.773438 23.25 C 27.226562 23.925781 26.851562 24.601562 26.625 25.199219 C 26.550781 25.351562 26.398438 25.648438 26.398438 25.726562 C 26.398438 25.800781 26.476562 25.800781 26.476562 25.800781 C 26.476562 25.800781 26.625 25.726562 26.851562 25.574219 C 26.925781 25.5 27 25.425781 27.148438 25.273438 C 27.675781 24.675781 28.425781 23.851562 29.324219 23.925781 C 29.699219 24 30.074219 24.226562 30.300781 24.601562 C 31.425781 26.476562 28.875 28.648438 27.300781 29.851562 C 25.875 30.824219 24.75 31.351562 22.875 31.351562 Z M 21.824219 6.449219 Z M 21.824219 6.449219 "/>
</g>
</svg>
