<?xml version="1.0" encoding="UTF-8"?>
<svg xmlns="http://www.w3.org/2000/svg" xmlns:xlink="http://www.w3.org/1999/xlink" width="36pt" height="36pt" viewBox="0 0 36 36" version="1.1">
<g id="surface19013">
<path style=" stroke:none;fill-rule:nonzero;fill:rgb(8.235294%,39.607844%,75.294119%);fill-opacity:1;" d="M 28.128906 23.902344 L 23.050781 21 L 16.5 21 L 16.5 19.5 L 23.449219 19.5 L 28.871094 22.597656 Z M 28.128906 23.902344 "/>
<path style=" stroke:none;fill-rule:nonzero;fill:rgb(8.235294%,39.607844%,75.294119%);fill-opacity:1;" d="M 20.652344 12 L 16.5 12 L 16.5 10.5 L 19.847656 10.5 L 22.625 6.332031 L 23.875 7.167969 Z M 20.652344 12 "/>
<path style=" stroke:none;fill-rule:nonzero;fill:rgb(8.235294%,39.607844%,75.294119%);fill-opacity:1;" d="M 22.625 29.667969 L 19.847656 25.5 L 16.5 25.5 L 16.5 24 L 20.652344 24 L 23.875 28.832031 Z M 22.625 29.667969 "/>
<path style=" stroke:none;fill-rule:nonzero;fill:rgb(12.941177%,58.823532%,95.294118%);fill-opacity:1;" d="M 25.5 6.75 C 25.5 7.992188 24.492188 9 23.25 9 C 22.007812 9 21 7.992188 21 6.75 C 21 5.507812 22.007812 4.5 23.25 4.5 C 24.492188 4.5 25.5 5.507812 25.5 6.75 Z M 25.5 6.75 "/>
<path style=" stroke:none;fill-rule:nonzero;fill:rgb(12.941177%,58.823532%,95.294118%);fill-opacity:1;" d="M 30.75 23.25 C 30.75 24.492188 29.742188 25.5 28.5 25.5 C 27.257812 25.5 26.25 24.492188 26.25 23.25 C 26.25 22.007812 27.257812 21 28.5 21 C 29.742188 21 30.75 22.007812 30.75 23.25 Z M 30.75 23.25 "/>
<path style=" stroke:none;fill-rule:nonzero;fill:rgb(8.235294%,39.607844%,75.294119%);fill-opacity:1;" d="M 23.449219 16.5 L 16.5 16.5 L 16.5 15 L 23.050781 15 L 28.128906 12.097656 L 28.871094 13.402344 Z M 23.449219 16.5 "/>
<path style=" stroke:none;fill-rule:nonzero;fill:rgb(12.941177%,58.823532%,95.294118%);fill-opacity:1;" d="M 30.75 12.75 C 30.75 13.992188 29.742188 15 28.5 15 C 27.257812 15 26.25 13.992188 26.25 12.75 C 26.25 11.507812 27.257812 10.5 28.5 10.5 C 29.742188 10.5 30.75 11.507812 30.75 12.75 Z M 30.75 12.75 "/>
<path style=" stroke:none;fill-rule:nonzero;fill:rgb(12.941177%,58.823532%,95.294118%);fill-opacity:1;" d="M 25.5 29.25 C 25.5 30.492188 24.492188 31.5 23.25 31.5 C 22.007812 31.5 21 30.492188 21 29.25 C 21 28.007812 22.007812 27 23.25 27 C 24.492188 27 25.5 28.007812 25.5 29.25 Z M 25.5 29.25 "/>
<path style=" stroke:none;fill-rule:nonzero;fill:rgb(97.254902%,73.333335%,81.568629%);fill-opacity:1;" d="M 3.75 22.5 C 3.75 33 15 33 15 33 C 16.273438 33 17.25 32.023438 17.25 30.75 L 17.25 5.25 C 17.25 3.976562 16.5 3 15 3 C 12 3 3.75 9 3.75 22.5 Z M 3.75 22.5 "/>
<path style=" stroke:none;fill-rule:nonzero;fill:rgb(100%,50.196081%,67.058825%);fill-opacity:1;" d="M 12.824219 31.351562 C 10.949219 31.351562 9.824219 30.824219 8.476562 29.851562 C 6.898438 28.726562 4.351562 26.476562 5.476562 24.601562 C 5.773438 24.226562 6.074219 24 6.523438 24 C 7.425781 23.925781 8.175781 24.75 8.699219 25.351562 C 8.851562 25.5 8.925781 25.574219 9 25.648438 C 9.148438 25.800781 9.300781 25.875 9.375 25.875 C 9.375 25.875 9.375 25.800781 9.449219 25.726562 C 9.449219 25.726562 9.300781 25.425781 9.226562 25.273438 C 9 24.75 8.625 24 9.074219 23.324219 C 9.300781 22.949219 9.75 22.726562 10.199219 22.648438 C 10.648438 22.574219 11.101562 22.726562 11.476562 23.023438 C 11.925781 23.476562 12.226562 24 12.449219 24.449219 C 12.675781 24.898438 12.824219 25.273438 13.125 25.5 C 13.351562 25.648438 13.800781 25.726562 14.175781 25.648438 C 14.25 25.648438 14.550781 25.574219 14.625 25.351562 C 14.851562 24.898438 14.773438 23.851562 14.398438 23.101562 C 14.25 22.800781 13.949219 22.351562 13.5 22.273438 C 12.824219 22.125 12.148438 22.125 11.398438 22.199219 C 11.101562 22.199219 10.800781 22.199219 10.5 22.199219 C 10.199219 22.199219 9.898438 22.273438 9.523438 22.273438 C 8.550781 22.351562 7.425781 22.5 6.449219 21.75 C 5.023438 20.699219 5.101562 19.199219 5.101562 18 C 5.101562 16.875 5.476562 15.898438 6.226562 15.375 C 6.824219 14.851562 7.574219 14.699219 8.476562 14.851562 C 9.824219 15.074219 10.425781 16.199219 10.875 17.101562 C 11.101562 17.550781 11.324219 18 11.625 18.226562 C 11.851562 18.449219 12.148438 18.601562 12.523438 18.523438 C 13.273438 18.449219 14.101562 18.148438 14.25 17.773438 C 14.25 17.699219 14.324219 17.625 14.175781 17.25 C 14.101562 17.101562 13.726562 16.949219 13.425781 16.875 C 12.75 16.648438 11.625 16.273438 11.699219 14.925781 C 11.699219 14.324219 12 13.949219 12.226562 13.800781 C 12.824219 13.351562 13.726562 13.574219 14.324219 13.800781 C 14.476562 13.875 14.550781 13.875 14.699219 13.875 C 14.851562 13.875 14.925781 13.875 15 13.875 C 15.074219 13.800781 15.074219 13.648438 15 13.351562 C 14.851562 13.050781 14.476562 12.824219 14.25 12.75 C 13.351562 12.449219 12.226562 12.601562 11.550781 13.199219 C 11.476562 13.273438 11.398438 13.351562 11.324219 13.425781 C 10.875 13.875 10.273438 14.476562 9.523438 14.324219 C 9.226562 14.25 8.773438 14.101562 8.398438 13.574219 C 7.949219 12.898438 7.648438 11.773438 7.726562 10.949219 C 7.800781 9.375 9.074219 7.726562 10.574219 7.273438 C 11.851562 6.898438 12.75 7.726562 13.351562 8.25 C 13.800781 8.699219 14.175781 9 14.625 9.074219 C 14.773438 9.074219 14.925781 9.074219 15 9.074219 C 14.925781 8.925781 14.699219 8.625 13.949219 8.101562 C 13.875 8.023438 13.800781 7.949219 13.648438 7.949219 C 13.199219 7.648438 12.148438 7.050781 12.75 5.773438 C 13.199219 4.800781 14.023438 4.800781 14.550781 4.800781 C 14.925781 4.800781 15.300781 5.101562 15.300781 5.550781 C 15.300781 6 15 6.300781 14.550781 6.300781 C 14.101562 6.300781 14.101562 6.300781 14.023438 6.449219 L 14.023438 6.523438 C 14.101562 6.601562 14.25 6.675781 14.398438 6.75 C 14.550781 6.824219 14.625 6.898438 14.773438 6.976562 C 15.375 7.351562 16.425781 8.101562 16.5 9.074219 C 16.574219 9.523438 16.425781 9.898438 16.125 10.199219 C 15.675781 10.726562 14.925781 10.726562 14.625 10.726562 C 13.648438 10.726562 12.898438 10.050781 12.375 9.523438 C 11.773438 8.925781 11.476562 8.699219 11.023438 8.851562 C 10.125 9.074219 9.300781 10.199219 9.226562 11.175781 C 9.226562 11.699219 9.375 12.523438 9.675781 12.898438 L 9.75 12.976562 C 9.898438 12.898438 10.199219 12.601562 10.351562 12.449219 C 10.425781 12.375 10.574219 12.300781 10.648438 12.148438 C 11.699219 11.25 13.425781 10.949219 14.773438 11.476562 C 15.601562 11.773438 16.199219 12.300781 16.5 12.976562 C 16.800781 13.726562 16.726562 14.476562 16.273438 15 C 16.050781 15.300781 15.523438 15.675781 14.625 15.523438 C 14.476562 15.523438 14.324219 15.449219 14.101562 15.375 C 13.949219 15.300781 13.574219 15.226562 13.351562 15.226562 C 13.351562 15.375 13.5 15.449219 14.101562 15.675781 C 14.625 15.898438 15.300781 16.125 15.601562 16.726562 C 16.125 17.550781 15.976562 18.226562 15.75 18.675781 C 15.226562 19.648438 13.875 20.101562 12.824219 20.175781 C 12 20.25 11.324219 20.023438 10.800781 19.425781 C 10.351562 18.976562 10.050781 18.449219 9.75 17.851562 C 9.300781 16.949219 9 16.425781 8.476562 16.351562 C 8.023438 16.273438 7.726562 16.351562 7.425781 16.574219 C 7.050781 16.875 6.898438 17.398438 6.824219 18.074219 C 6.824219 19.273438 6.824219 20.023438 7.648438 20.625 C 8.175781 21 8.851562 20.925781 9.601562 20.851562 C 9.976562 20.773438 10.351562 20.773438 10.800781 20.773438 C 11.101562 20.773438 11.398438 20.773438 11.699219 20.773438 C 12.523438 20.773438 13.351562 20.699219 14.175781 20.925781 C 15 21.148438 15.601562 21.675781 16.050781 22.574219 C 16.574219 23.699219 16.726562 25.125 16.273438 26.101562 C 16.050781 26.625 15.523438 27.074219 14.851562 27.226562 C 14.023438 27.449219 13.050781 27.300781 12.449219 26.851562 C 11.925781 26.398438 11.625 25.800781 11.324219 25.273438 C 11.101562 24.898438 10.949219 24.523438 10.726562 24.300781 L 10.648438 24.300781 C 10.726562 24.449219 10.800781 24.675781 10.875 24.824219 C 11.101562 25.273438 11.324219 25.800781 11.175781 26.324219 C 10.949219 27.148438 10.425781 27.449219 10.050781 27.523438 C 9.449219 27.675781 8.851562 27.523438 8.324219 27 C 8.25 26.925781 8.101562 26.773438 7.875 26.550781 C 7.425781 26.175781 6.976562 25.726562 6.75 25.5 C 6.675781 26.023438 7.5 27.226562 9.375 28.574219 C 10.574219 29.476562 11.398438 29.851562 13.050781 29.773438 C 13.273438 29.773438 13.574219 29.625 13.726562 29.476562 C 13.800781 29.398438 13.800781 29.324219 13.800781 29.25 C 13.800781 29.175781 13.800781 29.175781 13.726562 29.101562 C 13.425781 28.875 12.675781 28.800781 12.226562 28.875 C 11.851562 28.949219 11.398438 28.648438 11.324219 28.273438 C 11.25 27.898438 11.550781 27.449219 11.925781 27.375 C 12.675781 27.226562 13.875 27.300781 14.625 27.824219 C 15 28.125 15.226562 28.5 15.300781 28.949219 C 15.375 29.476562 15.226562 29.925781 14.925781 30.300781 C 14.550781 30.75 13.800781 31.125 13.125 31.125 C 13.050781 31.351562 12.976562 31.351562 12.824219 31.351562 Z M 12.824219 31.351562 "/>
</g>
</svg>
