<?xml version="1.0" encoding="UTF-8"?>
<svg xmlns="http://www.w3.org/2000/svg" xmlns:xlink="http://www.w3.org/1999/xlink" width="36pt" height="36pt" viewBox="0 0 36 36" version="1.1">
<g id="surface19921">
<path style=" stroke:none;fill-rule:nonzero;fill:rgb(80.784315%,58.039218%,0.784314%);fill-opacity:1;" d="M 1.5 10.5 C 7.875 11.398438 10.5 5.25 12.75 5.25 C 15 5.25 15 7.5 15 7.5 C 15 7.5 15 9.75 18 9.75 C 18 9.75 17.476562 13.273438 14.175781 13.875 C 13.425781 14.023438 12.824219 13.574219 12.824219 13.574219 C 12.824219 13.574219 12.375 14.175781 11.625 14.175781 C 10.875 14.175781 10.5 13.648438 10.5 13.648438 C 10.5 13.648438 10.050781 14.324219 9.226562 14.25 C 8.398438 14.175781 8.25 13.5 8.25 13.5 C 8.25 13.5 7.875 14.023438 6.976562 13.875 C 6.074219 13.726562 6 12.976562 6 12.976562 C 6 12.976562 5.398438 13.425781 4.648438 13.125 C 3.898438 12.824219 3.75 12.074219 3.75 12.074219 C 3.75 12.074219 2.851562 12.449219 2.175781 11.851562 C 1.5 11.324219 1.5 10.5 1.5 10.5 Z M 34.5 10.5 C 28.125 11.398438 25.5 5.25 23.25 5.25 C 21 5.25 21 7.5 21 7.5 C 21 7.5 21 9.75 18 9.75 C 18 9.75 18.523438 13.273438 21.824219 13.875 C 22.574219 14.023438 23.175781 13.574219 23.175781 13.574219 C 23.175781 13.574219 23.625 14.175781 24.375 14.175781 C 25.125 14.175781 25.5 13.648438 25.5 13.648438 C 25.5 13.648438 25.949219 14.324219 26.773438 14.25 C 27.601562 14.175781 27.824219 13.5 27.824219 13.5 C 27.824219 13.5 28.199219 14.023438 29.101562 13.875 C 30 13.726562 30.074219 13.050781 30.074219 13.050781 C 30.074219 13.050781 30.675781 13.5 31.425781 13.199219 C 32.175781 12.898438 32.324219 12.148438 32.324219 12.148438 C 32.324219 12.148438 33.226562 12.523438 33.898438 11.925781 C 34.5 11.324219 34.5 10.5 34.5 10.5 Z M 34.5 10.5 "/>
<path style=" stroke:none;fill-rule:nonzero;fill:rgb(80.784315%,58.039218%,0.784314%);fill-opacity:1;" d="M 17.25 6 L 18.75 6 L 18.75 33.75 L 17.25 33.75 Z M 17.25 6 "/>
<path style=" stroke:none;fill-rule:nonzero;fill:rgb(100%,75.686276%,2.745098%);fill-opacity:1;" d="M 18.75 33.75 L 17.25 33.75 C 17.25 33.300781 17.023438 33.148438 16.648438 32.851562 C 16.273438 32.550781 15.75 32.175781 15.75 31.5 C 15.75 30.375 17.25 29.550781 17.699219 29.324219 L 17.773438 29.25 C 18.449219 29.023438 19.125 28.726562 19.425781 28.425781 C 19.125 28.199219 18.449219 27.824219 17.773438 27.601562 L 17.699219 27.523438 C 14.25 25.949219 14.25 25.050781 14.25 24.75 C 14.25 24.449219 14.25 23.550781 17.699219 21.824219 L 17.773438 21.75 C 19.949219 21 21.75 19.875 21.75 19.425781 C 21.75 19.125 21.074219 18.449219 17.699219 17.101562 C 13.726562 15.601562 11.25 14.476562 11.25 12.75 C 11.25 10.949219 14.101562 10.574219 14.925781 10.5 L 15.074219 12 C 13.949219 12.074219 12.824219 12.523438 12.75 12.75 C 12.75 13.574219 16.351562 15 18.300781 15.824219 C 22.050781 17.324219 23.25 18.226562 23.25 19.5 C 23.25 21.300781 19.800781 22.648438 18.300781 23.175781 C 17.25 23.699219 16.199219 24.375 15.824219 24.75 C 16.199219 25.125 17.25 25.800781 18.300781 26.324219 C 19.574219 26.773438 21 27.449219 21 28.5 C 21 29.550781 19.574219 30.300781 18.300781 30.675781 C 17.851562 30.898438 17.476562 31.199219 17.324219 31.425781 C 17.398438 31.5 17.476562 31.5 17.550781 31.574219 C 17.925781 31.949219 18.75 32.476562 18.75 33.75 Z M 15.75 24.601562 Z M 15.75 24.601562 "/>
<path style=" stroke:none;fill-rule:nonzero;fill:rgb(100%,75.686276%,2.745098%);fill-opacity:1;" d="M 18.75 33.75 L 17.25 33.75 C 17.25 32.476562 18.074219 31.949219 18.523438 31.574219 C 18.601562 31.5 18.675781 31.5 18.75 31.425781 C 18.601562 31.273438 18.148438 30.898438 17.773438 30.675781 C 16.425781 30.300781 15 29.550781 15 28.5 C 15 27.449219 16.425781 26.699219 17.699219 26.324219 C 18.75 25.800781 19.800781 25.125 20.175781 24.75 C 19.800781 24.375 18.75 23.699219 17.699219 23.175781 C 16.199219 22.648438 12.75 21.300781 12.75 19.5 C 12.75 18.226562 13.949219 17.324219 17.699219 15.824219 C 19.648438 15.074219 23.25 13.648438 23.25 12.75 C 23.175781 12.523438 22.050781 12.074219 20.925781 12 L 21.074219 10.5 C 21.976562 10.574219 24.75 10.949219 24.75 12.75 C 24.75 14.476562 22.273438 15.601562 18.300781 17.175781 C 14.925781 18.523438 14.25 19.199219 14.25 19.5 C 14.25 19.949219 16.050781 21.074219 18.226562 21.824219 L 18.300781 21.898438 C 21.75 23.550781 21.75 24.449219 21.75 24.75 C 21.75 25.050781 21.75 25.949219 18.300781 27.675781 L 18.226562 27.75 C 17.550781 27.976562 16.875 28.273438 16.574219 28.574219 C 16.875 28.800781 17.550781 29.175781 18.226562 29.398438 L 18.300781 29.476562 C 18.75 29.550781 20.25 30.375 20.25 31.5 C 20.25 32.175781 19.726562 32.550781 19.351562 32.851562 C 18.976562 33.148438 18.75 33.300781 18.75 33.75 Z M 20.25 24.601562 Z M 16.5 11.625 C 16.5 11.023438 15.824219 10.5 15 10.5 C 14.175781 10.5 13.5 11.023438 13.5 11.625 C 13.5 12.226562 14.175781 12.75 15 12.75 C 15.824219 12.75 16.5 12.226562 16.5 11.625 Z M 16.5 11.625 "/>
<path style=" stroke:none;fill-rule:nonzero;fill:rgb(100%,75.686276%,2.745098%);fill-opacity:1;" d="M 22.5 11.625 C 22.5 11.023438 21.824219 10.5 21 10.5 C 20.175781 10.5 19.5 11.023438 19.5 11.625 C 19.5 12.226562 20.175781 12.75 21 12.75 C 21.824219 12.75 22.5 12.226562 22.5 11.625 Z M 20.25 4.5 C 20.25 5.773438 19.273438 6.75 18 6.75 C 16.726562 6.75 15.75 5.773438 15.75 4.5 C 15.75 3.226562 16.726562 2.25 18 2.25 C 19.273438 2.25 20.25 3.226562 20.25 4.5 Z M 20.25 4.5 "/>
</g>
</svg>
