<?xml version="1.0" encoding="UTF-8"?>
<svg xmlns="http://www.w3.org/2000/svg" xmlns:xlink="http://www.w3.org/1999/xlink" width="36pt" height="36pt" viewBox="0 0 36 36" version="1.1">
<g id="surface42732">
<path style=" stroke:none;fill-rule:nonzero;fill:rgb(67.843139%,7.843138%,34.117648%);fill-opacity:1;" d="M 16.425781 30.75 C 16.199219 30.75 16.050781 30.675781 15.898438 30.523438 L 5.398438 20.023438 C 5.101562 19.726562 5.101562 19.273438 5.398438 18.976562 C 5.699219 18.675781 6.148438 18.675781 6.449219 18.976562 L 16.949219 29.476562 C 17.25 29.773438 17.25 30.226562 16.949219 30.523438 C 16.800781 30.675781 16.648438 30.75 16.425781 30.75 Z M 17.925781 28.5 C 17.699219 28.5 17.550781 28.425781 17.398438 28.273438 L 7.648438 18.523438 C 7.351562 18.226562 7.351562 17.773438 7.648438 17.476562 C 7.949219 17.175781 8.398438 17.175781 8.699219 17.476562 L 18.449219 27.226562 C 18.75 27.523438 18.75 27.976562 18.449219 28.273438 C 18.300781 28.425781 18.148438 28.5 17.925781 28.5 Z M 18.300781 25.125 C 18.074219 25.125 17.925781 25.050781 17.773438 24.898438 L 10.425781 17.550781 C 10.125 17.25 10.125 16.800781 10.425781 16.5 C 10.726562 16.199219 11.175781 16.199219 11.476562 16.5 L 18.824219 23.851562 C 19.125 24.148438 19.125 24.601562 18.824219 24.898438 C 18.675781 25.050781 18.449219 25.125 18.300781 25.125 Z M 18.300781 25.125 "/>
<path style=" stroke:none;fill-rule:nonzero;fill:rgb(67.843139%,7.843138%,34.117648%);fill-opacity:1;" d="M 16.425781 30.75 C 16.199219 30.75 16.050781 30.675781 15.898438 30.523438 L 5.398438 20.023438 C 5.101562 19.726562 5.101562 19.273438 5.398438 18.976562 C 5.699219 18.675781 6.148438 18.675781 6.449219 18.976562 L 16.949219 29.476562 C 17.25 29.773438 17.25 30.226562 16.949219 30.523438 C 16.800781 30.675781 16.648438 30.75 16.425781 30.75 Z M 17.925781 28.5 C 17.699219 28.5 17.550781 28.425781 17.398438 28.273438 L 7.648438 18.523438 C 7.351562 18.226562 7.351562 17.773438 7.648438 17.476562 C 7.949219 17.175781 8.398438 17.175781 8.699219 17.476562 L 18.449219 27.226562 C 18.75 27.523438 18.75 27.976562 18.449219 28.273438 C 18.300781 28.425781 18.148438 28.5 17.925781 28.5 Z M 18.300781 25.125 C 18.074219 25.125 17.925781 25.050781 17.773438 24.898438 L 10.425781 17.550781 C 10.125 17.25 10.125 16.800781 10.425781 16.5 C 10.726562 16.199219 11.175781 16.199219 11.476562 16.5 L 18.824219 23.851562 C 19.125 24.148438 19.125 24.601562 18.824219 24.898438 C 18.675781 25.050781 18.449219 25.125 18.300781 25.125 Z M 17.476562 20.699219 C 17.25 20.699219 17.101562 20.625 16.949219 20.476562 L 13.648438 17.175781 C 13.351562 16.875 13.351562 16.425781 13.648438 16.125 C 13.949219 15.824219 14.398438 15.824219 14.699219 16.125 L 18 19.425781 C 18.300781 19.726562 18.300781 20.175781 18 20.476562 C 17.851562 20.625 17.699219 20.699219 17.476562 20.699219 Z M 17.476562 20.699219 "/>
<path style=" stroke:none;fill-rule:nonzero;fill:rgb(67.843139%,7.843138%,34.117648%);fill-opacity:1;" d="M 5.101562 21.300781 L 3 19.351562 C 7.273438 15 12.675781 15.449219 17.101562 16.351562 C 17.550781 16.425781 17.925781 16.5 18.375 16.648438 C 22.726562 17.625 26.925781 18.449219 30.898438 14.476562 L 33 16.425781 C 27.824219 21.601562 22.273438 20.398438 17.773438 19.425781 C 17.398438 19.351562 16.949219 19.273438 16.574219 19.199219 C 11.625 18.148438 8.25 18.148438 5.101562 21.300781 Z M 5.101562 21.300781 "/>
<path style=" stroke:none;fill-rule:nonzero;fill:rgb(91.37255%,11.764706%,38.82353%);fill-opacity:1;" d="M 26.398438 17.175781 C 26.925781 17.023438 27.449219 16.875 27.976562 16.648438 L 18.449219 7.125 C 18.148438 6.824219 17.699219 6.824219 17.398438 7.125 C 17.101562 7.425781 17.101562 7.875 17.398438 8.175781 Z M 28.949219 15.976562 C 29.324219 15.75 29.773438 15.449219 30.148438 15.074219 L 19.949219 4.875 C 19.648438 4.574219 19.199219 4.574219 18.898438 4.875 C 18.601562 5.175781 18.601562 5.625 18.898438 5.925781 Z M 22.949219 17.398438 C 23.625 17.476562 24.375 17.476562 25.050781 17.398438 L 18.148438 10.5 C 17.851562 10.199219 17.398438 10.199219 17.101562 10.5 C 16.800781 10.800781 16.800781 11.25 17.101562 11.550781 Z M 17.851562 14.925781 C 17.550781 15.226562 17.550781 15.675781 17.851562 15.976562 L 18.523438 16.648438 C 19.425781 16.875 20.324219 17.023438 21.148438 17.175781 L 18.898438 14.925781 C 18.675781 14.625 18.148438 14.625 17.851562 14.925781 Z M 17.851562 14.925781 "/>
<path style=" stroke:none;fill-rule:nonzero;fill:rgb(91.37255%,11.764706%,38.82353%);fill-opacity:1;" d="M 16.425781 33 L 14.476562 30.898438 C 18.523438 26.851562 17.625 22.726562 16.648438 18.375 C 16.574219 17.925781 16.5 17.550781 16.351562 17.101562 C 15.449219 12.601562 14.851562 7.5 19.351562 3 L 21.300781 5.101562 C 18.148438 8.25 18.148438 11.699219 19.125 16.5 C 19.199219 16.875 19.273438 17.324219 19.351562 17.699219 C 20.398438 22.273438 21.375 28.5 16.425781 33 Z M 16.425781 33 "/>
</g>
</svg>
