<?xml version="1.0" encoding="UTF-8"?>
<svg xmlns="http://www.w3.org/2000/svg" xmlns:xlink="http://www.w3.org/1999/xlink" width="36pt" height="36pt" viewBox="0 0 36 36" version="1.1">
<g id="surface24538">
<path style=" stroke:none;fill-rule:nonzero;fill:rgb(27.058825%,35.294119%,39.215687%);fill-opacity:1;" d="M 14.25 9 L 14.25 6 L 21.75 6 L 21.75 9 L 23.25 9 L 23.25 6 C 23.25 5.171875 22.578125 4.5 21.75 4.5 L 14.25 4.5 C 13.421875 4.5 12.75 5.171875 12.75 6 L 12.75 9 Z M 14.25 9 "/>
<path style=" stroke:none;fill-rule:nonzero;fill:rgb(95.686275%,26.274511%,21.176471%);fill-opacity:1;" d="M 33 27.75 C 33 29.820312 31.320312 31.5 29.25 31.5 L 6.75 31.5 C 4.679688 31.5 3 29.820312 3 27.75 L 3 12.75 C 3 10.679688 4.679688 9 6.75 9 L 29.25 9 C 31.320312 9 33 10.679688 33 12.75 Z M 33 27.75 "/>
<path style=" stroke:none;fill-rule:nonzero;fill:rgb(100%,100%,100%);fill-opacity:1;" d="M 18 12.75 C 13.859375 12.75 10.5 16.109375 10.5 20.25 C 10.5 24.390625 13.859375 27.75 18 27.75 C 22.140625 27.75 25.5 24.390625 25.5 20.25 C 25.5 16.109375 22.140625 12.75 18 12.75 Z M 18 12.75 "/>
<path style=" stroke:none;fill-rule:nonzero;fill:rgb(95.686275%,26.274511%,21.176471%);fill-opacity:1;" d="M 16.5 15.75 L 19.5 15.75 L 19.5 24.75 L 16.5 24.75 Z M 16.5 15.75 "/>
<path style=" stroke:none;fill-rule:nonzero;fill:rgb(95.686275%,26.274511%,21.176471%);fill-opacity:1;" d="M 13.5 18.75 L 22.5 18.75 L 22.5 21.75 L 13.5 21.75 Z M 13.5 18.75 "/>
</g>
</svg>
