<?xml version="1.0" encoding="UTF-8"?>
<svg xmlns="http://www.w3.org/2000/svg" xmlns:xlink="http://www.w3.org/1999/xlink" width="36pt" height="36pt" viewBox="0 0 36 36" version="1.1">
<g id="surface29860">
<path style=" stroke:none;fill-rule:nonzero;fill:rgb(71.764708%,10.980392%,10.980392%);fill-opacity:1;" d="M 24.046875 9.75 C 19.523438 9.75 15.84375 12.609375 15.84375 16.125 C 15.84375 19.640625 19.523438 22.5 24.046875 22.5 C 28.570312 22.5 32.25 19.640625 32.25 16.125 C 32.25 12.609375 28.570312 9.75 24.046875 9.75 Z M 24.046875 9.75 "/>
<path style=" stroke:none;fill-rule:nonzero;fill:rgb(89.803922%,22.352941%,20.784314%);fill-opacity:1;" d="M 24.058594 17.265625 C 22.398438 17.265625 20.941406 16.527344 20.429688 15.425781 C 20.253906 15.046875 20.417969 14.601562 20.792969 14.429688 C 21.167969 14.253906 21.613281 14.414062 21.789062 14.792969 C 22.007812 15.265625 22.878906 15.765625 24.058594 15.765625 C 25.226562 15.765625 26.078125 15.285156 26.316406 14.8125 C 26.503906 14.441406 26.953125 14.292969 27.324219 14.480469 C 27.695312 14.664062 27.84375 15.117188 27.65625 15.488281 C 27.113281 16.566406 25.699219 17.265625 24.058594 17.265625 Z M 24.058594 17.265625 "/>
<path style=" stroke:none;fill-rule:nonzero;fill:rgb(89.803922%,22.352941%,20.784314%);fill-opacity:1;" d="M 14.117188 3.878906 C 13.371094 3.132812 12.28125 2.847656 11.046875 3.078125 C 9.914062 3.285156 8.777344 3.914062 7.847656 4.847656 C 6.914062 5.777344 6.285156 6.914062 6.078125 8.046875 C 5.847656 9.28125 6.132812 10.371094 6.878906 11.117188 C 7.476562 11.714844 8.28125 12.007812 9.160156 12.007812 C 10.46875 12.007812 11.941406 11.367188 13.152344 10.152344 C 15.183594 8.125 15.605469 5.367188 14.117188 3.878906 Z M 14.117188 3.878906 "/>
<path style=" stroke:none;fill-rule:nonzero;fill:rgb(71.764708%,10.980392%,10.980392%);fill-opacity:1;" d="M 11.324219 6.207031 C 11.746094 6.628906 11.503906 7.546875 10.792969 8.261719 C 10.078125 8.972656 9.160156 9.214844 8.738281 8.792969 C 8.316406 8.371094 8.558594 7.453125 9.269531 6.738281 C 9.984375 6.027344 10.902344 5.785156 11.324219 6.207031 Z M 11.324219 6.207031 "/>
<path style=" stroke:none;fill-rule:nonzero;fill:rgb(89.803922%,22.352941%,20.784314%);fill-opacity:1;" d="M 12.75 15 C 7.789062 15 3.753906 19.039062 3.753906 24 C 3.753906 28.960938 7.789062 32.996094 12.75 32.996094 C 17.714844 32.996094 21.75 28.960938 21.75 24 C 21.75 19.039062 17.714844 15 12.75 15 Z M 12.75 15 "/>
<path style=" stroke:none;fill-rule:nonzero;fill:rgb(71.764708%,10.980392%,10.980392%);fill-opacity:1;" d="M 12.9375 28.5 C 10.457031 28.5 8.4375 26.480469 8.4375 24 C 8.4375 21.515625 10.457031 19.5 12.9375 19.5 C 13.351562 19.5 13.6875 19.835938 13.6875 20.25 C 13.6875 20.664062 13.351562 21 12.9375 21 C 11.28125 21 9.9375 22.34375 9.9375 24 C 9.9375 25.652344 11.28125 27 12.9375 27 C 13.351562 27 13.6875 27.335938 13.6875 27.75 C 13.6875 28.164062 13.351562 28.5 12.9375 28.5 Z M 12.9375 28.5 "/>
</g>
</svg>
