<?xml version="1.0" encoding="UTF-8"?>
<svg xmlns="http://www.w3.org/2000/svg" xmlns:xlink="http://www.w3.org/1999/xlink" width="36pt" height="36pt" viewBox="0 0 36 36" version="1.1">
<g id="surface23267">
<path style=" stroke:none;fill-rule:nonzero;fill:rgb(77.254903%,79.215688%,91.37255%);fill-opacity:1;" d="M 5.25 15.75 L 16.5 15.75 L 16.5 17.25 L 5.25 17.25 Z M 5.25 12 L 20.25 12 L 20.25 13.5 L 5.25 13.5 Z M 5.25 19.5 L 19.5 19.5 L 19.5 21 L 5.25 21 Z M 5.25 19.5 "/>
<path style=" stroke:none;fill-rule:nonzero;fill:rgb(97.647059%,65.882355%,14.509805%);fill-opacity:1;" d="M 14.25 32.25 C 13.800781 32.25 13.425781 32.101562 13.125 31.726562 C 12.601562 31.125 12.601562 30.148438 13.273438 29.625 L 20.023438 23.625 C 20.625 23.101562 21.601562 23.101562 22.125 23.773438 C 22.648438 24.375 22.648438 25.351562 21.976562 25.875 L 15.226562 31.875 C 14.925781 32.101562 14.625 32.25 14.25 32.25 Z M 14.25 32.25 "/>
<path style=" stroke:none;fill-rule:nonzero;fill:rgb(100%,71.764708%,30.19608%);fill-opacity:1;" d="M 27.75 4.5 C 29.398438 4.5 30.75 5.851562 30.75 7.5 C 30.75 9.148438 29.398438 10.5 27.75 10.5 C 26.101562 10.5 24.75 9.148438 24.75 7.5 C 24.75 5.851562 26.101562 4.5 27.75 4.5 M 29.625 19.5 L 24.375 19.5 C 23.773438 19.5 23.25 18.976562 23.25 18.375 L 22.5 13.5 L 22.5 12.75 L 18.074219 9 L 13.273438 9 C 12.675781 9.074219 12.074219 8.625 12 8.023438 C 11.925781 7.425781 12.375 6.824219 12.976562 6.75 L 18.226562 6.75 C 18.523438 6.75 18.75 6.75 18.976562 6.898438 L 23.476562 9.898438 C 23.625 9.976562 24.824219 11.101562 24.824219 11.101562 C 24.976562 11.25 25.5 12.449219 25.5 12.675781 L 25.5 17.175781 L 29.625 17.175781 C 30.226562 17.175781 30.75 17.699219 30.75 18.300781 C 30.75 18.898438 30.226562 19.5 29.625 19.5 Z M 21 26.25 L 12.75 26.25 C 11.925781 26.25 11.25 25.574219 11.25 24.75 C 11.25 23.925781 11.925781 23.25 12.75 23.25 L 18.375 23.25 L 14.773438 18.375 L 18.601562 15.75 L 22.351562 24 C 22.648438 24.449219 22.648438 25.050781 22.351562 25.5 C 22.050781 25.949219 21.523438 26.25 21 26.25 Z M 21 26.25 "/>
<path style=" stroke:none;fill-rule:nonzero;fill:rgb(100%,71.764708%,30.19608%);fill-opacity:1;" d="M 16.875 19.5 C 16.050781 19.5 15.300781 19.125 14.773438 18.449219 C 13.875 17.324219 14.175781 15.675781 15.300781 14.773438 L 21.148438 10.425781 C 22.273438 9.523438 23.925781 9.824219 24.824219 10.949219 C 25.726562 12.074219 25.425781 13.726562 24.300781 14.625 L 18.449219 18.976562 C 18 19.351562 17.398438 19.5 16.875 19.5 Z M 16.875 19.5 "/>
<path style=" stroke:none;fill-rule:nonzero;fill:rgb(100%,40.000001%,63.137257%);fill-opacity:1;" d="M 22.875 15.675781 L 25.5 13.726562 L 25.5 12.75 C 25.5 12.75 25.648438 11.476562 24.976562 10.800781 C 24.148438 9.976562 22.574219 9.375 22.574219 9.375 L 15.300781 14.773438 C 14.175781 15.675781 13.875 17.324219 14.773438 18.449219 C 15.300781 19.125 16.050781 19.5 16.875 19.5 C 17.398438 19.5 18 19.351562 18.449219 18.976562 Z M 22.875 15.675781 "/>
<path style=" stroke:none;fill-rule:nonzero;fill:rgb(32.941177%,43.137255%,47.843137%);fill-opacity:1;" d="M 14.851562 18.523438 L 18.375 23.25 L 21.976562 23.25 L 19.648438 18.148438 L 16.800781 13.726562 L 15.375 14.773438 C 14.25 15.675781 13.949219 17.324219 14.851562 18.449219 C 14.773438 18.449219 14.851562 18.523438 14.851562 18.523438 Z M 14.851562 18.523438 "/>
</g>
</svg>
