<?xml version="1.0" encoding="UTF-8"?>
<svg xmlns="http://www.w3.org/2000/svg" xmlns:xlink="http://www.w3.org/1999/xlink" width="36pt" height="36pt" viewBox="0 0 36 36" version="1.1">
<g id="surface21096">
<path style=" stroke:none;fill-rule:nonzero;fill:rgb(100%,100%,100%);fill-opacity:1;" d="M 4.449219 18.78125 C 4.449219 18.78125 10.492188 10.5 17.949219 10.5 C 25.410156 10.5 31.449219 18.78125 31.449219 18.78125 C 31.449219 18.78125 25.410156 27 17.949219 27 C 10.492188 27 4.449219 18.78125 4.449219 18.78125 Z M 4.449219 18.78125 "/>
<path style=" stroke:none;fill-rule:nonzero;fill:rgb(81.176472%,84.705883%,86.274511%);fill-opacity:1;" d="M 17.949219 10.5 C 25.410156 10.5 31.449219 18.78125 31.449219 18.78125 C 31.449219 18.78125 25.410156 27 17.949219 27 C 10.492188 27 4.449219 18.78125 4.449219 18.78125 C 4.449219 18.78125 10.492188 10.5 17.949219 10.5 M 17.949219 9 C 9.824219 9 3.5 17.53125 3.234375 17.898438 L 2.585938 18.785156 L 3.238281 19.667969 C 3.503906 20.03125 9.828125 28.5 17.949219 28.5 C 26.074219 28.5 32.390625 20.03125 32.65625 19.667969 L 33.304688 18.785156 L 32.660156 17.898438 C 32.394531 17.535156 26.078125 9 17.949219 9 Z M 17.949219 9 "/>
<path style=" stroke:none;fill-rule:nonzero;fill:rgb(0%,67.450982%,75.686276%);fill-opacity:1;" d="M 11.203125 18.746094 C 11.203125 15.015625 14.226562 12 17.953125 12 C 21.675781 12 24.703125 15.015625 24.703125 18.746094 C 24.703125 22.476562 21.675781 25.5 17.953125 25.5 C 14.226562 25.5 11.203125 22.476562 11.203125 18.746094 Z M 11.203125 18.746094 "/>
<path style=" stroke:none;fill-rule:nonzero;fill:rgb(0%,37.64706%,39.215687%);fill-opacity:1;" d="M 14.953125 18.75 C 14.953125 17.089844 16.289062 15.75 17.953125 15.75 C 19.605469 15.75 20.953125 17.089844 20.953125 18.75 C 20.953125 20.414062 19.605469 21.75 17.953125 21.75 C 16.289062 21.75 14.953125 20.414062 14.953125 18.75 Z M 14.953125 18.75 "/>
<path style=" stroke:none;fill-rule:nonzero;fill:rgb(56.470591%,64.313728%,68.235296%);fill-opacity:1;" d="M 4.46875 18.75 C 4.863281 18.226562 10.746094 10.53125 17.949219 10.53125 C 25.152344 10.53125 31.03125 18.222656 31.425781 18.75 L 35.144531 18.75 L 33.867188 17.007812 C 33.585938 16.621094 26.828125 7.53125 17.949219 7.53125 C 9.074219 7.53125 2.3125 16.621094 2.027344 17.007812 L 0.75 18.75 Z M 4.46875 18.75 "/>
</g>
</svg>
