<?xml version="1.0" encoding="UTF-8"?>
<svg xmlns="http://www.w3.org/2000/svg" xmlns:xlink="http://www.w3.org/1999/xlink" width="36pt" height="36pt" viewBox="0 0 36 36" version="1.1">
<g id="surface23323">
<path style=" stroke:none;fill-rule:nonzero;fill:rgb(100%,71.764708%,30.19608%);fill-opacity:1;" d="M 8.25 12.75 C 9.898438 12.75 11.25 14.101562 11.25 15.75 C 11.25 17.398438 9.898438 18.75 8.25 18.75 C 6.601562 18.75 5.25 17.398438 5.25 15.75 C 5.25 14.101562 6.601562 12.75 8.25 12.75 "/>
<path style=" stroke:none;fill-rule:nonzero;fill:rgb(97.254902%,65.490198%,16.470589%);fill-opacity:1;" d="M 18.375 33 C 18.148438 33 18 33 17.773438 32.925781 C 16.800781 32.625 16.273438 31.574219 16.574219 30.601562 L 20.699219 16.726562 C 21 15.75 22.050781 15.226562 23.023438 15.523438 C 24 15.824219 24.523438 16.875 24.226562 17.851562 L 20.101562 31.726562 C 19.949219 32.476562 19.199219 33 18.375 33 Z M 18.375 33 "/>
<path style=" stroke:none;fill-rule:nonzero;fill:rgb(100%,71.764708%,30.19608%);fill-opacity:1;" d="M 11.25 29.25 C 11.101562 29.25 11.023438 29.25 10.875 29.175781 C 10.050781 28.949219 9.601562 28.125 9.824219 27.375 L 13.5 13.273438 L 13.5 4.5 C 13.5 3.675781 14.175781 3 15 3 C 15.824219 3 16.5 3.675781 16.5 4.5 L 16.5 13.5 C 16.5 13.648438 16.5 13.726562 16.425781 13.875 L 12.675781 28.125 C 12.523438 28.800781 11.925781 29.25 11.25 29.25 Z M 28.125 33 C 27.300781 33 26.550781 32.398438 26.324219 31.574219 L 22.199219 16.949219 C 21.976562 15.976562 22.199219 13.5 23.25 13.5 C 24.601562 13.5 26.023438 15.523438 26.25 16.5 L 30 30.675781 C 30.226562 31.648438 29.625 32.699219 28.648438 32.925781 C 28.425781 33 28.273438 33 28.125 33 Z M 28.125 33 "/>
<path style=" stroke:none;fill-rule:nonzero;fill:rgb(100%,40.000001%,63.137257%);fill-opacity:1;" d="M 23.25 13.5 L 13.5 13.5 L 12.300781 18.074219 L 15 19.5 L 22.949219 19.5 C 22.949219 16.648438 24.148438 16.5 26.25 16.5 C 26.25 14.851562 24.898438 13.5 23.25 13.5 Z M 23.25 13.5 "/>
<path style=" stroke:none;fill-rule:nonzero;fill:rgb(92.54902%,25.098041%,47.843137%);fill-opacity:1;" d="M 23.101562 18 L 15.375 18 L 15 19.5 L 22.875 19.5 L 22.949219 19.425781 C 22.949219 18.824219 23.023438 18.375 23.101562 18 Z M 23.101562 18 "/>
</g>
</svg>
