<?xml version="1.0" encoding="UTF-8"?>
<svg xmlns="http://www.w3.org/2000/svg" xmlns:xlink="http://www.w3.org/1999/xlink" width="36pt" height="36pt" viewBox="0 0 36 36" version="1.1">
<g id="surface29904">
<path style=" stroke:none;fill-rule:nonzero;fill:rgb(84.313726%,80.000001%,78.431374%);fill-opacity:1;" d="M 32.851562 8.550781 L 31.125 4.273438 C 30.75 3.226562 29.625 2.699219 28.574219 3.148438 C 27.523438 3.523438 27 4.648438 27.375 5.699219 L 24.976562 6.375 C 24.824219 5.699219 24.148438 5.25 23.398438 5.25 C 22.5 5.25 21.75 6 21.75 6.976562 C 21.75 7.425781 21.898438 7.875 22.199219 8.175781 C 22.199219 8.175781 9.824219 22.574219 9.074219 23.476562 C 8.25 24.375 5.101562 23.550781 3.449219 25.648438 C 2.925781 26.324219 2.773438 27.824219 3.601562 28.726562 C 4.425781 29.550781 5.773438 29.324219 6.449219 30 C 7.050781 30.601562 6.976562 31.648438 7.648438 32.324219 C 8.25 33 9.824219 33.449219 10.875 32.324219 C 12.523438 30.601562 11.550781 27.300781 12.601562 26.023438 C 13.648438 24.824219 25.574219 10.5 25.574219 10.5 L 29.023438 9.523438 L 29.175781 9.976562 C 29.550781 11.023438 30.675781 11.550781 31.726562 11.101562 C 32.773438 10.726562 33.226562 9.601562 32.851562 8.550781 Z M 32.851562 8.550781 "/>
<path style=" stroke:none;fill-rule:nonzero;fill:rgb(73.725492%,66.666669%,64.313728%);fill-opacity:1;" d="M 7.648438 32.324219 C 6.976562 31.574219 7.050781 30.601562 6.449219 30 C 5.773438 29.324219 4.425781 29.550781 3.601562 28.726562 C 2.773438 27.824219 6.523438 26.023438 8.25 27.75 C 9.601562 29.101562 9 33.75 7.648438 32.324219 Z M 25.050781 6.375 C 25.050781 6.375 26.550781 8.398438 25.574219 10.5 L 29.023438 9.523438 L 27.523438 5.699219 Z M 25.050781 6.375 "/>
</g>
</svg>
