<?xml version="1.0" encoding="UTF-8"?>
<svg xmlns="http://www.w3.org/2000/svg" xmlns:xlink="http://www.w3.org/1999/xlink" width="36pt" height="36pt" viewBox="0 0 36 36" version="1.1">
<g id="surface24723">
<path style=" stroke:none;fill-rule:nonzero;fill:rgb(29.803923%,68.627453%,31.37255%);fill-opacity:1;" d="M 30 15.75 L 33 15.75 L 33 33 L 30 33 Z M 25.5 21 L 28.5 21 L 28.5 33 L 25.5 33 Z M 21 17.25 L 24 17.25 L 24 33 L 21 33 Z M 16.5 21.75 L 19.5 21.75 L 19.5 33 L 16.5 33 Z M 12 24 L 15 24 L 15 33 L 12 33 Z M 7.5 22.5 L 10.5 22.5 L 10.5 33 L 7.5 33 Z M 3 25.5 L 6 25.5 L 6 33 L 3 33 Z M 3 25.5 "/>
<path style=" stroke:none;fill-rule:nonzero;fill:rgb(21.960784%,55.686277%,23.529412%);fill-opacity:1;" d="M 30.074219 6.824219 L 25.5 11.398438 L 22.5 8.398438 L 15 15.898438 L 11.25 12.148438 L 3.449219 19.949219 L 5.550781 22.050781 L 11.25 16.351562 L 15 20.101562 L 22.5 12.601562 L 25.5 15.601562 L 32.175781 8.925781 Z M 30.074219 6.824219 "/>
<path style=" stroke:none;fill-rule:nonzero;fill:rgb(21.960784%,55.686277%,23.529412%);fill-opacity:1;" d="M 33 6 L 26.25 6 L 33 12.75 Z M 33 6 "/>
</g>
</svg>
