<?xml version="1.0" encoding="UTF-8"?>
<svg xmlns="http://www.w3.org/2000/svg" xmlns:xlink="http://www.w3.org/1999/xlink" width="36pt" height="36pt" viewBox="0 0 36 36" version="1.1">
<g id="surface41416">
<path style=" stroke:none;fill-rule:nonzero;fill:rgb(100%,71.764708%,30.19608%);fill-opacity:1;" d="M 23.25 33 L 23.25 29.550781 L 25.199219 29.925781 C 27.375 30.375 29.398438 28.800781 29.550781 26.625 L 30 21.75 L 32.175781 20.851562 C 32.925781 20.550781 33.226562 19.648438 32.773438 18.898438 L 30 14.25 C 29.550781 8.550781 26.324219 3 18 3 C 9.449219 3 5.25 9.300781 5.25 15.75 C 5.25 18.523438 6.226562 20.925781 7.726562 22.949219 C 9.074219 24.824219 9.75 27.074219 9.75 29.324219 L 9.75 33 Z M 23.25 33 "/>
<path style=" stroke:none;fill-rule:nonzero;fill:rgb(11.764706%,53.333336%,89.803922%);fill-opacity:1;" d="M 12.859375 14.25 L 16.5 14.25 L 16.5 23.25 L 19.5 23.25 L 19.5 14.25 L 23.140625 14.25 L 18 9.109375 Z M 12.859375 14.25 "/>
</g>
</svg>
