<?xml version="1.0" encoding="UTF-8"?>
<svg xmlns="http://www.w3.org/2000/svg" xmlns:xlink="http://www.w3.org/1999/xlink" width="36pt" height="36pt" viewBox="0 0 36 36" version="1.1">
<g id="surface21899">
<path style=" stroke:none;fill-rule:nonzero;fill:rgb(37.64706%,49.019608%,54.509807%);fill-opacity:1;" d="M 24 23.25 C 24 23.25 22.339844 20.25 18 20.25 C 13.660156 20.25 12 23.25 12 23.25 L 12 24.75 L 24 24.75 Z M 24 23.25 "/>
<path style=" stroke:none;fill-rule:nonzero;fill:rgb(100%,59.607846%,0%);fill-opacity:1;" d="M 19.5 18 L 16.5 18 L 16.5 20.25 C 16.5 20.25 16.410156 21.75 17.972656 21.75 C 19.53125 21.75 19.5 20.25 19.5 20.25 Z M 19.5 18 "/>
<path style=" stroke:none;fill-rule:nonzero;fill:rgb(100%,71.764708%,30.19608%);fill-opacity:1;" d="M 18 19.5 C 15.929688 19.5 14.25 17.820312 14.25 15.75 C 14.25 13.679688 15.929688 12 18 12 C 20.070312 12 21.75 13.679688 21.75 15.75 C 21.75 17.820312 20.070312 19.5 18 19.5 "/>
<path style=" stroke:none;fill-rule:nonzero;fill:rgb(25.882354%,25.882354%,25.882354%);fill-opacity:1;" d="M 17.835938 10.5 C 16.007812 10.664062 14.25 11.949219 14.25 14.679688 L 14.25 15.75 L 15 16.5 L 15 14.25 L 19.730469 12.601562 L 21 14.25 L 21 16.5 L 21.75 15.75 L 21.75 14.847656 C 21.75 13.039062 21.648438 11.695312 19.5 11.25 L 19.136719 10.5 Z M 17.835938 10.5 "/>
<path style=" stroke:none;fill-rule:nonzero;fill:rgb(12.941177%,58.823532%,95.294118%);fill-opacity:1;" d="M 18 3 C 9.96875 3 3.429688 9.316406 3.039062 17.25 L 5.289062 17.25 C 5.679688 10.558594 11.210938 5.25 18 5.25 C 23.234375 5.25 27.726562 8.40625 29.691406 12.917969 L 31.757812 12.027344 C 29.449219 6.71875 24.160156 3 18 3 Z M 18 3 "/>
<path style=" stroke:none;fill-rule:nonzero;fill:rgb(12.941177%,58.823532%,95.294118%);fill-opacity:1;" d="M 4.125 20.25 L 7.5 16.5 L 0.75 16.5 Z M 18 33 C 26.03125 33 32.570312 26.683594 32.960938 18.75 L 30.710938 18.75 C 30.324219 25.441406 24.789062 30.75 18 30.75 C 12.765625 30.75 8.273438 27.59375 6.308594 23.082031 L 4.242188 23.972656 C 6.550781 29.28125 11.839844 33 18 33 Z M 18 33 "/>
<path style=" stroke:none;fill-rule:nonzero;fill:rgb(12.941177%,58.823532%,95.294118%);fill-opacity:1;" d="M 31.875 15.75 L 28.5 19.5 L 35.25 19.5 Z M 31.875 15.75 "/>
</g>
</svg>
