<?xml version="1.0" encoding="UTF-8"?>
<svg xmlns="http://www.w3.org/2000/svg" xmlns:xlink="http://www.w3.org/1999/xlink" width="36pt" height="36pt" viewBox="0 0 36 36" version="1.1">
<g id="surface19154">
<path style=" stroke:none;fill-rule:nonzero;fill:rgb(91.37255%,11.764706%,38.82353%);fill-opacity:1;" d="M 34.4375 26.96875 C 34.4375 29.035156 32.761719 30.730469 30.6875 30.730469 C 30.6875 30.730469 21.75 31.457031 21.75 24.007812 L 21.75 12.75 C 21.75 10.683594 22.0625 9.757812 23.9375 9.757812 C 23.03125 9.757812 27.40625 9.195312 31.4375 17.242188 C 35.1875 24.722656 34.4375 26.96875 34.4375 26.96875 Z M 1.5625 26.984375 C 1.5625 29.054688 3.238281 30.730469 5.3125 30.730469 C 5.3125 30.730469 14.25 31.476562 14.25 24.023438 L 14.25 12.753906 C 14.25 10.6875 13.9375 9.757812 12.0625 9.757812 C 12.96875 9.757812 8.59375 9.195312 4.5625 17.25 C 0.8125 24.738281 1.5625 26.984375 1.5625 26.984375 Z M 1.5625 26.984375 "/>
<path style=" stroke:none;fill-rule:nonzero;fill:rgb(95.686275%,56.078434%,69.411767%);fill-opacity:1;" d="M 6.484375 27.132812 C 6.972656 26.789062 7.492188 26.503906 7.910156 26.160156 C 8.117188 25.988281 8.296875 25.808594 8.421875 25.613281 C 8.496094 25.503906 8.527344 25.429688 8.574219 25.316406 C 8.617188 25.210938 8.660156 25.066406 8.703125 24.945312 C 8.859375 24.433594 8.949219 23.898438 9.027344 23.335938 C 9.105469 22.765625 9.183594 22.164062 9.332031 21.535156 C 9.375 21.375 9.40625 21.230469 9.460938 21.054688 L 9.613281 20.597656 C 9.753906 20.230469 9.929688 19.914062 10.113281 19.617188 C 10.113281 19.617188 11.109375 18.160156 12.359375 17.503906 C 17.25 14.972656 16.5 12.769531 16.5 12.710938 C 16.503906 11.886719 17.175781 11.222656 18 11.222656 C 18.828125 11.222656 19.5 11.894531 19.5 12.722656 C 19.5 12.910156 18.75 17.972656 14.25 19.3125 C 14.242188 19.316406 14.238281 19.316406 14.234375 19.320312 C 13.398438 19.773438 12.527344 20.363281 11.902344 20.980469 C 11.738281 21.148438 11.589844 21.316406 11.480469 21.476562 L 11.277344 21.816406 C 11.222656 21.90625 11.164062 22.035156 11.105469 22.144531 C 10.875 22.617188 10.6875 23.144531 10.480469 23.703125 C 10.277344 24.261719 10.042969 24.847656 9.734375 25.398438 C 9.648438 25.539062 9.582031 25.664062 9.480469 25.8125 C 9.382812 25.953125 9.253906 26.117188 9.132812 26.226562 C 8.878906 26.46875 8.59375 26.648438 8.316406 26.789062 C 7.753906 27.078125 7.191406 27.234375 6.671875 27.460938 C 6.152344 27.679688 5.648438 27.972656 5.328125 28.472656 C 5.53125 27.914062 6 27.472656 6.484375 27.132812 Z M 16.5 5.25 L 19.5 5.25 L 19.5 7.5 L 16.5 7.5 Z M 16.5 5.25 "/>
<path style=" stroke:none;fill-rule:nonzero;fill:rgb(95.686275%,56.078434%,69.411767%);fill-opacity:1;" d="M 16.5 9 L 19.5 9 L 19.5 11.25 L 16.5 11.25 Z M 16.5 9 "/>
<path style=" stroke:none;fill-rule:nonzero;fill:rgb(95.686275%,56.078434%,69.411767%);fill-opacity:1;" d="M 29.515625 27.132812 C 29.027344 26.789062 28.507812 26.503906 28.089844 26.160156 C 27.882812 25.988281 27.703125 25.808594 27.578125 25.613281 C 27.503906 25.503906 27.472656 25.429688 27.425781 25.316406 C 27.382812 25.210938 27.339844 25.066406 27.296875 24.945312 C 27.140625 24.433594 27.050781 23.898438 26.972656 23.335938 C 26.894531 22.765625 26.816406 22.164062 26.667969 21.535156 C 26.625 21.375 26.59375 21.230469 26.539062 21.054688 L 26.386719 20.597656 C 26.246094 20.230469 26.070312 19.914062 25.886719 19.617188 C 25.886719 19.617188 24.890625 18.160156 23.640625 17.503906 C 19.5 15.722656 19.5 12.769531 19.5 12.710938 C 19.496094 11.886719 18.824219 11.222656 18 11.222656 C 17.171875 11.222656 16.5 11.894531 16.5 12.722656 C 16.5 12.910156 17.25 17.222656 21.75 19.3125 C 21.757812 19.316406 21.761719 19.316406 21.765625 19.320312 C 22.601562 19.773438 23.472656 20.363281 24.097656 20.980469 C 24.261719 21.148438 24.410156 21.316406 24.519531 21.476562 L 24.722656 21.816406 C 24.777344 21.90625 24.835938 22.035156 24.894531 22.144531 C 25.125 22.617188 25.3125 23.144531 25.519531 23.703125 C 25.722656 24.261719 25.957031 24.847656 26.265625 25.398438 C 26.351562 25.539062 26.417969 25.664062 26.519531 25.8125 C 26.617188 25.953125 26.746094 26.117188 26.867188 26.226562 C 27.121094 26.46875 27.40625 26.648438 27.683594 26.789062 C 28.246094 27.078125 28.808594 27.234375 29.328125 27.460938 C 29.847656 27.679688 30.351562 27.972656 30.671875 28.472656 C 30.46875 27.914062 30 27.472656 29.515625 27.132812 Z M 29.515625 27.132812 "/>
<path style=" stroke:none;fill-rule:nonzero;fill:rgb(95.686275%,56.078434%,69.411767%);fill-opacity:1;" d="M 24.636719 18.347656 C 24.8125 18.449219 25.285156 18.367188 25.605469 18.195312 C 25.945312 18.019531 26.21875 17.75 26.34375 17.355469 C 26.453125 16.886719 26.535156 16.34375 26.492188 15.832031 C 26.457031 15.300781 26.332031 14.757812 26.171875 14.222656 C 26.5 14.675781 26.8125 15.148438 27.046875 15.691406 C 27.289062 16.246094 27.417969 16.820312 27.480469 17.453125 C 27.527344 18.164062 27.21875 18.929688 26.722656 19.472656 C 26.210938 20.011719 25.636719 20.449219 24.703125 20.597656 Z M 26.21875 22.511719 C 25.824219 22.792969 25.390625 23.21875 25.074219 23.632812 C 24.914062 23.84375 24.777344 24.066406 24.679688 24.292969 C 24.574219 24.527344 24.523438 24.710938 24.496094 25.042969 C 24.441406 25.582031 24.507812 26.199219 24.65625 26.785156 C 24.8125 27.371094 25.050781 27.953125 25.421875 28.472656 C 24.914062 28.082031 24.488281 27.570312 24.140625 27.007812 C 23.796875 26.429688 23.523438 25.820312 23.375 25.101562 C 23.300781 24.804688 23.257812 24.351562 23.308594 23.972656 C 23.351562 23.585938 23.449219 23.21875 23.570312 22.867188 C 23.835938 22.164062 24.152344 21.5625 24.625 20.929688 Z M 25.824219 20.652344 C 26.292969 20.558594 26.644531 20.554688 27.050781 20.566406 C 27.441406 20.582031 27.835938 20.640625 28.21875 20.742188 C 28.984375 20.945312 29.71875 21.375 30.210938 21.972656 C 30.65625 22.53125 31.007812 23.085938 31.339844 23.671875 C 31.664062 24.253906 31.949219 24.851562 32.171875 25.472656 C 31.785156 24.941406 31.347656 24.460938 30.890625 24.011719 C 30.4375 23.570312 29.9375 23.140625 29.449219 22.800781 C 28.996094 22.503906 28.484375 22.394531 27.972656 22.414062 C 27.476562 22.425781 26.886719 22.585938 26.519531 22.789062 Z M 25.824219 20.652344 "/>
<path style=" stroke:none;fill-rule:nonzero;fill:rgb(95.686275%,56.078434%,69.411767%);fill-opacity:1;" d="M 26.171875 17.972656 C 26.640625 18.042969 27.039062 18.144531 27.460938 18.269531 C 27.871094 18.390625 28.277344 18.542969 28.664062 18.71875 C 29.4375 19.074219 30.179688 19.558594 30.671875 20.222656 C 30.003906 19.738281 29.226562 19.535156 28.457031 19.441406 C 28.070312 19.394531 27.679688 19.375 27.292969 19.382812 C 26.914062 19.386719 26.507812 19.414062 26.167969 19.472656 Z M 26.171875 17.972656 "/>
<path style=" stroke:none;fill-rule:nonzero;fill:rgb(95.686275%,56.078434%,69.411767%);fill-opacity:1;" d="M 11.296875 20.597656 C 10.363281 20.449219 9.789062 20.011719 9.277344 19.472656 C 8.78125 18.929688 8.472656 18.164062 8.519531 17.449219 C 8.582031 16.816406 8.710938 16.246094 8.953125 15.691406 C 9.1875 15.148438 9.5 14.671875 9.828125 14.222656 C 9.667969 14.757812 9.542969 15.300781 9.507812 15.832031 C 9.464844 16.34375 9.546875 16.886719 9.65625 17.355469 C 9.78125 17.75 10.054688 18.019531 10.394531 18.195312 C 10.714844 18.367188 11.1875 18.449219 11.363281 18.34375 Z M 11.296875 20.597656 "/>
<path style=" stroke:none;fill-rule:nonzero;fill:rgb(95.686275%,56.078434%,69.411767%);fill-opacity:1;" d="M 11.378906 20.929688 C 11.851562 21.5625 12.167969 22.164062 12.429688 22.867188 C 12.554688 23.21875 12.648438 23.585938 12.691406 23.972656 C 12.742188 24.351562 12.699219 24.804688 12.625 25.101562 C 12.480469 25.820312 12.203125 26.429688 11.859375 27.007812 C 11.511719 27.570312 11.089844 28.085938 10.578125 28.472656 C 10.949219 27.953125 11.1875 27.371094 11.34375 26.785156 C 11.492188 26.199219 11.558594 25.582031 11.503906 25.042969 C 11.480469 24.710938 11.425781 24.527344 11.324219 24.292969 C 11.222656 24.066406 11.085938 23.84375 10.925781 23.632812 C 10.609375 23.21875 10.175781 22.792969 9.78125 22.511719 Z M 11.378906 20.929688 "/>
<path style=" stroke:none;fill-rule:nonzero;fill:rgb(95.686275%,56.078434%,69.411767%);fill-opacity:1;" d="M 9.480469 22.789062 C 9.113281 22.585938 8.523438 22.425781 8.027344 22.414062 C 7.515625 22.394531 7.003906 22.503906 6.550781 22.800781 C 6.0625 23.140625 5.5625 23.570312 5.109375 24.011719 C 4.652344 24.460938 4.214844 24.941406 3.828125 25.472656 C 4.050781 24.851562 4.335938 24.253906 4.660156 23.671875 C 4.992188 23.085938 5.34375 22.53125 5.789062 21.972656 C 6.28125 21.375 7.015625 20.945312 7.78125 20.742188 C 8.164062 20.640625 8.558594 20.582031 8.949219 20.566406 C 9.355469 20.554688 9.707031 20.558594 10.175781 20.652344 Z M 9.480469 22.789062 "/>
<path style=" stroke:none;fill-rule:nonzero;fill:rgb(95.686275%,56.078434%,69.411767%);fill-opacity:1;" d="M 9.832031 19.472656 C 9.488281 19.414062 9.085938 19.386719 8.707031 19.382812 C 8.316406 19.375 7.929688 19.394531 7.542969 19.441406 C 6.773438 19.535156 5.996094 19.738281 5.328125 20.222656 C 5.816406 19.558594 6.5625 19.074219 7.335938 18.71875 C 7.722656 18.542969 8.128906 18.390625 8.539062 18.269531 C 8.957031 18.144531 9.359375 18.039062 9.824219 17.972656 Z M 9.832031 19.472656 "/>
<path style=" stroke:none;fill-rule:nonzero;fill:rgb(92.54902%,25.098041%,47.843137%);fill-opacity:1;" d="M 16.5 7.5 L 19.5 7.5 L 19.5 9 L 16.5 9 Z M 16.5 3.75 L 19.5 3.75 L 19.5 5.25 L 16.5 5.25 Z M 16.5 11.25 L 19.5 11.25 L 19.5 12.75 L 16.5 12.75 Z M 16.5 11.25 "/>
</g>
</svg>
