<?xml version="1.0" encoding="UTF-8"?>
<svg xmlns="http://www.w3.org/2000/svg" xmlns:xlink="http://www.w3.org/1999/xlink" width="36pt" height="36pt" viewBox="0 0 36 36" version="1.1">
<g id="surface42856">
<path style=" stroke:none;fill-rule:nonzero;fill:rgb(54.509807%,76.47059%,29.019609%);fill-opacity:1;" d="M 21.148438 12.523438 C 21 12.523438 20.851562 12.449219 20.699219 12.375 C 20.398438 12.148438 20.324219 11.625 20.550781 11.324219 L 24.675781 6.148438 C 24.898438 5.851562 25.425781 5.773438 25.726562 6 C 26.023438 6.226562 26.101562 6.75 25.875 7.050781 L 21.75 12.226562 C 21.523438 12.449219 21.300781 12.523438 21.148438 12.523438 Z M 21.148438 12.523438 "/>
<path style=" stroke:none;fill-rule:nonzero;fill:rgb(54.509807%,76.47059%,29.019609%);fill-opacity:1;" d="M 27.375 6.601562 C 27.375 7.726562 26.476562 8.699219 25.273438 8.699219 C 24.148438 8.699219 23.175781 7.800781 23.175781 6.601562 C 23.175781 5.476562 24.074219 4.5 25.273438 4.5 C 26.398438 4.5 27.375 5.398438 27.375 6.601562 Z M 25.273438 30.148438 C 25.050781 30.148438 24.824219 30.074219 24.675781 29.851562 L 20.550781 24.675781 C 20.324219 24.375 20.324219 23.851562 20.699219 23.625 C 21 23.398438 21.523438 23.398438 21.75 23.773438 L 25.875 28.949219 C 26.101562 29.25 26.101562 29.773438 25.726562 30 C 25.574219 30.148438 25.425781 30.148438 25.273438 30.148438 Z M 25.273438 30.148438 "/>
<path style=" stroke:none;fill-rule:nonzero;fill:rgb(54.509807%,76.47059%,29.019609%);fill-opacity:1;" d="M 27.375 29.398438 C 27.375 30.523438 26.476562 31.5 25.273438 31.5 C 24.074219 31.5 23.175781 30.601562 23.175781 29.398438 C 23.175781 28.199219 24.074219 27.300781 25.273438 27.300781 C 26.476562 27.300781 27.375 28.273438 27.375 29.398438 Z M 23.175781 24.226562 C 23.175781 25.351562 22.273438 26.324219 21.074219 26.324219 C 19.949219 26.324219 18.976562 25.425781 18.976562 24.226562 C 18.976562 23.101562 19.875 22.125 21.074219 22.125 C 22.273438 22.125 23.175781 23.101562 23.175781 24.226562 Z M 23.175781 24.226562 "/>
<path style=" stroke:none;fill-rule:nonzero;fill:rgb(54.509807%,76.47059%,29.019609%);fill-opacity:1;" d="M 21.601562 23.476562 L 16.800781 23.476562 C 16.875 23.699219 16.949219 23.925781 16.949219 24.226562 C 16.949219 24.523438 16.875 24.75 16.800781 24.976562 L 21.601562 24.976562 C 22.050781 24.976562 22.351562 24.675781 22.351562 24.226562 C 22.351562 23.851562 22.050781 23.476562 21.601562 23.476562 Z M 21.601562 23.476562 "/>
<path style=" stroke:none;fill-rule:nonzero;fill:rgb(24.705882%,31.764707%,70.980394%);fill-opacity:1;" d="M 25.273438 18.75 C 25.050781 18.75 24.75 18.601562 24.601562 18.375 L 21 12.148438 C 20.773438 11.773438 20.925781 11.324219 21.300781 11.101562 C 21.675781 10.875 22.125 11.023438 22.351562 11.398438 L 25.949219 17.625 C 26.175781 18 26.023438 18.449219 25.648438 18.675781 C 25.5 18.75 25.425781 18.75 25.273438 18.75 Z M 25.273438 18.75 "/>
<path style=" stroke:none;fill-rule:nonzero;fill:rgb(24.705882%,31.764707%,70.980394%);fill-opacity:1;" d="M 21.601562 12.523438 L 14.699219 12.523438 C 14.25 12.523438 13.949219 12.226562 13.949219 11.773438 C 13.949219 11.324219 14.25 11.023438 14.699219 11.023438 L 21.601562 11.023438 C 22.050781 11.023438 22.351562 11.324219 22.351562 11.773438 C 22.351562 12.226562 22.050781 12.523438 21.601562 12.523438 Z M 16.949219 24.226562 C 16.949219 25.351562 16.050781 26.324219 14.851562 26.324219 C 13.726562 26.324219 12.75 25.425781 12.75 24.226562 C 12.75 23.101562 13.648438 22.125 14.851562 22.125 C 16.050781 22.125 16.949219 23.101562 16.949219 24.226562 Z M 16.949219 24.226562 "/>
<path style=" stroke:none;fill-rule:nonzero;fill:rgb(24.705882%,31.764707%,70.980394%);fill-opacity:1;" d="M 23.175781 11.773438 C 23.175781 12.898438 22.273438 13.875 21.074219 13.875 C 19.949219 13.875 18.976562 12.976562 18.976562 11.773438 C 18.976562 10.648438 19.875 9.675781 21.074219 9.675781 C 22.273438 9.675781 23.175781 10.648438 23.175781 11.773438 Z M 10.726562 18.75 C 10.5 18.75 10.273438 18.675781 10.125 18.449219 L 6 13.273438 C 5.773438 12.976562 5.773438 12.449219 6.148438 12.226562 C 6.449219 12 6.976562 12 7.199219 12.375 L 11.324219 17.550781 C 11.550781 17.851562 11.550781 18.375 11.175781 18.601562 C 11.101562 18.675781 10.949219 18.75 10.726562 18.75 Z M 10.726562 18.75 "/>
<path style=" stroke:none;fill-rule:nonzero;fill:rgb(24.705882%,31.764707%,70.980394%);fill-opacity:1;" d="M 8.699219 12.824219 C 8.699219 13.949219 7.800781 14.925781 6.601562 14.925781 C 5.476562 14.925781 4.5 14.023438 4.5 12.824219 C 4.5 11.699219 5.398438 10.726562 6.601562 10.726562 C 7.726562 10.726562 8.699219 11.625 8.699219 12.824219 Z M 10.726562 30.148438 C 10.574219 30.148438 10.425781 30.074219 10.273438 30 C 9.976562 29.773438 9.898438 29.25 10.125 28.949219 L 14.25 23.773438 C 14.476562 23.476562 15 23.398438 15.300781 23.625 C 15.601562 23.851562 15.675781 24.375 15.449219 24.675781 L 11.324219 29.851562 C 11.175781 30.074219 10.949219 30.148438 10.726562 30.148438 Z M 10.726562 30.148438 "/>
<path style=" stroke:none;fill-rule:nonzero;fill:rgb(24.705882%,31.764707%,70.980394%);fill-opacity:1;" d="M 12.824219 29.398438 C 12.824219 30.523438 11.925781 31.5 10.726562 31.5 C 9.601562 31.5 8.625 30.601562 8.625 29.398438 C 8.625 28.273438 9.523438 27.300781 10.726562 27.300781 C 11.925781 27.300781 12.824219 28.273438 12.824219 29.398438 Z M 12.824219 29.398438 "/>
<path style=" stroke:none;fill-rule:nonzero;fill:rgb(100%,9.019608%,26.666668%);fill-opacity:1;" d="M 10.726562 18.75 C 10.425781 18.75 10.199219 18.601562 10.050781 18.300781 C 9.898438 18.074219 9.976562 17.773438 10.050781 17.625 L 13.648438 11.398438 C 13.800781 11.175781 14.023438 11.023438 14.324219 11.023438 L 14.699219 11.023438 C 15.148438 11.023438 15.449219 11.324219 15.449219 11.773438 C 15.449219 12.148438 15.148438 12.523438 14.699219 12.523438 L 11.324219 18.375 C 11.25 18.523438 11.175781 18.601562 11.023438 18.675781 C 10.949219 18.75 10.875 18.75 10.726562 18.75 Z M 10.726562 18.75 "/>
<path style=" stroke:none;fill-rule:nonzero;fill:rgb(100%,9.019608%,26.666668%);fill-opacity:1;" d="M 16.949219 11.773438 C 16.949219 12.898438 16.050781 13.875 14.851562 13.875 C 13.726562 13.875 12.75 12.976562 12.75 11.773438 C 12.75 10.648438 13.648438 9.675781 14.851562 9.675781 C 16.050781 9.675781 16.949219 10.648438 16.949219 11.773438 Z M 27.375 18 C 27.375 19.125 26.476562 20.101562 25.273438 20.101562 C 24.148438 20.101562 23.175781 19.199219 23.175781 18 C 23.175781 16.800781 24.074219 15.898438 25.273438 15.898438 C 26.398438 15.898438 27.375 16.875 27.375 18 Z M 27.375 18 "/>
<path style=" stroke:none;fill-rule:nonzero;fill:rgb(100%,9.019608%,26.666668%);fill-opacity:1;" d="M 25.273438 18.75 C 25.050781 18.75 24.824219 18.675781 24.675781 18.449219 C 24.449219 18.148438 24.523438 17.625 24.824219 17.398438 L 28.949219 14.25 C 29.25 14.023438 29.773438 14.101562 30 14.398438 C 30.226562 14.699219 30.148438 15.226562 29.851562 15.449219 L 25.726562 18.601562 C 25.574219 18.675781 25.425781 18.75 25.273438 18.75 Z M 25.273438 18.75 "/>
<path style=" stroke:none;fill-rule:nonzero;fill:rgb(100%,9.019608%,26.666668%);fill-opacity:1;" d="M 31.5 14.851562 C 31.5 15.976562 30.601562 16.949219 29.398438 16.949219 C 28.273438 16.949219 27.300781 16.050781 27.300781 14.851562 C 27.300781 13.726562 28.199219 12.75 29.398438 12.75 C 30.601562 12.824219 31.5 13.726562 31.5 14.851562 Z M 12.824219 18 C 12.824219 19.125 11.925781 20.101562 10.726562 20.101562 C 9.601562 20.101562 8.625 19.199219 8.625 18 C 8.625 16.800781 9.523438 15.898438 10.726562 15.898438 C 11.851562 15.898438 12.824219 16.875 12.824219 18 Z M 25.648438 17.324219 C 25.273438 17.101562 24.824219 17.25 24.601562 17.625 L 21.898438 22.273438 C 22.425781 22.5 22.800781 22.875 23.023438 23.324219 L 25.949219 18.300781 C 26.101562 18 26.023438 17.550781 25.648438 17.324219 Z M 25.648438 17.324219 "/>
<path style=" stroke:none;fill-rule:nonzero;fill:rgb(100%,9.019608%,26.666668%);fill-opacity:1;" d="M 14.101562 22.273438 L 11.398438 17.625 C 11.175781 17.25 10.726562 17.175781 10.351562 17.324219 C 9.976562 17.550781 9.898438 18 10.050781 18.375 L 12.976562 23.398438 C 13.199219 22.875 13.648438 22.5 14.101562 22.273438 Z M 14.101562 22.273438 "/>
</g>
</svg>
