<?xml version="1.0" encoding="UTF-8"?>
<svg xmlns="http://www.w3.org/2000/svg" xmlns:xlink="http://www.w3.org/1999/xlink" width="36pt" height="36pt" viewBox="0 0 36 36" version="1.1">
<g id="surface29021">
<path style=" stroke:none;fill-rule:nonzero;fill:rgb(100%,45.882353%,29.803923%);fill-opacity:1;" d="M 36 16.832031 C 32.949219 16.105469 30.160156 14.460938 27.921875 12.167969 C 25.585938 9.777344 22.011719 8.25 18 8.25 C 13.988281 8.25 10.414062 9.777344 8.078125 12.167969 C 5.839844 14.460938 3.050781 16.105469 0 16.832031 L 0 20.667969 C 3.050781 21.394531 5.839844 23.039062 8.078125 25.332031 C 10.414062 27.722656 13.988281 29.25 18 29.25 C 22.011719 29.25 25.585938 27.722656 27.921875 25.332031 C 30.160156 23.039062 32.949219 21.394531 36 20.667969 Z M 36 16.832031 "/>
<path style="fill:none;stroke-width:2;stroke-linecap:butt;stroke-linejoin:miter;stroke:rgb(95.686275%,31.764707%,11.764706%);stroke-opacity:1;stroke-miterlimit:4;" d="M 1.260417 26.572917 C 5.916667 26.572917 10.255208 28.598958 13.510417 31.895833 C 15.973958 34.395833 19.755208 36 24 36 C 28.244792 36 32.026042 34.395833 34.489583 31.895833 C 37.744792 28.598958 42.083333 26.572917 46.739583 26.572917 " transform="matrix(0.75,0,0,0.75,0,0)"/>
<path style="fill:none;stroke-width:2;stroke-linecap:butt;stroke-linejoin:miter;stroke:rgb(95.686275%,31.764707%,11.764706%);stroke-opacity:1;stroke-miterlimit:4;" d="M 46.739583 23.427083 C 42.083333 23.427083 37.744792 21.401042 34.489583 18.104167 C 32.026042 15.604167 28.244792 14 24 14 C 19.755208 14 15.973958 15.604167 13.510417 18.104167 C 10.255208 21.401042 5.916667 23.427083 1.260417 23.427083 " transform="matrix(0.75,0,0,0.75,0,0)"/>
<path style="fill:none;stroke-width:2;stroke-linecap:butt;stroke-linejoin:miter;stroke:rgb(95.686275%,31.764707%,11.764706%);stroke-opacity:1;stroke-miterlimit:4;" d="M 1.260417 26 C 5.916667 26 10.255208 27.286458 13.510417 29.390625 C 15.973958 30.979167 19.755208 32 24 32 C 28.244792 32 32.026042 30.979167 34.489583 29.390625 C 37.744792 27.286458 42.083333 26 46.739583 26 " transform="matrix(0.75,0,0,0.75,0,0)"/>
<path style="fill:none;stroke-width:2;stroke-linecap:butt;stroke-linejoin:miter;stroke:rgb(95.686275%,31.764707%,11.764706%);stroke-opacity:1;stroke-miterlimit:4;" d="M 46.739583 24 C 42.083333 24 37.744792 22.713542 34.489583 20.609375 C 32.026042 19.020833 28.244792 18 24 18 C 19.755208 18 15.973958 19.020833 13.510417 20.609375 C 10.255208 22.713542 5.916667 24 1.260417 24 " transform="matrix(0.75,0,0,0.75,0,0)"/>
<path style="fill:none;stroke-width:2;stroke-linecap:butt;stroke-linejoin:miter;stroke:rgb(95.686275%,31.764707%,11.764706%);stroke-opacity:1;stroke-miterlimit:4;" d="M 1.260417 25.427083 C 5.916667 25.427083 10.255208 25.984375 13.510417 26.880208 C 15.973958 27.5625 19.755208 28 24 28 C 28.244792 28 32.026042 27.5625 34.489583 26.880208 C 37.744792 25.979167 42.083333 25.427083 46.739583 25.427083 " transform="matrix(0.75,0,0,0.75,0,0)"/>
<path style="fill:none;stroke-width:2;stroke-linecap:butt;stroke-linejoin:miter;stroke:rgb(95.686275%,31.764707%,11.764706%);stroke-opacity:1;stroke-miterlimit:4;" d="M 46.739583 24.572917 C 42.083333 24.572917 37.744792 24.015625 34.489583 23.119792 C 32.026042 22.4375 28.244792 22 24 22 C 19.755208 22 15.973958 22.4375 13.510417 23.119792 C 10.255208 24.020833 5.916667 24.572917 1.260417 24.572917 " transform="matrix(0.75,0,0,0.75,0,0)"/>
<path style=" stroke:none;fill-rule:nonzero;fill:rgb(95.686275%,31.764707%,11.764706%);fill-opacity:1;" d="M 34.5 16.820312 L 36 16.820312 L 36 20.671875 L 34.5 20.671875 Z M 34.5 16.820312 "/>
<path style=" stroke:none;fill-rule:nonzero;fill:rgb(95.686275%,31.764707%,11.764706%);fill-opacity:1;" d="M 0 16.816406 L 1.5 16.816406 L 1.5 20.671875 L 0 20.671875 Z M 0 16.816406 "/>
</g>
</svg>
