<?xml version="1.0" encoding="UTF-8"?>
<svg xmlns="http://www.w3.org/2000/svg" xmlns:xlink="http://www.w3.org/1999/xlink" width="36pt" height="36pt" viewBox="0 0 36 36" version="1.1">
<g id="surface29163">
<path style=" stroke:none;fill-rule:nonzero;fill:rgb(100%,71.764708%,30.19608%);fill-opacity:1;" d="M 28.507812 15.035156 L 28.507812 13.917969 C 28.507812 13.339844 28.777344 12.808594 29.207031 12.421875 C 30.304688 11.429688 30.96875 9.976562 30.902344 8.371094 C 30.78125 5.644531 28.492188 3.382812 25.761719 3.457031 C 22.984375 3.535156 20.753906 5.808594 20.753906 8.605469 C 20.753906 10.511719 21.710938 11.859375 23.25 12.75 L 23.25 15.035156 C 23.25 15.8125 22.746094 16.480469 22.015625 16.746094 C 21.449219 16.949219 21.027344 17.324219 20.25 18 L 17.035156 26.242188 C 18 30 19.5 30 19.5 33 L 32.25 33 L 32.25 18 C 32.25 18 31.316406 17.066406 29.824219 16.675781 C 29.0625 16.472656 28.507812 15.820312 28.507812 15.035156 Z M 28.507812 15.035156 "/>
<path style=" stroke:none;fill-rule:nonzero;fill:rgb(100%,71.764708%,30.19608%);fill-opacity:1;" d="M 14.316406 17.792969 C 16.378906 16.238281 18.859375 15.851562 20.25 18 C 20.25 21.902344 20.460938 25.601562 16.917969 25.601562 C 16.675781 24.25 16.484375 23.867188 15.617188 23.867188 C 14.75 23.867188 14.617188 24.625 12.148438 24.734375 C 10.664062 24.796875 8.675781 24.300781 6.941406 23 C 5.730469 22.089844 3.472656 19.960938 3.039062 19.09375 C 2.871094 18.757812 3.203125 17.058594 4.078125 15.101562 C 5.40625 12.140625 6.496094 10.910156 7.292969 9.984375 C 8.527344 8.738281 9.546875 8.25 9.980469 8.25 C 10.414062 8.25 13.023438 8.6875 13.449219 9.117188 C 13.882812 9.550781 13.78125 9.78125 13.882812 10.417969 C 13.984375 11.058594 13.777344 11.316406 13.5625 11.710938 C 13.488281 11.847656 13.25 12.117188 13.042969 11.9375 C 12.925781 12.148438 12.464844 12.28125 12.292969 11.988281 C 12.132812 12.257812 11.671875 12.140625 11.566406 11.945312 C 11.402344 12.203125 11.046875 11.917969 10.9375 11.804688 C 10.855469 11.722656 10.75 11.601562 10.683594 11.472656 C 10.667969 11.457031 10.472656 10.96875 10.683594 10.921875 C 10.246094 11.015625 10.066406 10.921875 9.757812 11.234375 C 9.449219 11.542969 8.628906 12.265625 8.675781 13.707031 C 8.730469 15.355469 8.242188 16.492188 7.808594 16.925781 C 7.808594 16.925781 8.242188 16.925781 8.675781 16.925781 C 9.816406 16.085938 11.714844 15.191406 14.316406 17.792969 Z M 14.316406 17.792969 "/>
<path style=" stroke:none;fill-rule:nonzero;fill:rgb(97.647059%,65.882355%,14.509805%);fill-opacity:1;" d="M 20.25 18 C 18.890625 15.863281 16.378906 16.238281 14.316406 17.792969 C 14.316406 17.792969 15.21875 19.222656 15.65625 21.390625 C 16.089844 19.222656 18.082031 17.566406 20.25 18 Z M 12.417969 16.402344 C 12.417969 16.402344 12.414062 16.398438 12.414062 16.394531 C 10.808594 15.660156 9.542969 16.285156 8.675781 16.925781 C 8.242188 16.925781 7.808594 16.925781 7.808594 16.925781 C 7.808594 16.925781 7.808594 20.828125 12.203125 22.183594 C 12.203125 22.183594 8.75 20.105469 9.980469 17.792969 C 10.847656 16.058594 11.984375 16.402344 12.417969 16.402344 Z M 12.417969 16.402344 "/>
<path style=" stroke:none;fill-rule:nonzero;fill:rgb(97.647059%,65.882355%,14.509805%);fill-opacity:1;" d="M 16.429688 19.363281 L 15.617188 19.09375 C 15.617188 19.09375 15.332031 18.683594 15.617188 20.394531 C 15.945312 22.347656 14.804688 23.757812 12.039062 23.8125 C 12.039062 23.8125 9.027344 23.714844 5.078125 21.167969 C 5.914062 21.875 6.375 22.570312 6.945312 22.996094 C 8.679688 24.300781 10.664062 24.796875 12.148438 24.734375 C 14.617188 24.625 14.75 23.863281 15.617188 23.863281 C 16.488281 23.863281 16.949219 26.554688 17.761719 28.316406 C 18.632812 28.316406 19.234375 28.351562 19.683594 27.9375 C 19.683594 27.269531 19.761719 26.519531 19.429688 25.980469 C 18 23.683594 15.589844 21.300781 16.429688 19.363281 Z M 16.429688 19.363281 "/>
<path style=" stroke:none;fill-rule:nonzero;fill:rgb(97.647059%,65.882355%,14.509805%);fill-opacity:1;" d="M 6.941406 22.996094 C 7.570312 23.46875 8.234375 23.832031 8.894531 24.105469 C 9.730469 24.167969 10.664062 24.105469 11.714844 23.867188 C 8.570312 23.324219 7.191406 21.226562 6.066406 20.164062 C 3.585938 17.828125 4.882812 16.503906 6.074219 13.671875 C 7.015625 11.4375 7.347656 10.046875 8.199219 9.167969 C 8.074219 9.269531 7.941406 9.382812 7.808594 9.5 C 7.789062 9.515625 7.773438 9.527344 7.757812 9.542969 C 7.605469 9.679688 7.453125 9.824219 7.292969 9.984375 C 6.496094 10.910156 5.40625 12.140625 4.078125 15.101562 C 3.203125 17.058594 2.867188 18.757812 3.039062 19.09375 C 3.472656 19.960938 5.730469 22.089844 6.941406 22.996094 Z M 6.941406 22.996094 "/>
<path style=" stroke:none;fill-rule:nonzero;fill:rgb(100%,71.764708%,30.19608%);fill-opacity:1;" d="M 24.1875 10.320312 L 20.753906 10.320312 L 21.054688 13.1875 C 21.125 13.847656 21.75 14.34375 22.445312 14.25 L 24.1875 13.992188 C 24.1875 13.996094 24.1875 10.320312 24.1875 10.320312 Z M 24.1875 10.320312 "/>
<path style=" stroke:none;fill-rule:nonzero;fill:rgb(100%,71.764708%,30.19608%);fill-opacity:1;" d="M 19.839844 10.78125 L 21.503906 11.195312 L 21.917969 9.117188 L 21.503906 7.453125 C 21.503906 7.453125 20.523438 8.917969 19.835938 9.710938 C 19.078125 10.589844 19.839844 10.78125 19.839844 10.78125 Z M 19.839844 10.78125 "/>
<path style=" stroke:none;fill-rule:nonzero;fill:rgb(42.745098%,29.803923%,25.490198%);fill-opacity:1;" d="M 25.902344 3.027344 C 24.4375 3.027344 22.933594 3.472656 22.042969 4.28125 C 22.042969 5.222656 23.253906 6.886719 24.617188 6.886719 L 25.046875 8.605469 L 25.640625 8.84375 C 25.859375 8.445312 26.277344 8.175781 26.761719 8.175781 C 27.472656 8.175781 28.050781 8.75 28.050781 9.460938 C 28.050781 10.023438 27.691406 10.539062 27.125 10.652344 L 27.125 12.832031 L 28.507812 13.917969 C 28.902344 12.210938 31.484375 11.875 31.484375 8.605469 C 31.480469 5.523438 28.984375 3.027344 25.902344 3.027344 Z M 25.902344 3.027344 "/>
<path style=" stroke:none;fill-rule:nonzero;fill:rgb(97.647059%,65.882355%,14.509805%);fill-opacity:1;" d="M 26.039062 13.746094 L 23.253906 14.128906 L 23.25 14.144531 L 23.25 15.035156 C 23.25 15.289062 23.25 15.75 22.5 16.5 C 22.5 16.5 25.5 15.75 26.039062 13.746094 Z M 26.039062 13.746094 "/>
<path style=" stroke:none;fill-rule:nonzero;fill:rgb(93.725491%,40.000001%,20.392157%);fill-opacity:1;" d="M 30.003906 16.738281 L 30 18.011719 C 30 20.082031 28.320312 21.761719 26.25 21.761719 C 24.179688 21.761719 22.5 20.082031 22.5 18.011719 L 22.5 16.5 C 22.359375 16.601562 22.183594 16.699219 22.015625 16.757812 C 21.449219 16.964844 20.753906 17.351562 20.25 18.011719 C 20.25 18.011719 20.847656 25.195312 17.761719 28.332031 C 18.613281 30.167969 19.5 30.703125 19.5 33.011719 L 32.25 33.011719 L 32.25 18.011719 C 32.25 18.011719 31.390625 17.15625 30.003906 16.738281 Z M 30.003906 16.738281 "/>
</g>
</svg>
