<?xml version="1.0" encoding="UTF-8"?>
<svg xmlns="http://www.w3.org/2000/svg" xmlns:xlink="http://www.w3.org/1999/xlink" width="36pt" height="36pt" viewBox="0 0 36 36" version="1.1">
<g id="surface19072">
<path style=" stroke:none;fill-rule:nonzero;fill:rgb(100%,59.607846%,0%);fill-opacity:1;" d="M 29.3125 17.503906 C 29.183594 17.488281 29.054688 17.476562 28.925781 17.460938 C 28.984375 17.511719 29.039062 17.546875 29.097656 17.585938 C 29.632812 18.023438 30.070312 18.574219 30.414062 19.171875 C 30.773438 19.757812 30.929688 20.4375 31.050781 21.089844 C 31.078125 21.277344 30.949219 21.460938 30.757812 21.496094 C 30.578125 21.523438 30.398438 21.417969 30.355469 21.25 L 30.34375 21.210938 C 30.179688 20.640625 30 20.089844 29.648438 19.625 C 29.3125 19.15625 28.917969 18.738281 28.433594 18.414062 C 27.953125 18.078125 27.425781 17.820312 26.867188 17.617188 L 26.851562 17.609375 C 26.167969 17.363281 25.386719 17.652344 25.066406 18.292969 C 24.699219 19.023438 24.484375 19.792969 24.398438 20.59375 C 24.265625 21.761719 24.65625 22.9375 25.453125 23.820312 C 26.152344 24.597656 27.066406 25.558594 27.746094 26.054688 C 28.375 26.511719 29.046875 26.910156 29.765625 27.175781 C 30.480469 27.441406 31.238281 27.574219 31.960938 27.433594 C 32.167969 27.398438 32.351562 27.519531 32.386719 27.707031 C 32.425781 27.890625 32.308594 28.066406 32.136719 28.113281 C 31.242188 28.351562 30.3125 28.253906 29.484375 28.007812 C 28.640625 27.757812 27.859375 27.371094 27.136719 26.921875 C 27.039062 26.859375 26.953125 26.789062 26.851562 26.726562 C 27.003906 27.179688 27.117188 27.644531 27.175781 28.121094 C 27.265625 28.925781 27.203125 29.746094 26.980469 30.507812 C 26.925781 30.695312 26.730469 30.800781 26.539062 30.753906 C 26.359375 30.695312 26.253906 30.515625 26.289062 30.339844 C 26.585938 28.945312 26.246094 27.515625 25.535156 26.285156 C 25.242188 25.765625 24.894531 25.28125 24.507812 24.8125 L 24.492188 24.800781 C 23.59375 23.910156 22.304688 23.476562 21.039062 23.671875 C 20.164062 23.804688 19.316406 24.066406 18.570312 24.449219 C 17.753906 24.875 17.296875 25.78125 17.449219 26.667969 C 17.457031 26.710938 17.460938 26.746094 17.46875 26.78125 C 17.613281 27.34375 17.835938 27.859375 18.148438 28.300781 C 18.472656 28.742188 18.898438 29.070312 19.457031 29.402344 C 19.730469 29.5625 20.035156 29.757812 20.300781 30.015625 C 20.585938 30.277344 20.757812 30.632812 20.878906 30.976562 C 20.945312 31.160156 20.851562 31.363281 20.660156 31.425781 C 20.480469 31.480469 20.285156 31.398438 20.214844 31.222656 L 20.203125 31.203125 C 20 30.703125 19.601562 30.429688 19.015625 30.15625 C 18.449219 29.890625 17.789062 29.507812 17.320312 28.960938 C 17.167969 28.792969 17.035156 28.609375 16.910156 28.421875 C 16.890625 28.460938 16.875 28.511719 16.855469 28.554688 C 16.652344 28.925781 16.453125 29.191406 16.375 29.429688 C 16.195312 29.925781 16.398438 30.480469 16.761719 31.132812 C 16.925781 31.460938 17.105469 31.832031 17.199219 32.238281 C 17.28125 32.652344 17.261719 33.085938 17.167969 33.476562 C 17.125 33.667969 16.933594 33.785156 16.746094 33.738281 C 16.5625 33.703125 16.4375 33.519531 16.46875 33.335938 C 16.582031 32.691406 16.375 32.148438 15.988281 31.542969 C 15.800781 31.242188 15.582031 30.914062 15.445312 30.492188 C 15.300781 30.085938 15.253906 29.617188 15.367188 29.15625 C 15.402344 29.015625 15.453125 28.890625 15.5 28.769531 C 15.328125 28.894531 15.160156 29 14.988281 29.09375 C 14.65625 29.28125 14.316406 29.429688 14.007812 29.578125 C 13.769531 29.667969 13.5625 29.828125 13.390625 30.050781 C 13.042969 30.492188 12.839844 31.144531 12.777344 31.746094 L 12.777344 31.78125 C 12.753906 31.972656 12.585938 32.117188 12.382812 32.097656 C 12.207031 32.078125 12.070312 31.929688 12.0625 31.746094 C 12.0625 30.992188 12.175781 30.25 12.597656 29.535156 C 12.8125 29.183594 13.128906 28.855469 13.519531 28.636719 C 13.835938 28.46875 14.128906 28.316406 14.394531 28.140625 C 14.921875 27.796875 15.308594 27.390625 15.515625 26.875 C 15.53125 26.832031 15.542969 26.789062 15.558594 26.742188 C 15.816406 25.753906 15.394531 24.714844 14.578125 24.085938 C 14.234375 23.8125 13.878906 23.5625 13.648438 23.449219 C 13.605469 23.429688 13.527344 23.398438 13.425781 23.371094 C 12.195312 23.019531 10.875 23.152344 9.722656 23.722656 C 9.621094 23.769531 9.566406 23.800781 9.558594 23.800781 C 8.992188 24.085938 8.445312 24.429688 8.035156 24.84375 C 7.835938 25.046875 7.671875 25.261719 7.578125 25.480469 C 7.535156 25.597656 7.519531 25.683594 7.507812 25.816406 C 7.484375 26.027344 7.449219 26.230469 7.386719 26.425781 C 7.105469 27.214844 6.511719 27.75 5.8125 28.085938 C 5.640625 28.175781 5.425781 28.105469 5.339844 27.929688 C 5.253906 27.769531 5.3125 27.574219 5.460938 27.484375 L 5.496094 27.460938 C 5.976562 27.167969 6.390625 26.671875 6.484375 26.179688 C 6.511719 26.054688 6.511719 25.929688 6.511719 25.800781 C 6.511719 25.605469 6.535156 25.359375 6.597656 25.164062 C 6.726562 24.75 6.957031 24.414062 7.199219 24.121094 C 7.347656 23.945312 7.507812 23.792969 7.664062 23.644531 C 7.214844 23.5 6.796875 23.300781 6.441406 23.140625 C 5.769531 22.847656 5.191406 22.730469 4.574219 23.03125 C 3.953125 23.289062 3.417969 23.839844 2.878906 24.359375 L 2.859375 24.382812 C 2.714844 24.519531 2.492188 24.519531 2.351562 24.382812 C 2.222656 24.25 2.214844 24.039062 2.335938 23.90625 C 2.871094 23.308594 3.375 22.664062 4.175781 22.246094 C 4.375 22.140625 4.601562 22.070312 4.816406 21.984375 C 5.046875 21.949219 5.289062 21.886719 5.527344 21.902344 C 6.011719 21.902344 6.449219 22.035156 6.835938 22.167969 C 7.613281 22.449219 8.25 22.6875 8.875 22.628906 C 8.980469 22.621094 9.09375 22.59375 9.203125 22.574219 L 9.214844 22.566406 C 9.558594 22.371094 9.847656 22.105469 10.054688 21.78125 C 10.261719 21.460938 10.382812 21.097656 10.402344 20.703125 C 10.460938 19.820312 10.3125 18.964844 9.96875 18.15625 C 9.722656 17.578125 9.339844 17.175781 8.859375 16.824219 C 8.851562 16.824219 8.851562 16.824219 8.851562 16.824219 C 8.75 16.746094 8.644531 16.671875 8.53125 16.601562 C 8.53125 16.601562 7.878906 16.179688 7.371094 15.933594 C 7.09375 15.828125 6.820312 15.722656 6.542969 15.632812 C 5.949219 15.445312 5.363281 15.324219 4.816406 15.421875 C 4.265625 15.507812 3.710938 15.816406 3.144531 16.136719 C 2.972656 16.242188 2.75 16.1875 2.652344 16.019531 C 2.558594 15.863281 2.601562 15.660156 2.75 15.554688 C 3.296875 15.179688 3.875 14.757812 4.625 14.566406 C 5.089844 14.441406 5.546875 14.441406 6 14.492188 C 5.589844 13.921875 5.253906 13.335938 4.925781 12.78125 C 4.738281 12.464844 4.546875 12.1875 4.339844 11.941406 C 4.117188 11.722656 3.894531 11.582031 3.625 11.554688 L 3.589844 11.554688 C 3.394531 11.535156 3.253906 11.359375 3.273438 11.164062 C 3.296875 10.988281 3.445312 10.855469 3.625 10.855469 C 4.125 10.847656 4.582031 11.09375 4.902344 11.386719 C 5.210938 11.679688 5.460938 11.996094 5.675781 12.304688 C 6.121094 12.929688 6.515625 13.523438 6.984375 14.042969 C 7.300781 14.390625 7.652344 14.691406 8.023438 14.945312 C 8.136719 14.980469 8.246094 15.015625 8.359375 15.050781 C 9.125 15.300781 9.976562 15.261719 10.691406 14.890625 C 10.71875 14.875 10.746094 14.859375 10.777344 14.847656 C 12.414062 13.984375 13.492188 12.898438 14.03125 11.511719 C 14.117188 11.289062 14.1875 11.066406 14.246094 10.828125 C 14.253906 10.261719 13.996094 9.71875 13.535156 9.382812 C 13.316406 9.222656 13.066406 9.089844 12.808594 8.957031 C 12.585938 8.835938 12.433594 8.78125 12.207031 8.65625 C 11.753906 8.417969 11.339844 8.101562 10.984375 7.78125 C 10.632812 7.449219 10.332031 7.128906 10.003906 6.871094 C 9.683594 6.601562 9.324219 6.398438 8.921875 6.238281 C 8.738281 6.160156 8.652344 5.953125 8.730469 5.777344 C 8.800781 5.609375 8.980469 5.523438 9.152344 5.574219 C 9.625 5.691406 10.097656 5.890625 10.527344 6.15625 C 10.949219 6.414062 11.3125 6.722656 11.671875 6.96875 C 12.179688 7.339844 12.722656 7.570312 13.308594 7.730469 C 13.015625 7.269531 12.613281 6.820312 12.207031 6.328125 C 11.785156 5.824219 11.371094 5.265625 11.09375 4.621094 C 10.808594 3.976562 10.691406 3.269531 10.714844 2.589844 C 10.722656 2.394531 10.886719 2.246094 11.085938 2.253906 C 11.273438 2.253906 11.414062 2.402344 11.429688 2.578125 C 11.472656 3.179688 11.621094 3.738281 11.902344 4.242188 C 12.171875 4.75 12.566406 5.1875 13.007812 5.628906 C 13.382812 6.007812 13.796875 6.394531 14.183594 6.847656 C 14.3125 6.546875 14.441406 6.261719 14.546875 6 C 14.695312 5.652344 14.769531 5.363281 14.703125 5.070312 C 14.648438 4.769531 14.445312 4.453125 14.203125 4.167969 C 14.070312 4 14.089844 3.78125 14.242188 3.65625 C 14.375 3.542969 14.578125 3.550781 14.710938 3.667969 C 15.042969 3.96875 15.382812 4.328125 15.5625 4.824219 C 15.761719 5.328125 15.691406 5.890625 15.578125 6.316406 C 15.457031 6.765625 15.328125 7.144531 15.25 7.507812 C 15.167969 7.871094 14.96875 8.195312 15.148438 9.042969 L 15.21875 9.257812 C 15.367188 9.691406 15.683594 10.058594 16.089844 10.273438 C 17.355469 10.960938 18.601562 11.246094 20.152344 10.96875 C 21.074219 10.808594 21.917969 10.339844 22.542969 9.644531 C 22.707031 9.460938 22.871094 9.265625 23.019531 9.070312 C 23.472656 8.445312 23.859375 7.765625 24.195312 7.058594 C 24.53125 6.351562 24.800781 5.609375 25.046875 4.851562 C 25.273438 4.105469 25.472656 3.320312 25.601562 2.550781 C 25.640625 2.347656 25.824219 2.21875 26.019531 2.253906 C 26.203125 2.28125 26.332031 2.453125 26.316406 2.632812 C 26.234375 3.464844 26.089844 4.273438 25.902344 5.078125 C 25.730469 5.828125 25.511719 6.570312 25.246094 7.296875 C 25.453125 7.261719 25.667969 7.207031 25.867188 7.144531 C 26.320312 7.011719 26.746094 6.816406 27.148438 6.5625 C 27.542969 6.308594 27.914062 6.007812 28.214844 5.644531 C 28.542969 5.296875 28.785156 4.875 29.015625 4.449219 L 29.023438 4.425781 C 29.117188 4.25 29.332031 4.1875 29.507812 4.28125 C 29.667969 4.355469 29.738281 4.546875 29.671875 4.707031 C 29.480469 5.210938 29.257812 5.722656 28.929688 6.179688 C 28.484375 6.84375 27.863281 7.402344 27.175781 7.835938 C 26.890625 8.027344 26.582031 8.179688 26.269531 8.3125 C 25.746094 8.53125 25.246094 8.691406 24.617188 8.777344 C 24.429688 9.105469 24.257812 9.425781 24.066406 9.75 C 23.972656 9.882812 23.878906 10.023438 23.78125 10.15625 C 23.214844 10.949219 23.007812 11.964844 23.257812 12.894531 C 23.464844 13.671875 23.851562 14.335938 24.386719 14.910156 C 24.933594 15.492188 25.695312 15.816406 26.5 15.925781 C 26.5 15.925781 26.503906 15.925781 26.511719 15.925781 C 26.761719 15.941406 27.019531 15.949219 27.261719 15.933594 C 27.886719 15.90625 28.492188 15.785156 28.996094 15.535156 C 29.246094 15.410156 29.460938 15.242188 29.632812 15.042969 C 29.714844 14.945312 29.796875 14.839844 29.851562 14.722656 C 29.917969 14.617188 30.023438 14.398438 30.125 14.253906 C 30.554688 13.613281 31.148438 13.089844 31.957031 12.859375 C 32.148438 12.800781 32.339844 12.90625 32.398438 13.089844 C 32.449219 13.265625 32.363281 13.441406 32.199219 13.507812 L 32.148438 13.53125 C 31.660156 13.742188 31.203125 14.210938 30.96875 14.722656 C 30.890625 14.863281 30.867188 14.96875 30.78125 15.15625 C 30.695312 15.339844 30.597656 15.519531 30.46875 15.679688 C 30.230469 16.003906 29.917969 16.277344 29.589844 16.480469 C 30.855469 16.683594 32.167969 16.800781 33.207031 16.214844 C 33.386719 16.117188 33.609375 16.171875 33.707031 16.339844 C 33.800781 16.492188 33.75 16.695312 33.601562 16.800781 C 32.972656 17.242188 32.207031 17.445312 31.476562 17.515625 C 30.734375 17.59375 30.019531 17.558594 29.3125 17.503906 Z M 29.3125 17.503906 "/>
<path style=" stroke:none;fill-rule:nonzero;fill:rgb(100%,80.000001%,50.196081%);fill-opacity:1;" d="M 16.621094 24.199219 C 16.347656 23.707031 15.96875 23.265625 15.496094 22.902344 C 15.183594 22.652344 14.707031 22.296875 14.308594 22.105469 C 14.222656 22.058594 14.050781 21.992188 13.832031 21.929688 C 13.257812 21.765625 12.652344 21.683594 12.042969 21.683594 C 11.941406 21.683594 11.839844 21.683594 11.742188 21.6875 C 11.832031 21.398438 11.882812 21.097656 11.902344 20.789062 C 11.972656 19.695312 11.785156 18.609375 11.351562 17.574219 C 11.183594 17.183594 10.972656 16.828125 10.703125 16.503906 C 10.9375 16.429688 11.164062 16.335938 11.382812 16.222656 L 11.425781 16.203125 C 13.46875 15.128906 14.761719 13.78125 15.429688 12.058594 C 15.476562 11.933594 15.519531 11.8125 15.558594 11.695312 C 16.71875 12.292969 17.824219 12.578125 19.011719 12.578125 C 19.464844 12.578125 19.9375 12.535156 20.417969 12.445312 C 20.84375 12.371094 21.257812 12.25 21.652344 12.082031 C 21.648438 12.488281 21.699219 12.894531 21.804688 13.285156 C 22.070312 14.277344 22.570312 15.167969 23.289062 15.9375 C 23.597656 16.269531 23.960938 16.550781 24.363281 16.78125 C 24.101562 17.015625 23.886719 17.300781 23.722656 17.628906 C 23.289062 18.492188 23.015625 19.4375 22.90625 20.433594 C 22.835938 21.0625 22.875 21.695312 23.015625 22.304688 C 22.570312 22.191406 22.105469 22.128906 21.644531 22.128906 C 21.363281 22.128906 21.082031 22.152344 20.808594 22.195312 C 19.757812 22.355469 18.742188 22.675781 17.882812 23.121094 C 17.371094 23.386719 16.941406 23.761719 16.621094 24.199219 Z M 16.621094 24.199219 "/>
<path style=" stroke:none;fill-rule:nonzero;fill:rgb(70.19608%,61.56863%,85.882354%);fill-opacity:1;" d="M 21.75 18 C 21.75 20.070312 20.070312 21.75 18 21.75 C 15.929688 21.75 14.25 20.070312 14.25 18 C 14.25 15.929688 15.929688 14.25 18 14.25 C 20.070312 14.25 21.75 15.929688 21.75 18 Z M 21.75 18 "/>
<path style=" stroke:none;fill-rule:nonzero;fill:rgb(40.392157%,22.745098%,71.764708%);fill-opacity:1;" d="M 20.25 19.875 C 20.25 20.910156 19.410156 21.75 18.375 21.75 C 17.339844 21.75 16.5 20.910156 16.5 19.875 C 16.5 18.839844 17.339844 18 18.375 18 C 19.410156 18 20.25 18.839844 20.25 19.875 Z M 20.25 19.875 "/>
</g>
</svg>
