<?xml version="1.0" encoding="UTF-8"?>
<svg xmlns="http://www.w3.org/2000/svg" xmlns:xlink="http://www.w3.org/1999/xlink" width="36pt" height="36pt" viewBox="0 0 36 36" version="1.1">
<g id="surface19205">
<path style=" stroke:none;fill-rule:nonzero;fill:rgb(97.254902%,73.333335%,81.568629%);fill-opacity:1;" d="M 33.75 13.875 C 33.75 12.386719 32.78125 11.136719 31.445312 10.6875 C 31.191406 9.015625 29.839844 7.714844 28.140625 7.539062 C 27.414062 5.757812 25.667969 4.5 23.625 4.5 C 22.550781 4.5 21.566406 4.851562 20.757812 5.4375 C 19.933594 4.410156 18.671875 3.75 17.25 3.75 C 15.988281 3.75 14.851562 4.269531 14.035156 5.105469 C 13.445312 4.726562 12.75 4.5 12 4.5 C 10.40625 4.5 9.050781 5.5 8.507812 6.90625 C 8.1875 6.816406 7.851562 6.75 7.5 6.75 C 5.429688 6.75 3.75 8.429688 3.75 10.5 C 3.75 10.875 3.820312 11.230469 3.925781 11.570312 C 2.933594 12.0625 2.25 13.070312 2.25 14.25 C 2.25 15.152344 2.65625 15.949219 3.285156 16.5 C 2.65625 17.050781 2.25 17.847656 2.25 18.75 C 2.25 19.894531 2.898438 20.875 3.839844 21.382812 C 3.785156 21.621094 3.75 21.867188 3.75 22.125 C 3.75 23.988281 5.261719 25.5 7.125 25.5 C 7.136719 25.5 7.152344 25.496094 7.164062 25.496094 C 7.492188 26.058594 7.992188 26.511719 8.597656 26.765625 L 7.5 32.25 L 12 32.25 L 12.585938 30.496094 C 13.132812 28.855469 14.25 27.75 16.5 27.75 C 18.25 27.75 19.710938 26.785156 20.121094 25.488281 C 20.164062 25.488281 20.207031 25.5 20.25 25.5 C 21.441406 25.5 22.457031 24.800781 22.941406 23.800781 C 23.273438 23.921875 23.625 24 24 24 C 25.191406 24 26.207031 23.300781 26.691406 22.300781 C 27.023438 22.421875 27.375 22.5 27.75 22.5 C 28.859375 22.5 29.816406 21.890625 30.335938 20.996094 C 30.347656 20.996094 30.363281 21 30.375 21 C 32.238281 21 33.75 19.488281 33.75 17.625 C 33.75 16.929688 33.539062 16.285156 33.179688 15.75 C 33.539062 15.214844 33.75 14.570312 33.75 13.875 Z M 33.75 13.875 "/>
<path style=" stroke:none;fill-rule:nonzero;fill:rgb(94.117647%,38.431373%,57.254905%);fill-opacity:1;" d="M 33.75 13.875 C 33.75 12.421875 32.800781 11.148438 31.457031 10.691406 C 31.210938 9.042969 29.890625 7.746094 28.234375 7.53125 C 27.566406 5.746094 25.71875 4.5 23.625 4.5 C 22.632812 4.5 21.683594 4.773438 20.878906 5.28125 C 20.046875 4.332031 18.703125 3.75 17.25 3.75 C 15.9375 3.75 14.730469 4.214844 13.886719 5.019531 C 13.316406 4.679688 12.664062 4.5 12 4.5 C 10.421875 4.5 9.058594 5.480469 8.515625 6.898438 C 7.855469 6.703125 7.152344 6.703125 6.472656 6.894531 C 5.234375 7.246094 4.246094 8.234375 3.894531 9.472656 C 3.695312 10.171875 3.707031 10.894531 3.914062 11.574219 C 2.921875 12.070312 2.25 13.097656 2.25 14.25 C 2.25 15.046875 2.574219 15.800781 3.121094 16.351562 C 2.5625 17.019531 2.25 17.863281 2.25 18.75 C 2.25 19.945312 2.820312 21.050781 3.773438 21.753906 C 3.757812 21.878906 3.75 22.003906 3.75 22.125 C 3.75 24 5.300781 25.546875 7.164062 25.5 C 7.691406 26.417969 8.667969 27 9.75 27 L 10.511719 27 L 9.03125 32.039062 C 9.007812 32.109375 9.011719 32.179688 9.011719 32.25 L 10.53125 32.25 L 13.675781 21.558594 C 13.902344 20.789062 14.621094 20.25 15.425781 20.25 C 16.433594 20.25 17.25 21.066406 17.25 22.074219 L 17.25 22.5 C 17.25 22.535156 17.265625 22.566406 17.269531 22.601562 C 17.375 24.132812 18.539062 25.382812 20.023438 25.492188 C 20.101562 25.496094 20.175781 25.5 20.25 25.5 C 20.96875 25.5 21.65625 25.246094 22.203125 24.773438 C 22.519531 24.5 22.769531 24.171875 22.941406 23.804688 C 23.277344 23.933594 23.636719 24 24 24 C 25.65625 24 27 22.65625 27 21 C 27 20.585938 26.664062 20.25 26.25 20.25 C 25.835938 20.25 25.5 20.585938 25.5 21 C 25.5 21.828125 24.828125 22.5 24 22.5 C 23.726562 22.5 23.460938 22.421875 23.226562 22.277344 C 23.203125 22.050781 23.160156 21.808594 23.058594 21.570312 C 23.058594 21.171875 23.199219 20.613281 23.78125 20.03125 C 24.074219 19.734375 24.074219 19.261719 23.78125 18.96875 C 23.488281 18.675781 23.011719 18.675781 22.71875 18.96875 C 22.246094 19.441406 21.953125 19.917969 21.78125 20.367188 C 21.554688 20.292969 21.292969 20.25 21 20.25 C 20.585938 20.25 20.25 20.585938 20.25 21 C 20.25 21.414062 20.585938 21.75 21 21.75 C 21.296875 21.75 21.480469 21.847656 21.589844 21.988281 C 21.625 22.25 21.683594 22.457031 21.734375 22.605469 C 21.707031 23.007812 21.523438 23.375 21.21875 23.636719 C 20.921875 23.898438 20.53125 24.027344 20.132812 23.996094 C 19.371094 23.941406 18.75 23.214844 18.75 22.382812 L 18.75 22.074219 C 18.75 20.242188 17.257812 18.75 15.425781 18.75 C 13.960938 18.75 12.648438 19.730469 12.238281 21.136719 L 10.953125 25.5 L 9.75 25.5 C 9.453125 25.5 9.179688 25.402344 8.941406 25.25 C 8.933594 25.21875 8.933594 25.191406 8.917969 25.164062 C 8.804688 24.929688 6.304688 19.71875 12.144531 14.902344 C 12.203125 15.023438 12.269531 15.140625 12.355469 15.261719 C 12.945312 16.082031 14.089844 16.5 15.75 16.5 C 16.164062 16.5 16.5 16.164062 16.5 15.75 C 16.5 15.335938 16.164062 15 15.75 15 C 14.257812 15 13.75 14.621094 13.578125 14.394531 C 13.464844 14.242188 13.4375 14.078125 13.4375 13.945312 C 15.535156 12.554688 17.453125 12.15625 19.132812 12.3125 C 18.699219 13.214844 18.632812 14.441406 19.71875 15.53125 C 19.867188 15.675781 20.058594 15.75 20.25 15.75 C 20.441406 15.75 20.632812 15.675781 20.78125 15.53125 C 21.074219 15.238281 21.074219 14.761719 20.78125 14.46875 C 19.996094 13.683594 20.429688 12.945312 20.695312 12.628906 C 21.792969 12.96875 22.757812 13.511719 23.554688 14.101562 C 23.886719 14.347656 24.355469 14.277344 24.601562 13.945312 C 24.851562 13.613281 24.777344 13.144531 24.445312 12.898438 C 23.277344 12.03125 21.457031 11.023438 19.199219 10.824219 C 19.539062 10.644531 20.101562 10.5 21 10.5 C 21.414062 10.5 21.75 10.164062 21.75 9.75 C 21.75 9.335938 21.414062 9 21 9 C 18.222656 9 17.503906 10.210938 17.316406 10.855469 C 15.78125 11.042969 14.101562 11.636719 12.320312 12.886719 C 10.441406 14.203125 9.171875 15.585938 8.332031 16.941406 C 7.976562 16.4375 7.8125 15.921875 7.839844 15.375 C 7.921875 13.855469 9.457031 12.597656 9.472656 12.582031 C 9.792969 12.324219 9.84375 11.851562 9.585938 11.53125 C 9.328125 11.207031 8.855469 11.15625 8.53125 11.414062 C 8.449219 11.480469 6.464844 13.089844 6.34375 15.285156 C 6.28125 16.398438 6.703125 17.4375 7.582031 18.378906 C 6.648438 20.582031 6.734375 22.605469 7.007812 23.988281 C 6.027344 23.925781 5.25 23.117188 5.25 22.125 C 5.25 21.972656 5.277344 21.804688 5.335938 21.605469 C 5.433594 21.261719 5.28125 20.898438 4.964844 20.730469 C 4.214844 20.339844 3.75 19.582031 3.75 18.75 C 3.75 18.011719 4.113281 17.320312 4.726562 16.898438 C 4.945312 16.746094 5.070312 16.488281 5.046875 16.21875 C 5.023438 15.953125 4.859375 15.71875 4.617188 15.601562 C 4.082031 15.351562 3.75 14.832031 3.75 14.25 C 3.75 13.511719 4.304688 12.878906 5.039062 12.773438 C 5.289062 12.738281 5.503906 12.582031 5.609375 12.355469 C 5.71875 12.128906 5.707031 11.863281 5.578125 11.648438 C 5.347656 11.265625 5.121094 10.648438 5.339844 9.882812 C 5.546875 9.152344 6.152344 8.542969 6.882812 8.335938 C 7.648438 8.121094 8.265625 8.347656 8.648438 8.578125 C 8.867188 8.707031 9.140625 8.71875 9.367188 8.605469 C 9.597656 8.488281 9.75 8.265625 9.777344 8.011719 C 9.898438 6.867188 10.855469 6 12 6 C 12.546875 6 13.078125 6.207031 13.5 6.585938 C 13.542969 6.625 13.597656 6.644531 13.648438 6.671875 C 13.882812 7.863281 13.246094 8.28125 13.152344 8.335938 C 12.789062 8.523438 12.644531 8.96875 12.828125 9.335938 C 12.960938 9.597656 13.226562 9.75 13.5 9.75 C 13.613281 9.75 13.726562 9.722656 13.835938 9.671875 C 14.527344 9.324219 15.625 8.125 15.035156 6.011719 C 15.597656 5.535156 16.394531 5.25 17.25 5.25 C 18.472656 5.25 19.59375 5.828125 20.046875 6.691406 C 20.152344 6.898438 20.351562 7.042969 20.578125 7.085938 C 20.808594 7.128906 21.042969 7.058594 21.214844 6.902344 C 21.855469 6.320312 22.710938 6 23.625 6 C 25.234375 6 26.625 7.019531 26.9375 8.421875 C 26.945312 8.460938 26.964844 8.492188 26.980469 8.527344 C 26.953125 8.722656 26.894531 8.910156 26.765625 9.003906 C 26.503906 9.195312 25.957031 9.109375 25.734375 9.039062 C 25.339844 8.90625 24.917969 9.121094 24.789062 9.511719 C 24.65625 9.90625 24.871094 10.332031 25.261719 10.460938 C 25.339844 10.488281 25.765625 10.621094 26.289062 10.621094 C 26.410156 10.621094 26.539062 10.609375 26.671875 10.59375 C 26.707031 11.570312 27.054688 12.289062 27.078125 12.335938 C 27.210938 12.597656 27.476562 12.75 27.75 12.75 C 27.863281 12.75 27.976562 12.722656 28.085938 12.671875 C 28.457031 12.484375 28.605469 12.035156 28.421875 11.664062 C 28.414062 11.652344 27.855469 10.46875 28.421875 9.335938 C 28.453125 9.269531 28.464844 9.199219 28.476562 9.132812 C 29.351562 9.433594 29.984375 10.246094 30 11.21875 C 29.996094 11.242188 29.996094 11.269531 29.996094 11.289062 C 29.996094 11.660156 30.269531 11.976562 30.640625 12.03125 C 31.558594 12.160156 32.25 12.953125 32.25 13.875 C 32.25 14.257812 32.132812 14.625 31.917969 14.933594 C 30.878906 14.765625 30.027344 14.898438 29.414062 15.378906 C 28.527344 16.074219 28.5 17.132812 28.5 17.25 C 28.5 17.660156 28.828125 17.988281 29.238281 17.992188 C 29.242188 17.992188 29.246094 17.992188 29.25 17.992188 C 29.65625 17.992188 29.988281 17.667969 30 17.261719 C 30 17.257812 30.015625 16.804688 30.34375 16.554688 C 30.636719 16.335938 31.144531 16.296875 31.800781 16.425781 C 32.085938 16.765625 32.25 17.179688 32.25 17.625 C 32.25 18.660156 31.410156 19.5 30.375 19.5 C 29.960938 19.5 29.625 19.835938 29.625 20.25 C 29.625 20.664062 29.960938 21 30.375 21 C 32.234375 21 33.75 19.484375 33.75 17.625 C 33.75 16.945312 33.550781 16.300781 33.179688 15.75 C 33.550781 15.199219 33.75 14.554688 33.75 13.875 Z M 33.75 13.875 "/>
</g>
</svg>
