<?xml version="1.0" encoding="UTF-8"?>
<svg xmlns="http://www.w3.org/2000/svg" xmlns:xlink="http://www.w3.org/1999/xlink" width="36pt" height="36pt" viewBox="0 0 36 36" version="1.1">
<g id="surface20307">
<path style=" stroke:none;fill-rule:nonzero;fill:rgb(91.37255%,11.764706%,38.82353%);fill-opacity:1;" d="M 5.953125 19.441406 C 2.941406 22.453125 2.875 27.269531 5.804688 30.199219 C 8.730469 33.125 13.546875 33.058594 16.558594 30.046875 L 23.300781 23.304688 L 12.695312 12.695312 Z M 5.953125 19.441406 "/>
<path style=" stroke:none;fill-rule:nonzero;fill:rgb(0%,73.725492%,83.137256%);fill-opacity:1;" d="M 30.199219 5.800781 C 27.269531 2.871094 22.453125 2.941406 19.441406 5.953125 L 12.695312 12.695312 L 23.300781 23.300781 L 30.046875 16.558594 C 33.058594 13.546875 33.125 8.730469 30.199219 5.800781 Z M 30.199219 5.800781 "/>
<path style=" stroke:none;fill-rule:nonzero;fill:rgb(0%,51.372552%,56.078434%);fill-opacity:1;" d="M 23.304688 23.304688 L 12.695312 12.695312 L 13.757812 11.636719 L 24.363281 22.242188 Z M 23.304688 23.304688 "/>
<path style=" stroke:none;fill-rule:nonzero;fill:rgb(98.823529%,89.411765%,92.54902%);fill-opacity:1;" d="M 14.144531 14.144531 L 7.25 21.035156 C 7.25 21.035156 3.390625 24.894531 7.25 28.75 C 7.585938 29.085938 7.957031 29.359375 8.355469 29.574219 C 5.320312 26.824219 9.175781 22.964844 9.175781 22.964844 L 16.070312 16.070312 Z M 14.144531 14.144531 "/>
<path style=" stroke:none;fill-rule:nonzero;fill:rgb(87.843138%,96.862745%,98.039216%);fill-opacity:1;" d="M 23.449219 8.695312 C 23.449219 8.695312 26.824219 5.320312 29.714844 8.210938 C 29.5 7.816406 29.226562 7.441406 28.890625 7.105469 C 24.894531 3.390625 21.519531 6.765625 21.519531 6.765625 L 14.144531 14.144531 L 16.070312 16.070312 Z M 23.449219 8.695312 "/>
<path style=" stroke:none;fill-rule:nonzero;fill:rgb(50.196081%,87.058824%,91.764706%);fill-opacity:1;" d="M 16.070312 16.070312 L 14.144531 14.140625 L 15.203125 13.082031 L 17.132812 15.011719 Z M 16.070312 16.070312 "/>
</g>
</svg>
