<?xml version="1.0" encoding="UTF-8"?>
<svg xmlns="http://www.w3.org/2000/svg" xmlns:xlink="http://www.w3.org/1999/xlink" width="36pt" height="36pt" viewBox="0 0 36 36" version="1.1">
<g id="surface20706">
<path style=" stroke:none;fill-rule:nonzero;fill:rgb(100%,71.764708%,30.19608%);fill-opacity:1;" d="M 21.757812 33 L 21.757812 29.546875 L 23.710938 29.921875 C 25.886719 30.375 27.914062 28.796875 28.0625 26.625 L 28.511719 21.75 L 30.6875 20.851562 C 31.4375 20.550781 31.738281 19.648438 31.289062 18.898438 L 28.511719 14.25 C 28.0625 8.546875 24.835938 3 16.507812 3 C 7.953125 3 3.75 9.296875 3.75 15.75 C 3.75 18.523438 4.726562 20.921875 6.226562 22.953125 C 7.578125 24.828125 8.253906 27.078125 8.253906 29.328125 L 8.253906 33 Z M 21.757812 33 "/>
<path style=" stroke:none;fill-rule:nonzero;fill:rgb(100%,34.117648%,13.333334%);fill-opacity:1;" d="M 17.625 15 C 19.695312 15 21.378906 13.316406 21.378906 11.25 C 21.378906 9.183594 19.695312 7.5 17.625 7.5 L 14.625 7.5 C 12.554688 7.5 10.871094 9.183594 10.871094 11.25 C 10.871094 13.316406 12.554688 15 14.625 15 L 15.375 15 L 15.375 24 C 15.375 24.414062 15.710938 24.75 16.125 24.75 C 16.539062 24.75 16.875 24.414062 16.875 24 L 16.875 22.5 L 19.128906 22.5 C 19.542969 22.5 19.878906 22.164062 19.878906 21.75 C 19.878906 21.335938 19.542969 21 19.128906 21 L 16.875 21 L 16.875 19.5 L 19.128906 19.5 C 19.542969 19.5 19.878906 19.164062 19.878906 18.75 C 19.878906 18.335938 19.542969 18 19.128906 18 L 16.875 18 L 16.875 15 Z M 12.371094 11.25 C 12.371094 10.007812 13.382812 9 14.625 9 L 17.625 9 C 18.867188 9 19.878906 10.007812 19.878906 11.25 C 19.878906 12.492188 18.867188 13.5 17.625 13.5 L 14.625 13.5 C 13.382812 13.5 12.371094 12.492188 12.371094 11.25 Z M 12.371094 11.25 "/>
</g>
</svg>
