<?xml version="1.0" encoding="UTF-8"?>
<svg xmlns="http://www.w3.org/2000/svg" xmlns:xlink="http://www.w3.org/1999/xlink" width="36pt" height="36pt" viewBox="0 0 36 36" version="1.1">
<g id="surface25889">
<path style=" stroke:none;fill-rule:nonzero;fill:rgb(80.784315%,58.039218%,0.784314%);fill-opacity:1;" d="M 17.25 8.625 C 17.25 6.375 16.5 4.203125 16.5 3.375 C 16.5 2.546875 18 3.375 18 3.375 C 18 3.375 19.5 2.546875 19.5 3.375 C 19.5 4.203125 18.75 6.375 18.75 8.625 "/>
<path style=" stroke:none;fill-rule:nonzero;fill:rgb(80.784315%,58.039218%,0.784314%);fill-opacity:1;" d="M 17.25 3.75 L 18.75 3.75 L 18.75 33 L 17.25 33 Z M 17.25 3.75 "/>
<path style=" stroke:none;fill-rule:nonzero;fill:rgb(100%,75.686276%,2.745098%);fill-opacity:1;" d="M 18.75 31.726562 C 19.074219 31.820312 19.335938 31.875 19.5 31.875 L 19.542969 29.625 C 19.371094 29.605469 19.082031 29.5 18.75 29.355469 Z M 18.75 31.726562 "/>
<path style=" stroke:none;fill-rule:nonzero;fill:rgb(100%,75.686276%,2.745098%);fill-opacity:1;" d="M 18.75 23.050781 L 18.75 25.386719 C 19.003906 25.460938 19.25 25.539062 19.457031 25.617188 C 18.863281 25.925781 17.886719 26.261719 17.339844 26.449219 C 15.703125 27.015625 14.625 27.386719 14.625 28.5 C 14.625 29.527344 15.953125 30.492188 17.25 31.125 L 17.25 28.863281 L 18.75 28.335938 L 18.75 28.339844 C 20.449219 27.734375 22.125 26.980469 22.125 25.5 C 22.125 24.050781 20.527344 23.539062 18.75 23.050781 Z M 19.28125 8.085938 C 19.28125 8.195312 20.277344 9.753906 21.507812 9.753906 C 22.738281 9.753906 24.625 9.117188 24.625 8.195312 C 24.625 7.273438 22.734375 6.484375 21.507812 6.414062 C 17.5 6.195312 19.28125 7.164062 19.28125 8.085938 Z M 19.28125 8.085938 "/>
<path style=" stroke:none;fill-rule:nonzero;fill:rgb(100%,75.686276%,2.745098%);fill-opacity:1;" d="M 17.25 14.695312 L 17.25 12.304688 C 15.726562 11.757812 13.570312 10.957031 13.136719 10.417969 C 13.167969 10.324219 13.242188 10.21875 13.363281 10.101562 C 14.453125 9.082031 17.859375 8.480469 20.179688 8.621094 C 21.757812 8.722656 22.128906 8.675781 22.503906 8.335938 L 22.875 7.535156 L 20.625 7.464844 C 20.644531 6.839844 21.15625 6.449219 21.515625 6.410156 C 21.492188 6.414062 21.25 6.433594 20.320312 6.378906 C 17.871094 6.226562 13.625 6.769531 11.824219 8.464844 C 11.039062 9.199219 10.875 9.976562 10.875 10.5 C 10.875 12.417969 13.519531 13.363281 16.871094 14.558594 C 16.992188 14.601562 17.121094 14.648438 17.25 14.695312 Z M 17.25 14.695312 "/>
<path style=" stroke:none;fill-rule:nonzero;fill:rgb(100%,75.686276%,2.745098%);fill-opacity:1;" d="M 18.75 12.84375 L 18.75 15.25 C 19.871094 15.683594 20.957031 16.160156 21.316406 16.53125 C 20.882812 17.015625 19.019531 17.691406 17.992188 18.066406 C 15.488281 18.980469 13.125 19.835938 13.125 21.75 C 13.125 23.664062 15.207031 24.398438 17.25 24.96875 L 17.25 22.621094 C 16.433594 22.371094 15.582031 22.058594 15.394531 21.769531 C 15.738281 21.28125 17.691406 20.570312 18.761719 20.183594 C 21.261719 19.269531 23.625 18.414062 23.625 16.5 C 23.625 14.800781 21.550781 13.867188 18.75 12.84375 Z M 18.75 12.84375 "/>
</g>
</svg>
