<?xml version="1.0" encoding="UTF-8"?>
<svg xmlns="http://www.w3.org/2000/svg" xmlns:xlink="http://www.w3.org/1999/xlink" width="36pt" height="36pt" viewBox="0 0 36 36" version="1.1">
<g id="surface27154">
<path style=" stroke:none;fill-rule:nonzero;fill:rgb(32.941177%,43.137255%,47.843137%);fill-opacity:1;" d="M 11.25 30.75 L 7.472656 30.75 C 7.242188 30.75 7.027344 30.648438 6.886719 30.46875 L 4.335938 27.28125 C 4.078125 26.957031 3.605469 26.90625 3.28125 27.164062 C 2.957031 27.421875 2.90625 27.894531 3.164062 28.21875 L 5.191406 30.75 L 1.5 30.75 L 1.5 32.25 L 11.25 32.25 C 11.664062 32.25 12 31.914062 12 31.5 C 12 31.085938 11.664062 30.75 11.25 30.75 Z M 11.25 30.75 "/>
<path style=" stroke:none;fill-rule:nonzero;fill:rgb(100%,72.941178%,34.117648%);fill-opacity:1;" d="M 27.75 3 C 26.09375 3 24.75 4.34375 24.75 6 C 24.75 7.65625 26.09375 9 27.75 9 C 29.40625 9 30.75 7.65625 30.75 6 C 30.75 4.34375 29.40625 3 27.75 3 "/>
<path style=" stroke:none;fill-rule:nonzero;fill:rgb(100%,72.941178%,34.117648%);fill-opacity:1;" d="M 7.5 30.75 C 7.160156 30.75 6.820312 30.636719 6.539062 30.402344 C 5.902344 29.871094 5.816406 28.925781 6.347656 28.289062 L 13.847656 19.289062 C 14.378906 18.652344 15.324219 18.566406 15.960938 19.097656 C 16.597656 19.628906 16.683594 20.574219 16.152344 21.210938 L 8.652344 30.210938 C 8.355469 30.566406 7.929688 30.75 7.5 30.75 Z M 7.5 30.75 "/>
<path style=" stroke:none;fill-rule:nonzero;fill:rgb(100%,72.941178%,34.117648%);fill-opacity:1;" d="M 18 28.5 C 17.480469 28.5 16.976562 28.230469 16.699219 27.742188 C 16.285156 27.023438 16.535156 26.109375 17.257812 25.695312 L 20.914062 23.605469 L 16.871094 18.988281 C 16.324219 18.363281 16.386719 17.417969 17.011719 16.871094 C 17.636719 16.324219 18.582031 16.390625 19.128906 17.011719 L 24.378906 23.011719 C 24.675781 23.351562 24.804688 23.804688 24.730469 24.25 C 24.65625 24.691406 24.386719 25.078125 23.996094 25.300781 L 18.746094 28.300781 C 18.511719 28.4375 18.253906 28.5 18 28.5 Z M 18 28.5 "/>
<path style=" stroke:none;fill-rule:nonzero;fill:rgb(17.647059%,29.803923%,36.078432%);fill-opacity:1;" d="M 15.75 15.75 L 11.777344 21.757812 L 13.941406 23.855469 L 19.480469 17.847656 Z M 15.75 15.75 "/>
<path style=" stroke:none;fill-rule:nonzero;fill:rgb(32.941177%,43.137255%,47.843137%);fill-opacity:1;" d="M 20.25 18 L 15 15 L 14.621094 15.523438 C 13.894531 16.738281 14.269531 18.300781 15.441406 19.066406 L 20.898438 23.609375 L 23.261719 21.746094 Z M 20.25 18 "/>
<path style=" stroke:none;fill-rule:nonzero;fill:rgb(100%,72.941178%,34.117648%);fill-opacity:1;" d="M 32.671875 10.078125 C 32.230469 9.640625 31.519531 9.640625 31.078125 10.078125 L 28.125 13.035156 L 25.546875 10.453125 L 22.921875 7.828125 C 22.914062 7.820312 22.902344 7.816406 22.894531 7.808594 C 22.816406 7.734375 22.730469 7.667969 22.628906 7.621094 L 18.535156 5.574219 L 18.515625 5.601562 C 17.84375 5.359375 17.097656 5.382812 16.453125 5.703125 L 12.621094 7.617188 C 12.066406 7.898438 11.839844 8.570312 12.121094 9.128906 C 12.398438 9.683594 13.074219 9.910156 13.628906 9.632812 L 17.457031 7.714844 C 17.484375 7.703125 17.515625 7.703125 17.542969 7.695312 L 21.75 10.5 L 23.714844 13.214844 L 27.066406 15.105469 C 27.132812 15.152344 27.207031 15.191406 27.28125 15.230469 L 27.386719 15.289062 L 27.378906 15.28125 C 27.617188 15.382812 27.871094 15.441406 28.125 15.441406 C 28.605469 15.441406 29.085938 15.257812 29.453125 14.890625 L 32.671875 11.671875 C 33.109375 11.230469 33.109375 10.519531 32.671875 10.078125 Z M 32.671875 10.078125 "/>
<path style=" stroke:none;fill-rule:nonzero;fill:rgb(0%,67.450982%,75.686276%);fill-opacity:1;" d="M 26.289062 11.199219 L 22.921875 7.832031 C 22.839844 7.746094 22.738281 7.675781 22.632812 7.621094 L 22.46875 7.539062 L 21.378906 8.625 L 21.375 8.625 L 15 15 L 20.25 18 L 24.066406 13.59375 Z M 26.289062 11.199219 "/>
</g>
</svg>
