<?xml version="1.0" encoding="UTF-8"?>
<svg xmlns="http://www.w3.org/2000/svg" xmlns:xlink="http://www.w3.org/1999/xlink" width="36pt" height="36pt" viewBox="0 0 36 36" version="1.1">
<g id="surface25814">
<path style=" stroke:none;fill-rule:nonzero;fill:rgb(30.588236%,20.392157%,18.039216%);fill-opacity:1;" d="M 13.5 4.5 L 22.5 4.5 L 22.5 10.5 L 13.5 10.5 Z M 13.5 4.5 "/>
<path style=" stroke:none;fill-rule:nonzero;fill:rgb(12.941177%,12.941177%,12.941177%);fill-opacity:1;" d="M 23.25 6.75 L 12.75 6.75 L 12.75 3.75 C 12.75 3.335938 13.085938 3 13.5 3 L 22.5 3 C 22.914062 3 23.25 3.335938 23.25 3.75 Z M 23.25 6.75 "/>
<path style=" stroke:none;fill-rule:nonzero;fill:rgb(36.470589%,25.098041%,21.568628%);fill-opacity:1;" d="M 23.25 33 L 12.75 33 C 11.09375 33 9.75 31.65625 9.75 30 L 9.75 12 C 9.75 9.929688 11.429688 8.25 13.5 8.25 L 22.5 8.25 C 24.570312 8.25 26.25 9.929688 26.25 12 L 26.25 30 C 26.25 31.65625 24.90625 33 23.25 33 Z M 23.25 33 "/>
<path style=" stroke:none;fill-rule:nonzero;fill:rgb(99.215686%,84.705883%,20.784314%);fill-opacity:1;" d="M 9.75 12.75 L 26.25 12.75 L 26.25 28.5 L 9.75 28.5 Z M 9.75 12.75 "/>
<path style=" stroke:none;fill-rule:nonzero;fill:rgb(100%,70.19608%,0%);fill-opacity:1;" d="M 9.75 12 L 26.25 12 L 26.25 13.5 L 9.75 13.5 Z M 9.75 27.75 L 26.25 27.75 L 26.25 29.25 L 9.75 29.25 Z M 9.75 27.75 "/>
<path style=" stroke:none;fill-rule:nonzero;fill:rgb(38.039216%,38.039216%,38.039216%);fill-opacity:1;" d="M 15 3 L 17.25 3 L 17.25 6.75 L 15 6.75 Z M 15 3 "/>
<path style=" stroke:none;fill-rule:nonzero;fill:rgb(100%,79.215688%,15.686275%);fill-opacity:1;" d="M 12.75 12 L 15.75 12 L 15.75 13.5 L 12.75 13.5 Z M 12.75 27.75 L 15.75 27.75 L 15.75 29.25 L 12.75 29.25 Z M 12.75 27.75 "/>
<path style=" stroke:none;fill-rule:nonzero;fill:rgb(100%,93.333334%,34.509805%);fill-opacity:1;" d="M 12.75 13.5 L 15.75 13.5 L 15.75 27.75 L 12.75 27.75 Z M 12.75 13.5 "/>
<path style=" stroke:none;fill-rule:nonzero;fill:rgb(47.450981%,33.333334%,28.235295%);fill-opacity:1;" d="M 12.75 12 L 15.75 12 C 15.75 12 15.75 11.625 15.75 11.25 C 15.75 8.8125 16.929688 8.4375 17.269531 8.25 L 15.75 8.25 C 12.824219 8.25 12.75 10.5 12.75 11.25 Z M 12.75 29.25 L 15.75 29.25 C 15.75 29.25 15.75 29.625 15.75 30 C 15.75 31.03125 16.121094 31.3125 16.5 31.5 C 16.5 31.5 15.316406 31.5 15 31.5 C 13.609375 31.5 12.75 30.734375 12.75 29.699219 Z M 12.75 29.25 "/>
<path style=" stroke:none;fill-rule:nonzero;fill:rgb(36.470589%,25.098041%,21.568628%);fill-opacity:1;" d="M 15.75 6.75 L 18 6.75 L 18 8.25 L 15.75 8.25 Z M 15.75 6.75 "/>
<path style=" stroke:none;fill-rule:nonzero;fill:rgb(89.803922%,22.352941%,20.784314%);fill-opacity:1;" d="M 15.75 25.5 C 14.890625 25.5 14.039062 25.132812 13.445312 24.421875 C 12.382812 23.148438 12.554688 21.257812 13.828125 20.195312 L 18.328125 16.445312 C 19.601562 15.386719 21.496094 15.554688 22.554688 16.828125 C 23.617188 18.101562 23.445312 19.996094 22.171875 21.054688 L 17.671875 24.804688 C 17.109375 25.273438 16.429688 25.5 15.75 25.5 Z M 15.75 25.5 "/>
<path style=" stroke:none;fill-rule:nonzero;fill:rgb(100%,100%,100%);fill-opacity:1;" d="M 21.742188 18.886719 C 21.78125 18.488281 21.660156 18.097656 21.402344 17.789062 C 21.117188 17.445312 20.695312 17.25 20.25 17.25 C 20 17.25 19.632812 17.3125 19.289062 17.597656 L 17.019531 19.488281 L 18.941406 21.792969 L 21.210938 19.902344 C 21.519531 19.644531 21.707031 19.285156 21.742188 18.886719 Z M 21.742188 18.886719 "/>
<path style=" stroke:none;fill-rule:nonzero;fill:rgb(93.725491%,32.549021%,31.37255%);fill-opacity:1;" d="M 15.75 18.59375 L 13.828125 20.195312 C 12.554688 21.253906 12.382812 23.148438 13.445312 24.421875 C 14.039062 25.132812 14.890625 25.5 15.75 25.5 Z M 15.75 18.59375 "/>
</g>
</svg>
