<?xml version="1.0" encoding="UTF-8"?>
<svg xmlns="http://www.w3.org/2000/svg" xmlns:xlink="http://www.w3.org/1999/xlink" width="36pt" height="36pt" viewBox="0 0 36 36" version="1.1">
<g id="surface18575">
<path style=" stroke:none;fill-rule:nonzero;fill:rgb(73.333335%,87.058824%,98.431373%);fill-opacity:1;" d="M 28.941406 5.777344 C 27.144531 3.960938 24.582031 3 21.53125 3 C 20.222656 3 19.054688 3.164062 18.046875 3.492188 C 17.035156 3.164062 15.867188 3 14.558594 3 C 8.554688 3 4.515625 6.878906 4.515625 12.65625 C 4.515625 15.054688 5.527344 16.84375 6.503906 18.574219 C 7.191406 19.792969 7.902344 21.054688 8.316406 22.585938 C 8.558594 23.5 8.773438 24.480469 8.980469 25.429688 C 9.835938 29.324219 10.644531 33 13.398438 33 C 15.324219 33 16.472656 31.632812 16.472656 29.339844 C 16.472656 26.578125 17.0625 22.90625 17.503906 20.40625 C 17.59375 19.964844 17.949219 19.941406 18.046875 19.9375 C 18.171875 19.941406 18.460938 19.988281 18.527344 20.390625 C 19.210938 24.210938 19.5625 27.21875 19.5625 29.339844 C 19.5625 31.632812 20.710938 33 22.632812 33 C 25.378906 33 26.183594 29.335938 27.039062 25.460938 C 27.25 24.5 27.46875 23.507812 27.714844 22.589844 C 28.128906 21.054688 28.839844 19.792969 29.53125 18.574219 C 30.507812 16.84375 31.515625 15.054688 31.515625 12.664062 C 31.546875 9.890625 30.65625 7.507812 28.941406 5.777344 Z M 28.941406 5.777344 "/>
<path style=" stroke:none;fill-rule:nonzero;fill:rgb(48.235294%,79.607844%,93.725491%);fill-opacity:1;" d="M 20.375 3.050781 C 19.527344 3.121094 18.746094 3.265625 18.042969 3.492188 C 18.039062 3.492188 18.035156 3.488281 18.027344 3.488281 C 19.652344 4.140625 21.109375 5.390625 22.242188 7.15625 C 22.382812 7.378906 22.625 7.503906 22.875 7.503906 C 23.011719 7.503906 23.152344 7.464844 23.277344 7.382812 C 23.625 7.160156 23.726562 6.695312 23.503906 6.347656 C 22.621094 4.972656 21.558594 3.867188 20.375 3.050781 Z M 20.375 3.050781 "/>
</g>
</svg>
