<?xml version="1.0" encoding="UTF-8"?>
<svg xmlns="http://www.w3.org/2000/svg" xmlns:xlink="http://www.w3.org/1999/xlink" width="36pt" height="36pt" viewBox="0 0 36 36" version="1.1">
<g id="surface27384">
<path style=" stroke:none;fill-rule:nonzero;fill:rgb(72.941178%,40.784314%,78.431374%);fill-opacity:1;" d="M 5.246094 15.867188 C 5.839844 16.132812 6.5625 15.925781 6.960938 15.191406 L 8.769531 11.65625 L 11.621094 10.84375 L 9.96875 16.179688 C 9.957031 16.222656 9.953125 16.257812 9.945312 16.296875 L 15.238281 17.335938 L 16.757812 12.894531 L 17.570312 15.085938 C 17.734375 15.503906 18.132812 15.75 18.597656 15.75 L 23.375 15.75 C 24.078125 15.75 24.722656 15.320312 24.699219 14.613281 C 24.671875 13.859375 24.015625 13.539062 23.351562 13.539062 L 19.5 13.539062 L 18.25 9.824219 C 18.007812 9.167969 17.527344 8.71875 16.90625 8.519531 C 15.800781 8.164062 14.605469 7.78125 13.613281 7.519531 C 13.085938 7.421875 12.332031 7.578125 11.6875 7.789062 L 7.628906 9.554688 C 7.296875 9.6875 7.03125 9.886719 6.898438 10.21875 L 4.800781 14.25 C 4.46875 14.847656 4.71875 15.625 5.246094 15.867188 Z M 5.246094 15.867188 "/>
<path style=" stroke:none;fill-rule:nonzero;fill:rgb(100%,66.666669%,27.058825%);fill-opacity:1;" d="M 10.039062 15.972656 L 8.128906 21.839844 L 3.703125 21.5625 C 2.976562 21.503906 2.308594 22.0625 2.253906 22.785156 C 2.199219 23.511719 2.753906 24.179688 3.480469 24.234375 C 3.480469 24.234375 8.910156 24.570312 8.964844 24.570312 C 9.46875 24.570312 9.96875 24.234375 10.191406 23.789062 L 12.75 19.5 "/>
<path style=" stroke:none;fill-rule:nonzero;fill:rgb(100%,66.666669%,27.058825%);fill-opacity:1;" d="M 19.917969 21.261719 C 19.917969 21.257812 19.914062 21.253906 19.914062 21.253906 C 19.746094 20.722656 19.425781 20.347656 19.171875 20.136719 L 15.21875 17.402344 L 15.25 17.292969 L 9.976562 16.148438 L 9.96875 16.179688 C 9.570312 17.578125 10.433594 18.441406 10.699219 18.707031 L 17.304688 22.441406 L 18.9375 28.035156 C 19.136719 28.742188 19.875 29.152344 20.578125 28.953125 C 21.285156 28.753906 21.699219 28.015625 21.496094 27.308594 Z M 19.917969 21.261719 "/>
<path style=" stroke:none;fill-rule:nonzero;fill:rgb(36.862746%,75.294119%,56.078434%);fill-opacity:1;" d="M 17.675781 19.097656 L 15.21875 17.402344 L 15.25 17.292969 L 9.976562 16.148438 L 9.96875 16.179688 C 9.570312 17.578125 10.433594 18.441406 10.699219 18.707031 L 15.789062 21.582031 Z M 17.675781 19.097656 "/>
<path style=" stroke:none;fill-rule:nonzero;fill:rgb(36.862746%,75.294119%,56.078434%);fill-opacity:1;" d="M 11.304688 21.921875 L 14.164062 17.046875 L 10.039062 15.972656 L 8.558594 20.519531 Z M 11.304688 21.921875 "/>
<path style=" stroke:none;fill-rule:nonzero;fill:rgb(69.01961%,74.509805%,77.254903%);fill-opacity:1;" d="M 27.449219 28.5 L 26.925781 28.5 L 6.226562 30 C 5.25 30.074219 4.5 30.898438 4.5 31.875 C 4.5 32.925781 5.324219 33.75 6.375 33.75 L 27.449219 33.75 C 28.875 33.75 30.074219 32.550781 30.074219 31.125 C 30 29.699219 28.875 28.574219 27.449219 28.5 Z M 27.449219 28.5 "/>
<path style=" stroke:none;fill-rule:nonzero;fill:rgb(69.01961%,74.509805%,77.254903%);fill-opacity:1;" d="M 29.25 30 L 29.25 17.25 L 27 17.25 L 24 30 Z M 29.25 30 "/>
<path style=" stroke:none;fill-rule:nonzero;fill:rgb(27.058825%,35.294119%,39.215687%);fill-opacity:1;" d="M 30.601562 18.75 L 23.25 18.75 L 23.25 17.25 L 29.398438 17.25 L 30.75 11.101562 L 32.25 11.398438 Z M 30.601562 18.75 "/>
<path style=" stroke:none;fill-rule:nonzero;fill:rgb(27.058825%,35.294119%,39.215687%);fill-opacity:1;" d="M 30.75 17.25 L 27 17.25 L 30.375 9.75 L 33 9.75 Z M 30.75 17.25 "/>
<path style=" stroke:none;fill-rule:nonzero;fill:rgb(27.058825%,35.294119%,39.215687%);fill-opacity:1;" d="M 27.453125 28.507812 L 27.449219 28.5 L 26.925781 28.5 L 26.917969 28.503906 L 6.199219 30.003906 L 6.199219 30.015625 C 5.234375 30.105469 4.5 30.886719 4.5 31.875 C 4.5 32.925781 5.324219 33.75 6.375 33.75 L 27.449219 33.75 L 27.449219 33.742188 C 28.839844 33.699219 30 32.523438 30 31.125 C 30 29.726562 28.84375 28.550781 27.453125 28.507812 Z M 27.375 32.25 L 6.375 32.25 C 6.148438 32.25 6 32.101562 6 31.875 C 6 31.648438 6.148438 31.5 6.375 31.5 L 6.375 31.496094 L 27.015625 30 L 27.375 30 C 27.976562 30 28.5 30.523438 28.5 31.125 C 28.5 31.726562 27.976562 32.25 27.375 32.25 Z M 27.375 32.25 "/>
<path style=" stroke:none;fill-rule:nonzero;fill:rgb(14.901961%,19.607843%,21.960784%);fill-opacity:1;" d="M 28.5 31.125 C 28.5 31.726562 27.976562 32.25 27.375 32.25 C 26.773438 32.25 26.25 31.726562 26.25 31.125 C 26.25 30.523438 26.773438 30 27.375 30 C 27.976562 30 28.5 30.523438 28.5 31.125 Z M 28.5 31.125 "/>
<path style=" stroke:none;fill-rule:nonzero;fill:rgb(100%,66.666669%,27.058825%);fill-opacity:1;" d="M 16.875 2.25 C 18.300781 2.25 19.5 3.449219 19.5 4.875 C 19.5 6.300781 18.300781 7.5 16.875 7.5 C 15.449219 7.5 14.25 6.300781 14.25 4.875 C 14.25 3.449219 15.449219 2.25 16.875 2.25 "/>
<path style=" stroke:none;fill-rule:nonzero;fill:rgb(100%,66.666669%,27.058825%);fill-opacity:1;" d="M 9.242188 8.855469 L 7.632812 9.554688 C 7.300781 9.6875 7.03125 9.886719 6.898438 10.21875 L 4.800781 14.25 C 4.46875 14.847656 4.71875 15.625 5.246094 15.867188 C 5.839844 16.132812 6.5625 15.925781 6.960938 15.191406 L 8.769531 11.65625 L 10.199219 11.25 Z M 9.242188 8.855469 "/>
<path style=" stroke:none;fill-rule:nonzero;fill:rgb(100%,66.666669%,27.058825%);fill-opacity:1;" d="M 23.351562 13.539062 L 19.5 13.539062 L 19.320312 13.007812 L 17.128906 13.925781 L 17.570312 15.085938 C 17.734375 15.503906 18.132812 15.75 18.597656 15.75 L 23.375 15.75 C 24.078125 15.75 24.722656 15.320312 24.699219 14.613281 C 24.671875 13.859375 24.019531 13.539062 23.351562 13.539062 Z M 23.351562 13.539062 "/>
</g>
</svg>
